<svg width="700" height="517" viewBox="0 0 700 517" fill="none" xmlns="http://www.w3.org/2000/svg">
<g clip-path="url(#clip0_3_315)">
<path opacity="0.1" d="M7.53442 247.554C18.5879 290.272 41.9674 327.199 78.914 345.1C155.722 382.301 328.943 363.115 458.224 341.091C525.099 329.7 583.878 298.265 626.578 254.025L7.53442 247.554Z" fill="#338573"/>
<path opacity="0.1" d="M685.478 46.4728H614.544C611.178 46.4728 608.416 43.9783 608.416 40.9302C608.416 37.882 611.178 35.3812 614.544 35.3812H626.813C623.44 35.3812 620.685 32.8867 620.685 29.8322C620.685 26.7777 623.44 24.2896 626.813 24.2896H618.057C614.684 24.2896 611.922 21.7951 611.922 18.7406C611.922 15.6861 614.684 13.1979 618.057 13.1979H655.08C646.865 9.74255 637.262 7.28623 626.196 5.99444C525.239 -5.73353 489.196 2.0236 476.481 9.99709C460.634 20.0594 443.03 27.0414 424.593 30.5767C362.307 42.2029 245.823 56.1899 140.246 26.1222C87.7721 11.1489 48.77 36.4184 25.3968 78.6595H697.798C696.92 66.3842 694.292 55.0445 689.468 45.1237C688.326 46.0057 686.922 46.4806 685.478 46.4728Z" fill="#338573"/>
<path opacity="0.1" d="M1.52088 158.388C-1.20369 183.232 -0.277525 208.342 4.26992 232.918L627.055 253.529C644.199 235.749 658.764 215.652 670.327 193.826L1.52088 158.388ZM247.84 211.555H235.578C238.95 211.555 241.712 214.056 241.712 217.104C241.712 220.152 238.95 222.647 235.578 222.647H164.643C161.277 222.647 158.515 220.152 158.515 217.104C158.515 214.056 161.277 211.555 164.643 211.555H176.912C173.54 211.555 170.784 209.061 170.784 206.013C170.784 202.964 173.54 200.464 176.912 200.464H168.15C164.777 200.464 162.015 197.969 162.015 194.921C162.015 191.873 164.777 189.372 168.15 189.372H239.084C242.457 189.372 245.212 191.867 245.212 194.921C245.212 197.975 242.457 200.464 239.084 200.464H247.84C251.213 200.464 253.968 202.958 253.968 206.013C253.968 209.067 251.213 211.555 247.84 211.555Z" fill="#338573"/>
<path opacity="0.1" d="M697.824 79.0413L17.8942 93.9956C9.62166 113.232 4.1363 134.983 1.60999 157.523H685.911C690.365 144.336 693.669 130.788 695.787 117.032C697.83 103.789 698.644 90.9793 697.824 79.0413ZM139.66 128.072H127.398C130.77 128.072 133.532 130.573 133.532 133.621C133.532 136.669 130.77 139.17 127.398 139.17H56.4635C53.0972 139.17 50.3355 136.669 50.3355 133.621C50.3355 130.573 53.0972 128.072 56.4635 128.072H68.7324C65.3597 128.072 62.6043 125.578 62.6043 122.53C62.6043 119.481 65.3597 116.981 68.7324 116.981H59.9698C56.5972 116.981 53.8354 114.486 53.8354 111.438C53.8354 108.39 56.5972 105.889 59.9698 105.889H130.904C134.277 105.889 137.032 108.383 137.032 111.438C137.032 114.492 134.277 116.981 130.904 116.981H139.66C143.033 116.981 145.788 119.481 145.788 122.53C145.788 125.578 143.033 128.072 139.66 128.072Z" fill="#338573"/>
<path opacity="0.1" d="M346.863 497.042C503.953 497.042 631.299 485.327 631.299 470.875C631.299 456.424 503.953 444.708 346.863 444.708C189.773 444.708 62.4261 456.424 62.4261 470.875C62.4261 485.327 189.773 497.042 346.863 497.042Z" fill="#338573"/>
<path d="M636.759 254.744C636.756 254.7 636.756 254.655 636.759 254.611C636.759 254.541 636.759 254.477 636.759 254.414C636.632 253.685 636.357 252.99 635.951 252.371C634.495 250.04 632.466 248.121 630.059 246.796C625.859 244.493 620.087 243.506 618.407 239.109C617.891 237.748 617.879 236.265 617.624 234.839C617.179 232.618 616.157 230.554 614.661 228.853C613.166 227.152 611.249 225.874 609.103 225.148C607.105 224.48 604.948 224.295 603.007 223.468C598.667 221.622 596.376 217.072 594.436 212.866C591.924 207.436 589.413 202.004 586.901 196.569C584.992 197.53 582.523 197.078 580.735 195.876C579.012 194.593 577.64 192.897 576.745 190.944C574.155 185.917 573.041 180.221 570 175.436C566.958 170.651 560.881 166.871 555.51 168.951C554.461 169.475 553.377 169.924 552.264 170.294C547.664 171.37 542.573 166.113 538.634 168.665C537.98 169.085 537.446 169.668 537.088 170.358C537.084 170.315 537.084 170.273 537.088 170.231C536.575 171.266 536.289 172.398 536.248 173.552C536.248 173.788 536.248 174.017 536.248 174.24C536.248 174.278 536.248 174.316 536.248 174.354C536.248 175.27 536.305 176.2 536.318 177.129C536.332 177.909 536.272 178.689 536.139 179.458V179.394C536.065 179.827 535.954 180.253 535.808 180.667C534.784 183.416 531.946 185.217 530.616 187.8V187.673C530.466 187.954 530.336 188.245 530.228 188.545C529.991 189.222 529.869 189.934 529.865 190.651C529.75 195.506 534.898 200.075 535.497 205.287C535.923 208.978 536.769 210.162 539.907 212.249L540.594 212.707C540.32 212.707 540.04 212.745 539.728 212.752C539.607 212.754 539.485 212.767 539.366 212.79C538.812 212.637 538.232 212.61 537.666 212.709C537.1 212.808 536.564 213.031 536.095 213.362C533.689 215.272 528 213.802 525.474 213.362C522.948 212.923 514.293 214.107 513.084 218.905C511.875 223.703 509.801 233.605 509.801 233.605C509.801 233.605 509.801 239.886 509.031 241.057C509.001 241.139 509.001 241.229 509.031 241.311C509.031 243.074 509.094 253.669 507.389 256.399C506.969 257.035 507.001 258.442 507.313 260.173C505.518 262.483 503.832 265.181 504.131 266.95C504.678 270.571 512.022 281.955 522.547 275.859C522.547 275.859 528.535 264.907 521.001 259.084L521.325 257.812C523.603 260.612 525.29 262.623 525.29 262.623C525.29 262.623 525.379 262.858 525.519 263.259H525.29C526.273 265.935 526.869 268.738 527.059 271.582C527.03 272.625 526.841 273.658 526.499 274.643H526.696C526.639 274.86 526.575 275.076 526.499 275.28C526.129 276.354 525.438 277.289 524.52 277.959C519.257 281.688 513.231 308.319 513.231 308.319C513.231 308.319 501.293 351.368 498.906 353.818C496.934 355.829 509.33 361.493 518.633 360.818C519.932 360.741 521.215 360.497 522.451 360.093C522.509 360.729 522.572 361.365 522.636 361.944C522.833 363.853 523.037 365.622 523.164 366.176C523.495 367.563 524.15 381.729 524.15 381.729C524.15 381.729 522.808 390.93 523.132 397.332C523.132 397.771 523.19 398.191 523.228 398.605L522.07 398.783C520.313 402.728 527.549 435.647 528.535 438.415C529.188 440.596 529.556 442.853 529.629 445.128C529.629 445.128 528.993 447.47 529.521 448.749C529.85 449.531 530.065 450.356 530.158 451.199C530.158 451.199 529.725 453.324 530.38 454.712C531.036 456.099 530.272 458.53 530.272 458.53C530.272 458.53 530.056 468.12 528.083 473.338C527.546 474.742 527.39 476.263 527.63 477.747C527.87 479.231 528.499 480.626 529.451 481.789C529.588 481.97 529.737 482.142 529.897 482.304C529.897 482.304 540.778 482.393 542.694 482.304H542.942C543.712 482.196 545.685 473.567 543.928 469.411C542.172 465.256 543.712 460.14 543.712 460.14V452.58C543.712 452.58 545.685 450.76 543.712 446.853C541.739 442.946 542.064 441.762 542.064 441.762C542.064 441.762 544.259 435.475 541.956 433.451C539.652 431.428 542.395 423.753 542.395 423.753L543.171 398.172C542.765 398.04 542.35 397.933 541.93 397.854C541.886 397.434 541.841 397.001 541.797 396.543C541.345 391.91 540.957 385.61 541.962 383.816C542.967 382.021 543.451 366.354 543.61 355.466L553.639 355.848C553.849 360.939 554.072 365.584 554.212 366.176C554.543 367.563 555.204 381.729 555.204 381.729C555.204 381.729 553.855 390.93 554.18 397.332C554.18 397.771 554.237 398.191 554.275 398.605L553.117 398.783C551.361 402.728 558.596 435.647 559.583 438.415C560.236 440.596 560.606 442.852 560.683 445.128C560.683 445.128 560.047 447.47 560.569 448.749C560.898 449.531 561.112 450.356 561.205 451.199C561.205 451.199 560.773 453.324 561.428 454.712C562.083 456.099 561.32 458.53 561.32 458.53C561.32 458.53 561.103 468.12 559.131 473.338C558.602 474.744 558.454 476.265 558.702 477.747C558.95 479.229 559.586 480.618 560.543 481.776C560.681 481.957 560.829 482.129 560.989 482.291C560.989 482.291 571.871 482.38 573.786 482.291H574.034C574.804 482.183 576.777 473.554 575.02 469.399C573.264 465.243 574.804 460.127 574.804 460.127V452.58C574.804 452.58 576.777 450.76 574.804 446.853C572.831 442.946 573.156 441.762 573.156 441.762C573.156 441.762 575.351 435.475 573.048 433.451C570.744 431.428 573.487 423.753 573.487 423.753L574.276 398.172C573.859 398.037 573.434 397.931 573.003 397.854C572.959 397.434 572.914 397.001 572.87 396.543C572.418 391.91 572.03 385.61 573.035 383.816C573.843 382.346 574.308 372.877 574.518 363.631C574.518 362.994 574.518 362.358 574.569 361.722C579.177 361.53 583.765 361.015 588.301 360.182C588.301 360.182 582.937 341.212 584.578 338.126C585.285 336.796 584.267 329.713 582.873 322.083C584.817 323.656 587.233 324.53 589.733 324.565C592.132 329.179 599.431 339.793 603.542 341.428C608.365 343.337 604.744 326.41 602.447 323.96C601.36 322.623 600.445 321.154 599.724 319.589C599.787 319.512 599.857 319.449 599.921 319.379C599.985 319.309 600.035 301.37 598.935 301.695C597.834 302.019 596.523 299.028 596.523 299.028L593.125 269.202L591.699 256.717C592.889 257.595 594.302 258.155 595.517 259.027C598.826 261.452 599.908 265.709 601.359 269.476C602.555 272.575 604.235 275.649 606.991 277.596C609.746 279.543 613.787 280.059 616.536 278.086C619.081 276.234 619.832 272.893 620.392 269.845C625.012 271.468 630.619 267.128 630.02 262.387C629.874 261.216 629.441 259.937 630.052 258.913C631.274 256.889 635.143 258.066 636.416 256.068C636.63 255.722 636.74 255.323 636.734 254.916C636.753 254.827 636.759 254.789 636.759 254.744ZM574.963 271.15C574.893 272.289 576.459 281.439 577.731 288.681C576.688 284.169 574.594 279.352 570.471 276.05C570.471 276.05 570.471 275.82 570.42 275.413H570.471C570.471 275.413 570.299 273.593 570.273 271.003C570.281 268.707 570.451 266.415 570.782 264.143V264.086H570.7C570.7 263.895 570.751 263.698 570.782 263.507C571.035 261.59 571.556 259.718 572.329 257.945C572.67 257.251 573.064 256.583 573.506 255.947C574.187 262.101 575.027 269.998 574.963 271.15ZM578.387 292.353C578.947 295.477 579.348 297.673 579.348 297.673L582.727 320.874V320.982C580.907 311.189 578.584 300.867 578.584 300.867C578.821 298.03 578.755 295.176 578.387 292.353Z" fill="url(#paint0_linear_3_315)"/>
<path d="M536.973 206.56C536.337 200.68 529.973 195.608 531.882 190.015C532.919 186.967 536.165 185.102 537.259 182.073C537.985 180.075 537.66 177.879 537.667 175.754C537.673 173.629 538.169 171.255 539.938 170.078C543.756 167.532 548.669 172.77 553.124 171.701C554.2 171.332 555.249 170.886 556.261 170.364C561.46 168.296 567.34 172.063 570.261 176.823C573.181 181.583 574.276 187.259 576.783 192.261C577.639 194.193 578.965 195.879 580.639 197.167C582.37 198.364 584.738 198.815 586.608 197.861L593.895 214.088C595.804 218.269 597.993 222.8 602.167 224.639C604.038 225.46 606.125 225.644 608.06 226.312C610.162 227.054 612.033 228.335 613.485 230.027C614.937 231.719 615.919 233.762 616.332 235.953C616.581 237.378 616.587 238.855 617.09 240.21C618.712 244.588 624.293 245.568 628.359 247.846C630.712 249.173 632.684 251.081 634.087 253.389C634.723 254.49 635.27 255.934 634.589 257.016C633.361 259.002 629.626 257.831 628.442 259.848C627.844 260.866 628.264 262.139 628.442 263.31C629.021 268.025 623.593 272.346 619.126 270.73C618.585 273.765 617.853 277.093 615.397 278.932C612.756 280.905 608.843 280.383 606.176 278.449C603.51 276.514 601.894 273.453 600.735 270.367C599.329 266.612 598.279 262.374 595.078 259.963C593.92 259.097 592.533 258.537 591.4 257.665C588.855 255.718 587.582 252.504 586.672 249.393C585.495 245.511 584.559 241.521 582.854 237.856C581.148 234.19 578.45 230.779 574.753 229.106C571.285 227.547 567.289 227.649 563.706 226.382C557.54 224.206 552.977 219.02 546.843 216.576C544.882 215.752 543.024 214.701 541.306 213.445C538.22 211.415 537.38 210.238 536.973 206.56Z" fill="#3F3D56"/>
<g opacity="0.1">
<path opacity="0.1" d="M537.546 180.826C537.677 180.577 537.792 180.32 537.889 180.056C538.608 178.058 538.29 175.862 538.297 173.737C538.296 173.028 538.362 172.321 538.494 171.624C537.907 172.881 537.621 174.259 537.66 175.646C537.654 177.358 537.858 179.152 537.546 180.826Z" fill="black"/>
<path opacity="0.1" d="M615.995 276.934C613.354 278.9 609.441 278.385 606.774 276.444C604.108 274.503 602.485 271.455 601.359 268.356C599.953 264.602 598.909 260.363 595.702 257.952C594.55 257.086 593.157 256.52 592.03 255.654C589.485 253.707 588.212 250.494 587.296 247.414C586.118 243.532 585.189 239.542 583.478 235.877C581.766 232.211 579.08 228.8 575.377 227.127C571.915 225.568 567.919 225.67 564.336 224.403C558.163 222.227 553.601 217.041 547.473 214.597C545.511 213.77 543.651 212.72 541.93 211.466C538.914 209.385 538.112 208.208 537.667 204.536C537.03 199.025 531.43 194.221 532.302 189.028C532.16 189.309 532.035 189.598 531.927 189.894C530.018 195.494 536.381 200.565 537.017 206.439C537.431 210.111 538.29 211.288 541.281 213.369C543.002 214.622 544.862 215.673 546.824 216.5C552.952 218.943 557.514 224.136 563.687 226.306C567.27 227.579 571.266 227.47 574.728 229.029C578.431 230.703 581.091 234.12 582.829 237.779C584.566 241.438 585.495 245.416 586.647 249.316C587.582 252.396 588.81 255.61 591.381 257.557C592.533 258.423 593.927 258.989 595.053 259.854C598.235 262.266 599.304 266.504 600.71 270.259C601.868 273.345 603.491 276.4 606.157 278.334C608.823 280.269 612.737 280.79 615.378 278.824C617.064 277.551 617.923 275.61 618.49 273.53C617.986 274.872 617.123 276.05 615.995 276.934Z" fill="black"/>
<path opacity="0.1" d="M629.072 257.85C628.829 258.306 628.723 258.823 628.767 259.339C630.205 257.92 633.45 258.753 634.583 256.927C634.846 256.476 634.949 255.949 634.876 255.432C633.399 256.832 630.154 255.998 629.072 257.85Z" fill="black"/>
<path opacity="0.1" d="M619.724 268.731C619.603 269.368 619.482 270.049 619.33 270.711C623.224 271.926 627.723 268.801 628.359 264.856C626.813 267.891 622.995 269.921 619.724 268.731Z" fill="black"/>
</g>
<path d="M545.195 209.621C545.195 209.621 547.314 213.897 541.058 213.986C534.803 214.075 545.086 241.757 545.086 241.757L555.484 254.993L568.421 247.993L569.166 228.686L570.12 217.021C570.12 217.021 558.03 213.095 560.257 207.903C562.484 202.71 545.195 209.621 545.195 209.621Z" fill="#FBBEBE"/>
<path d="M582.746 322.484C582.746 322.484 590.382 329.999 599.291 320.028L592.45 312.767H583.796L582.746 322.484Z" fill="#575A89"/>
<path opacity="0.1" d="M583.573 312.767L582.523 322.484C582.523 322.484 590.159 329.999 599.068 320.028" fill="black"/>
<path d="M596.421 314.091C596.421 314.091 599.495 322.153 601.722 324.59C603.949 327.028 607.449 343.891 602.784 341.982C598.12 340.073 589.211 325.863 588.677 323.426C588.142 320.989 587.938 314.091 587.938 314.091H596.421Z" fill="#FBBEBE"/>
<path d="M529.712 355.454L570.859 357.044L566.086 339.647L545.36 339.227L529.712 355.454Z" fill="#575A89"/>
<path opacity="0.1" d="M535.433 355.454L576.586 357.044L571.813 339.647L551.081 339.227L535.433 355.454Z" fill="black"/>
<path d="M543.177 384.172C542.204 385.986 542.579 392.26 543.018 396.899C543.298 399.852 543.604 402.124 543.604 402.124C543.604 402.124 528.223 406.896 525.894 402.76C525.302 401.71 525.01 399.871 524.908 397.714C524.59 391.35 525.894 382.18 525.894 382.18C525.894 382.18 525.258 368.079 524.94 366.698C524.812 366.144 524.615 364.388 524.424 362.485C524.144 359.66 523.877 356.516 523.877 356.516L544.876 345.38C544.876 345.38 544.876 347.467 544.838 350.681C544.724 360.773 544.386 381.945 543.177 384.172Z" fill="#FBBEBE"/>
<path opacity="0.1" d="M543.604 402.124C543.604 402.124 528.223 406.896 525.894 402.76C525.302 401.71 525.01 399.871 524.908 397.714C528.089 397.23 537.775 395.894 543.018 396.899C543.298 399.852 543.604 402.124 543.604 402.124Z" fill="black"/>
<path d="M544.132 482.304H543.89C542.038 482.374 531.513 482.304 531.513 482.304C531.359 482.143 531.215 481.973 531.08 481.795C530.15 480.63 529.536 479.245 529.296 477.774C529.056 476.303 529.2 474.795 529.712 473.395C531.621 468.196 531.831 458.651 531.831 458.651C531.831 458.651 532.576 456.214 531.939 454.833C531.303 453.452 531.723 451.333 531.723 451.333C531.625 450.495 531.411 449.674 531.087 448.896C530.559 447.623 531.195 445.287 531.195 445.287C531.122 443.024 530.765 440.78 530.132 438.606C529.178 435.85 522.178 403.078 523.877 399.152C523.877 399.152 538.723 396.606 544.348 398.515L543.604 423.97C543.604 423.97 540.95 431.606 543.177 433.623C545.405 435.64 543.286 441.896 543.286 441.896C543.286 441.896 542.967 443.06 544.876 446.986C546.786 450.913 544.876 452.714 544.876 452.714V460.242C544.876 460.242 543.394 465.332 545.086 469.469C546.779 473.605 544.876 482.17 544.132 482.304Z" fill="#3F3D56"/>
<path d="M573.27 384.172C572.297 385.986 572.672 392.26 573.111 396.899C573.391 399.852 573.697 402.124 573.697 402.124C573.697 402.124 558.316 406.896 555.987 402.76C555.395 401.71 555.103 399.871 555.001 397.714C554.683 391.35 555.987 382.18 555.987 382.18C555.987 382.18 555.351 368.079 555.033 366.698C554.861 365.953 554.562 358.852 554.326 352.482C554.129 347.047 553.97 342.135 553.97 342.135L574.97 345.38C574.97 345.38 574.97 354.614 574.709 364.102C574.48 373.303 574.053 382.734 573.27 384.172Z" fill="#FBBEBE"/>
<path opacity="0.1" d="M573.697 402.124C573.697 402.124 558.316 406.896 555.987 402.76C555.395 401.71 555.103 399.871 555.001 397.714C558.183 397.23 567.868 395.894 573.111 396.899C573.391 399.852 573.697 402.124 573.697 402.124Z" fill="black"/>
<path d="M574.225 482.304H573.983C572.131 482.374 561.606 482.304 561.606 482.304C561.452 482.143 561.308 481.973 561.173 481.795C560.243 480.63 559.629 479.245 559.389 477.774C559.15 476.303 559.293 474.795 559.805 473.395C561.714 468.171 561.905 458.625 561.905 458.625C561.905 458.625 562.65 456.188 562.013 454.807C561.377 453.426 561.797 451.307 561.797 451.307C561.699 450.469 561.485 449.649 561.161 448.87C560.633 447.597 561.269 445.262 561.269 445.262C561.196 442.999 560.839 440.754 560.206 438.58C559.252 435.825 552.252 403.053 553.951 399.126C553.951 399.126 568.797 396.581 574.422 398.49L573.678 423.944C573.678 423.944 571.024 431.58 573.251 433.598C575.479 435.615 573.36 441.87 573.36 441.87C573.36 441.87 573.041 443.035 574.95 446.961C576.86 450.887 574.95 452.688 574.95 452.688V460.216C574.95 460.216 573.468 465.307 575.16 469.443C576.853 473.58 574.97 482.17 574.225 482.304Z" fill="#3F3D56"/>
<path opacity="0.1" d="M553.467 214.622C561.726 214.622 568.421 207.927 568.421 199.668C568.421 191.409 561.726 184.714 553.467 184.714C545.208 184.714 538.513 191.409 538.513 199.668C538.513 207.927 545.208 214.622 553.467 214.622Z" fill="black"/>
<path d="M553.467 213.986C561.726 213.986 568.421 207.291 568.421 199.032C568.421 190.773 561.726 184.078 553.467 184.078C545.208 184.078 538.513 190.773 538.513 199.032C538.513 207.291 545.208 213.986 553.467 213.986Z" fill="#FBBEBE"/>
<path opacity="0.1" d="M523.877 356.516L544.876 345.38C544.876 345.38 544.876 347.467 544.838 350.681C541.771 352.514 537.145 355.269 532.697 357.872C530.279 359.291 527.918 360.665 525.894 361.817C525.424 362.072 524.932 362.285 524.424 362.453C524.144 359.66 523.877 356.516 523.877 356.516Z" fill="black"/>
<path opacity="0.1" d="M574.97 345.355C574.97 345.355 574.97 354.588 574.709 364.076H574.632C573.063 364.132 571.492 364.083 569.93 363.93C567.187 363.637 564.992 362.912 564.202 361.473C562.605 358.673 558.132 355.11 554.352 352.456C554.154 347.022 553.995 342.109 553.995 342.109L574.97 345.355Z" fill="black"/>
<path d="M571.062 264.481C570.53 268.623 570.428 272.809 570.757 276.972C580.404 284.927 578.603 301.682 578.603 301.682C578.603 301.682 586.029 335.625 584.438 338.698C582.848 341.772 588.04 360.652 588.04 360.652C583.614 361.491 579.133 362.006 574.632 362.192C573.063 362.248 571.492 362.199 569.93 362.046C567.187 361.753 564.991 361.028 564.202 359.59C561.237 354.397 548.402 346.653 548.402 346.653C548.402 346.653 540.269 351.527 532.697 355.963C530.278 357.382 527.918 358.756 525.894 359.908C524.252 360.779 522.437 361.277 520.581 361.365C511.576 362.033 499.581 356.395 501.49 354.397C503.825 351.954 515.388 309.108 515.388 309.108C515.388 309.108 521.217 282.591 526.308 278.881C527.2 278.207 527.866 277.277 528.217 276.215C529.96 271.372 527.046 263.609 527.046 263.609C527.046 263.609 510.609 243.354 511.347 242.183C512.085 241.012 512.092 234.763 512.092 234.763C512.092 234.763 514.109 224.9 515.273 220.127C516.438 215.354 524.819 214.183 527.256 214.61C529.693 215.036 535.204 216.519 537.533 214.61C539.862 212.701 543.795 215.354 543.795 215.354L553.454 218.014L562.141 212.923C562.141 212.923 570.846 213.369 571.59 214.533C572.335 215.698 583.789 217.931 583.789 217.931C589.618 221.851 589.408 240.522 589.408 240.522C589.408 240.522 575.409 252.714 572.545 258.976C571.803 260.735 571.304 262.587 571.062 264.481Z" fill="#575A89"/>
<path d="M586.239 237.938L589.421 240.484L592.711 270.074L595.995 299.773C595.995 299.773 597.267 302.744 598.33 302.426C599.393 302.108 599.285 320.028 599.285 320.028C599.285 320.028 587.105 312.538 582.739 322.484L579.341 298.5C579.341 298.5 574.989 274 575.097 272.091C575.205 270.182 572.87 249.501 572.87 249.501L586.239 237.938Z" fill="#575A89"/>
<path d="M513.695 239.319L511.36 242.183C511.36 242.183 511.576 254.484 509.769 257.455C507.962 260.427 514.758 277.819 517.303 276.756C519.849 275.693 525.576 248.546 525.576 248.228C525.576 247.91 513.695 239.319 513.695 239.319Z" fill="#575A89"/>
<path d="M513.485 256.819C513.485 256.819 506.059 264.347 506.587 267.955C507.115 271.563 514.223 282.897 524.405 276.807C524.405 276.807 533.848 259.046 513.485 256.819Z" fill="#575A89"/>
<path opacity="0.1" d="M543.89 482.323C542.038 482.393 531.513 482.323 531.513 482.323C531.359 482.162 531.215 481.992 531.08 481.814C533.772 480.898 539.588 479.523 543.89 482.323Z" fill="black"/>
<path opacity="0.1" d="M573.996 482.323C572.144 482.393 561.619 482.323 561.619 482.323C561.465 482.162 561.32 481.992 561.186 481.814C563.865 480.898 569.681 479.523 573.996 482.323Z" fill="black"/>
<path opacity="0.1" d="M533.448 295.789C531.825 311.354 532.359 342.243 532.697 355.963C530.278 357.382 527.918 358.756 525.894 359.908C524.252 360.779 522.437 361.277 520.581 361.365C519.906 357.216 529.248 314.6 533.448 295.789Z" fill="black"/>
<path opacity="0.1" d="M535.433 286.957C535.388 287.179 534.618 290.565 533.448 295.789C533.906 291.328 534.542 288.127 535.433 286.957Z" fill="black"/>
<path opacity="0.1" d="M561.269 285.277C561.269 285.277 570.286 341.912 543.585 348.912C543.578 348.886 562.058 346.08 561.269 285.277Z" fill="black"/>
<path opacity="0.1" d="M574.632 362.192C573.063 362.248 571.492 362.199 569.93 362.046L562.726 284.608C567.321 287.612 572.819 342.567 574.632 362.192Z" fill="black"/>
<path opacity="0.1" d="M542.331 190.237C542.809 190.199 543.29 190.249 543.75 190.384C544.425 190.72 545.034 191.178 545.545 191.733C546.374 192.426 547.367 192.898 548.428 193.104C549.49 193.31 550.587 193.243 551.615 192.91C552.341 192.586 553.111 192.371 553.9 192.274C555.115 192.274 556.165 193.165 556.795 194.183C557.425 195.201 557.75 196.41 558.291 197.498C558.832 198.586 559.697 199.617 560.887 199.885C561.458 199.907 562.019 200.036 562.542 200.266C562.862 200.527 563.108 200.867 563.254 201.253C564.247 203.397 565.036 205.93 567.155 206.98C567.935 207.341 568.784 207.526 569.643 207.521C570.517 207.585 571.392 207.427 572.189 207.063C572.972 206.625 573.619 205.98 574.06 205.198C575.383 203.009 575.536 200.298 575.224 197.759C574.835 194.556 573.695 191.49 571.896 188.812C570.001 186.103 567.42 183.946 564.418 182.561C561.417 181.176 558.101 180.612 554.81 180.928C553.661 181.057 552.523 181.269 551.405 181.564C547.358 182.646 543.387 184.669 540.931 188.061C540.337 188.908 539.684 189.712 538.977 190.467C540.091 190.358 541.211 190.263 542.331 190.237Z" fill="black"/>
<path d="M542.331 189.601C542.809 189.563 543.29 189.613 543.75 189.747C544.425 190.084 545.034 190.541 545.545 191.097C546.374 191.79 547.367 192.262 548.428 192.468C549.49 192.674 550.587 192.607 551.615 192.274C552.341 191.949 553.111 191.735 553.9 191.637C555.115 191.637 556.165 192.528 556.795 193.546C557.425 194.565 557.75 195.774 558.291 196.862C558.832 197.95 559.697 198.981 560.887 199.248C561.458 199.27 562.019 199.4 562.542 199.63C562.862 199.89 563.108 200.231 563.254 200.616C564.247 202.761 565.036 205.294 567.155 206.344C567.935 206.705 568.784 206.889 569.643 206.884C570.517 206.949 571.392 206.791 572.189 206.426C572.972 205.989 573.619 205.344 574.06 204.562C575.383 202.373 575.536 199.662 575.224 197.123C574.835 193.92 573.695 190.854 571.896 188.176C570.001 185.467 567.42 183.31 564.418 181.924C561.417 180.539 558.101 179.976 554.81 180.291C553.661 180.42 552.523 180.633 551.405 180.928C547.358 182.009 543.387 184.033 540.931 187.425C540.337 188.271 539.684 189.075 538.977 189.83C540.091 189.722 541.211 189.627 542.331 189.601Z" fill="#3F3D56"/>
<path opacity="0.1" d="M526.104 225.211C526.104 225.211 526.849 231.155 524.303 232.638C521.758 234.12 526.104 225.211 526.104 225.211Z" fill="black"/>
<path opacity="0.1" d="M580.086 271.245C580.086 271.245 586.131 262.336 586.984 264.882C587.836 267.427 580.086 271.245 580.086 271.245Z" fill="black"/>
<path opacity="0.1" d="M580.512 274.21C580.512 274.21 586.475 266.892 587.047 269.756C587.62 272.62 580.512 274.21 580.512 274.21Z" fill="black"/>
<path opacity="0.1" d="M563 265.499C560.837 265.529 558.727 264.835 557.005 263.526H556.483C554.698 265.157 552.353 266.039 549.935 265.989C548.678 266.018 547.428 265.792 546.261 265.323C545.094 264.855 544.034 264.155 543.146 263.265H542.452C540.62 264.757 538.319 265.552 535.956 265.509C533.594 265.466 531.323 264.588 529.547 263.03L527.059 262.985C527.059 262.985 529.973 270.749 528.229 275.591L570.757 276.349C570.428 272.185 570.53 267.999 571.062 263.857V263.8L568.727 263.755C567.047 264.92 565.044 265.53 563 265.499Z" fill="black"/>
<path opacity="0.1" d="M563 266.772C560.837 266.802 558.727 266.108 557.005 264.799H556.483C554.698 266.43 552.353 267.312 549.935 267.261C548.678 267.291 547.428 267.064 546.261 266.596C545.094 266.128 544.034 265.428 543.146 264.538H542.452C540.62 266.03 538.319 266.825 535.956 266.782C533.594 266.739 531.323 265.86 529.547 264.302L527.059 264.258C527.059 264.258 529.973 272.021 528.229 276.864L570.757 277.621C570.428 273.458 570.53 269.272 571.062 265.13V265.072L568.727 265.028C567.047 266.193 565.044 266.803 563 266.772Z" fill="black"/>
<path d="M563 266.135C560.837 266.166 558.727 265.471 557.005 264.162H556.483C554.698 265.794 552.353 266.675 549.935 266.625C548.678 266.654 547.428 266.428 546.261 265.96C545.094 265.492 544.034 264.791 543.146 263.902H542.452C540.62 265.394 538.319 266.189 535.956 266.146C533.594 266.103 531.323 265.224 529.547 263.666L527.059 263.622C527.059 263.622 529.973 271.385 528.229 276.228L570.757 276.985C570.428 272.822 570.53 268.636 571.062 264.493V264.436L568.727 264.392C567.047 265.557 565.044 266.166 563 266.135Z" fill="#3F3D56"/>
<path opacity="0.1" d="M561.11 223.703C561.11 223.703 570.063 224.276 570.121 225.549C570.178 226.821 561.11 223.703 561.11 223.703Z" fill="black"/>
<path opacity="0.1" d="M539.359 218.275C539.359 218.275 530.406 218.848 530.349 220.121C530.291 221.393 539.359 218.275 539.359 218.275Z" fill="black"/>
<path opacity="0.1" d="M573.576 244.296C573.487 244.232 573.398 244.181 573.309 244.124C575.6 246.186 575.218 250.691 572.405 254.407C569.592 258.123 565.322 259.67 562.726 258.003C562.809 258.073 562.879 258.149 562.968 258.219C565.513 260.166 569.968 258.639 572.908 254.795C575.848 250.952 576.134 246.249 573.576 244.296Z" fill="black"/>
<path opacity="0.1" d="M524.392 253.93C522.127 249.845 522.42 245.333 524.984 243.621C524.889 243.666 524.787 243.704 524.691 243.755C521.879 245.32 521.51 250.01 523.839 254.235C526.168 258.461 530.368 260.599 533.18 259.059C533.273 259.006 533.362 258.946 533.448 258.881C530.641 260.153 526.658 258.015 524.392 253.93Z" fill="black"/>
<path opacity="0.1" d="M527.421 219.478L526.6 220.751L524.507 219.637L525.608 217.944C526.336 218.288 526.961 218.817 527.421 219.478Z" fill="black"/>
<path d="M514.122 266.574C514.122 266.574 515.986 257.805 513.485 255.018C510.984 252.231 511.786 237.62 515.604 237.938C519.422 238.257 525.15 249.813 524.195 252.256C523.24 254.7 519.632 267.211 519.632 267.211L514.122 266.574Z" fill="#FBBEBE"/>
<path opacity="0.1" d="M573.996 203.308C573.556 204.09 572.908 204.735 572.125 205.173C571.329 205.537 570.453 205.695 569.58 205.631C568.721 205.636 567.871 205.451 567.092 205.09C564.972 204.034 564.183 201.501 563.191 199.363C563.065 198.977 562.841 198.631 562.542 198.357C562.026 198.123 561.472 197.987 560.906 197.956C559.716 197.689 558.857 196.652 558.31 195.57C557.763 194.488 557.438 193.292 556.814 192.255C556.191 191.217 555.134 190.307 553.919 190.346C553.128 190.45 552.357 190.676 551.635 191.014C550.605 191.344 549.508 191.409 548.447 191.202C547.386 190.995 546.394 190.523 545.564 189.83C545.053 189.275 544.445 188.818 543.769 188.481C543.309 188.346 542.828 188.297 542.35 188.335C541.618 188.335 540.893 188.405 540.161 188.462C539.799 188.937 539.41 189.392 538.997 189.824C540.11 189.728 541.23 189.633 542.35 189.607C542.828 189.569 543.309 189.619 543.769 189.754C544.445 190.09 545.053 190.548 545.564 191.103C546.394 191.796 547.386 192.268 548.447 192.475C549.508 192.682 550.605 192.617 551.635 192.286C552.357 191.949 553.128 191.723 553.919 191.618C555.134 191.618 556.184 192.509 556.814 193.527C557.444 194.546 557.769 195.755 558.31 196.843C558.851 197.931 559.716 198.962 560.906 199.229C561.472 199.26 562.026 199.396 562.542 199.63C562.862 199.89 563.108 200.23 563.254 200.616C564.247 202.761 565.036 205.294 567.155 206.344C567.935 206.705 568.784 206.889 569.643 206.884C570.517 206.949 571.392 206.791 572.189 206.426C572.972 205.989 573.619 205.344 574.06 204.562C575.048 202.763 575.49 200.715 575.332 198.669C575.284 200.303 574.824 201.899 573.996 203.308Z" fill="black"/>
<path d="M516.941 273.53C520.104 273.53 522.668 271.792 522.668 269.648C522.668 267.504 520.104 265.766 516.941 265.766C513.777 265.766 511.213 267.504 511.213 269.648C511.213 271.792 513.777 273.53 516.941 273.53Z" fill="#575A89"/>
<path d="M330.26 485.721C438.682 485.721 526.575 397.828 526.575 289.407C526.575 180.985 438.682 93.0919 330.26 93.0919C221.839 93.0919 133.946 180.985 133.946 289.407C133.946 397.828 221.839 485.721 330.26 485.721Z" fill="#338573"/>
<path d="M433.267 388.06C433.267 419.051 384.548 390.707 332.316 390.707C280.084 390.707 227.254 417.88 227.254 386.889C227.254 369.218 244.092 344.642 268.248 326.792C286.448 313.34 308.796 303.705 331.247 303.705C354.334 303.705 376.95 314.135 394.99 328.453C417.759 346.506 433.267 370.764 433.267 388.06Z" fill="#444053"/>
<path d="M394.984 328.44C367.22 324.26 317.005 319.162 268.248 326.78C286.448 313.327 308.796 303.693 331.247 303.693C354.327 303.693 376.943 314.122 394.984 328.44Z" fill="#F6F8FB"/>
<path opacity="0.05" d="M227.254 150.828C227.254 150.828 168.118 188.634 168.601 247.77C169.085 306.906 227.254 150.828 227.254 150.828Z" fill="black"/>
<path d="M526.499 44.0547C526.499 44.0547 472.918 40.8284 479.237 78.3731C479.237 78.3731 477.964 85.0039 483.997 88.0202C483.997 88.0202 484.092 85.2393 489.488 86.1811C491.411 86.5029 493.366 86.5969 495.311 86.4611C497.939 86.2824 500.438 85.2501 502.425 83.5212C502.425 83.5212 517.488 77.304 523.349 52.6836C523.349 52.6836 527.682 47.3128 527.51 45.9383L518.468 49.7946C518.468 49.7946 521.554 56.3172 519.104 61.7389C519.104 61.7389 518.811 50.0364 517.074 50.2845C516.724 50.3418 512.378 52.5436 512.378 52.5436C512.378 52.5436 517.691 63.9088 513.651 72.1623C513.651 72.1623 515.172 58.1626 510.685 53.3645L504.322 57.0808C504.322 57.0808 510.533 68.8151 506.32 78.3922C506.32 78.3922 507.402 63.7052 502.985 57.9844L497.214 62.4834C497.214 62.4834 503.049 74.0523 499.492 81.994C499.492 81.994 499.027 64.8952 495.966 63.6034C495.966 63.6034 490.92 68.0578 490.15 69.8842C490.15 69.8842 494.146 78.2777 491.671 82.7067C491.671 82.7067 490.15 71.316 488.903 71.2523C488.903 71.2523 483.876 78.7995 483.348 83.9794C483.348 83.9794 483.57 76.2795 487.681 70.5333C487.681 70.5333 482.819 71.3669 479.988 74.5232C479.988 74.5232 480.77 69.1842 488.897 68.7197C488.897 68.7197 493.052 62.9925 494.166 62.6489C494.166 62.6489 486.052 61.968 481.133 64.1507C481.133 64.1507 485.46 59.1171 495.648 61.4016L501.375 56.7562C501.375 56.7562 490.697 55.2926 486.167 56.909C486.167 56.909 491.378 52.4545 502.909 55.6999L509.113 51.99C509.113 51.99 500.007 50.03 494.579 50.7173C494.579 50.7173 500.306 47.631 510.927 50.9782L515.382 48.9864C515.382 48.9864 508.706 47.6755 506.753 47.4719C504.799 47.2682 504.697 46.721 504.697 46.721C508.936 46.0317 513.284 46.5363 517.252 48.1782C517.252 48.1782 526.658 44.6465 526.499 44.0547Z" fill="#338573"/>
<path d="M471.543 27.3631C471.543 27.3631 447.362 25.8995 450.187 42.8647C450.187 42.8647 449.621 45.8619 452.338 47.2237C452.338 47.2237 452.376 45.951 454.82 46.3964C455.688 46.5393 456.57 46.582 457.448 46.5237C458.637 46.4389 459.766 45.9724 460.668 45.1937C460.668 45.1937 467.471 42.381 470.118 31.2576C470.118 31.2576 472.078 28.8331 472.027 28.2095L467.941 29.9531C467.941 29.9531 469.341 32.8994 468.241 35.3494C468.241 35.3494 468.107 30.0613 467.324 30.1885C467.165 30.1885 465.199 31.2067 465.199 31.2067C465.199 31.2067 467.604 36.3421 465.791 40.0711C465.791 40.0711 466.478 33.7457 464.454 31.5758L461.578 33.2558C461.578 33.2558 464.384 38.5629 462.482 42.8901C462.482 42.8901 462.965 36.253 460.973 33.6694L458.364 35.6993C458.364 35.6993 460.999 40.9238 459.395 44.5128C459.395 44.5128 459.185 36.7875 457.798 36.2021C457.798 36.2021 455.52 38.2129 455.17 39.0402C455.17 39.0402 456.977 42.8583 455.857 44.8374C455.857 44.8374 455.17 39.6893 454.584 39.6702C454.584 39.6702 452.313 43.0747 452.077 45.3974C452.187 43.2358 452.86 41.1406 454.031 39.3202C452.721 39.5679 451.514 40.194 450.556 41.1211C450.556 41.1211 450.906 38.7093 454.591 38.4993C454.591 38.4993 456.468 35.9157 456.971 35.7566C456.971 35.7566 453.305 35.4512 451.085 36.4375C451.085 36.4375 453.038 34.1594 457.645 35.1648L460.191 33.0712C460.191 33.0712 455.367 32.4349 453.318 33.1348C453.318 33.1348 455.673 31.124 460.884 32.594L463.684 30.914C463.684 30.914 459.573 30.0295 457.117 30.3476C457.117 30.3476 459.707 28.954 464.505 30.4685L466.51 29.5649C466.51 29.5649 463.493 28.9731 462.615 28.884C461.737 28.7949 461.68 28.5468 461.68 28.5468C463.59 28.229 465.551 28.4493 467.343 29.1831C467.343 29.1831 471.613 27.6304 471.543 27.3631Z" fill="#338573"/>
<path opacity="0.1" d="M682.863 464.543C692.327 464.543 700 463.247 700 461.648C700 460.049 692.327 458.753 682.863 458.753C673.399 458.753 665.726 460.049 665.726 461.648C665.726 463.247 673.399 464.543 682.863 464.543Z" fill="#338573"/>
<path opacity="0.1" d="M29.7622 512.709C39.2267 512.709 46.8991 511.413 46.8991 509.814C46.8991 508.214 39.2267 506.918 29.7622 506.918C20.2977 506.918 12.6252 508.214 12.6252 509.814C12.6252 511.413 20.2977 512.709 29.7622 512.709Z" fill="#338573"/>
<path opacity="0.1" d="M129.243 516.342C138.708 516.342 146.38 515.046 146.38 513.447C146.38 511.848 138.708 510.552 129.243 510.552C119.779 510.552 112.106 511.848 112.106 513.447C112.106 515.046 119.779 516.342 129.243 516.342Z" fill="#338573"/>
<path d="M645.356 497.004C659.488 497.004 670.944 495.066 670.944 492.676C670.944 490.287 659.488 488.349 645.356 488.349C631.225 488.349 619.769 490.287 619.769 492.676C619.769 495.066 631.225 497.004 645.356 497.004Z" fill="#338573"/>
<path d="M655.933 485.607C657.101 484.653 657.952 483.369 658.376 481.922C658.688 480.465 658.065 478.709 656.671 478.174C655.105 477.576 653.432 478.664 652.165 479.759C650.899 480.853 649.442 482.1 647.781 481.871C648.635 481.098 649.274 480.116 649.635 479.022C649.997 477.928 650.068 476.759 649.843 475.629C649.77 475.16 649.572 474.721 649.27 474.356C648.398 473.427 646.826 473.821 645.783 474.553C642.474 476.882 641.551 481.375 641.532 485.422C641.201 483.965 641.481 482.444 641.475 480.968C641.468 479.491 641.055 477.786 639.795 477.003C639.013 476.586 638.135 476.379 637.249 476.405C635.76 476.348 634.106 476.494 633.088 477.582C631.815 478.938 632.152 481.203 633.253 482.673C634.354 484.143 636.021 485.098 637.555 486.122C638.789 486.856 639.842 487.859 640.635 489.056C640.727 489.224 640.804 489.401 640.864 489.584H650.186C652.272 488.523 654.205 487.186 655.933 485.607Z" fill="#338573"/>
<path d="M37.7611 432.249C37.7611 432.249 41.2547 436.818 36.1448 443.703C31.0349 450.588 26.8222 456.43 28.5086 460.732C28.5086 460.732 36.2148 447.916 42.5083 447.731C48.8018 447.546 44.6592 439.955 37.7611 432.249Z" fill="#338573"/>
<path opacity="0.1" d="M37.7611 432.249C38.0645 432.69 38.3044 433.172 38.4739 433.68C44.5956 440.871 47.8537 447.585 41.9738 447.75C36.4884 447.909 29.8831 457.709 28.3368 460.184C28.3908 460.376 28.4545 460.565 28.5277 460.751C28.5277 460.751 36.2339 447.935 42.5274 447.75C48.8209 447.565 44.6592 439.955 37.7611 432.249Z" fill="black"/>
<path d="M44.2583 438.071C44.2583 439.681 44.0737 440.986 43.851 440.986C43.6283 440.986 43.4501 439.713 43.4501 438.071C43.4501 436.429 43.6728 437.218 43.9019 437.218C44.131 437.218 44.2583 436.461 44.2583 438.071Z" fill="#FFD037"/>
<path d="M46.46 439.993C45.0473 440.763 43.8192 441.227 43.711 441.03C43.6028 440.833 44.6655 440.057 46.0782 439.287C47.4909 438.517 46.9309 439.077 47.0391 439.287C47.1473 439.497 47.8982 439.223 46.46 439.993Z" fill="#FFD037"/>
<path d="M19.2942 432.249C19.2942 432.249 15.8006 436.818 20.9042 443.703C26.0077 450.588 30.2267 456.43 28.5404 460.732C28.5404 460.732 20.8278 447.916 14.5407 447.731C8.2535 447.546 12.3898 439.955 19.2942 432.249Z" fill="#338573"/>
<path opacity="0.1" d="M19.2942 432.249C18.988 432.688 18.7479 433.171 18.5815 433.68C12.4598 440.871 9.19528 447.585 15.0815 447.75C20.5605 447.909 27.1722 457.709 28.7122 460.184C28.6603 460.376 28.5987 460.565 28.5276 460.751C28.5276 460.751 20.8151 447.935 14.5279 447.75C8.24075 447.565 12.3898 439.955 19.2942 432.249Z" fill="black"/>
<path d="M12.797 438.071C12.797 439.681 12.9752 440.986 13.1979 440.986C13.4207 440.986 13.5988 439.713 13.5988 438.071C13.5988 436.429 13.3761 437.218 13.1534 437.218C12.9307 437.218 12.797 436.461 12.797 438.071Z" fill="#FFD037"/>
<path d="M10.5634 439.993C11.9761 440.763 13.2107 441.227 13.3188 441.03C13.427 440.833 12.3643 440.057 10.9516 439.287C9.53891 438.517 10.0925 439.077 9.99072 439.287C9.8889 439.497 9.15073 439.223 10.5634 439.993Z" fill="#FFD037"/>
<path d="M13.9106 460.153C13.9106 460.153 23.685 459.853 26.6377 457.754C29.5904 455.654 41.6747 453.153 42.4065 456.481C43.1383 459.809 57.0935 473.217 46.0592 473.306C35.0248 473.395 20.4205 471.581 17.4806 469.793C14.5406 468.005 13.9106 460.153 13.9106 460.153Z" fill="#A8A8A8"/>
<path opacity="0.2" d="M46.2437 472.167C35.2094 472.256 20.6051 470.442 17.6651 468.654C15.4252 467.292 14.5343 462.399 14.2352 460.14H13.9106C13.9106 460.14 14.547 468.024 17.4679 469.812C20.3887 471.601 35.0121 473.414 46.0464 473.325C49.2282 473.325 50.3291 472.161 50.2718 470.487C49.8264 471.511 48.6173 472.148 46.2437 472.167Z" fill="black"/>
<path d="M260.465 263.666C264.201 263.456 281.783 262.132 292.951 255.763C294.745 254.707 296.771 254.111 298.85 254.025C302.401 253.924 306.486 255.406 303.871 263.704C299.633 277.278 275.025 292.55 259.753 291.704C245.066 290.889 227.642 284.971 216.137 264.162C215.035 262.16 214.492 259.899 214.565 257.614C214.699 253.414 216.226 248.152 224.111 254.019C234.763 261.942 254.974 263.443 259.027 263.666C259.506 263.692 259.986 263.692 260.465 263.666Z" fill="#444053"/>
<path d="M401.735 263.666C405.471 263.456 423.053 262.132 434.221 255.763C436.015 254.707 438.041 254.111 440.12 254.025C443.671 253.924 447.756 255.406 445.141 263.704C440.903 277.278 416.295 292.55 401.023 291.704C386.336 290.889 368.912 284.971 357.407 264.162C356.305 262.16 355.762 259.899 355.835 257.614C355.969 253.414 357.496 248.152 365.381 254.019C376.033 261.942 396.244 263.443 400.297 263.666C400.776 263.692 401.256 263.692 401.735 263.666Z" fill="#444053"/>
</g>
<defs>
<linearGradient id="paint0_linear_3_315" x1="567.715" y1="482.349" x2="567.715" y2="167.965" gradientUnits="userSpaceOnUse">
<stop stop-color="#808080" stop-opacity="0.25"/>
<stop offset="0.54" stop-color="#808080" stop-opacity="0.12"/>
<stop offset="1" stop-color="#808080" stop-opacity="0.1"/>
</linearGradient>
<clipPath id="clip0_3_315">
<rect width="700" height="516.342" fill="white"/>
</clipPath>
</defs>
</svg>
