<svg width="496" height="348" viewBox="0 0 496 348" fill="none" xmlns="http://www.w3.org/2000/svg">
<path d="M216.574 11.6676C216.574 11.6676 223.474 11.0676 221.874 16.8676C219.474 25.4676 203.874 25.0676 198.974 24.2676C186.374 21.9676 185.774 15.3676 190.674 13.2676C187.474 4.66757 196.874 -4.93243 202.774 4.06757C208.574 -5.83243 223.774 4.56758 216.574 11.6676Z" fill="#263238"/>
<path d="M162.274 89.6676C172.774 103.168 234.574 97.0676 248.174 85.3676C250.974 82.9676 251.574 77.9676 248.574 75.3676C245.574 72.7676 243.674 72.0676 244.374 68.1676C245.074 64.2676 246.774 59.7676 244.174 55.2676C241.574 50.7676 232.274 52.6676 229.574 44.8676C227.474 38.8676 225.674 26.9676 207.774 22.1676C193.974 18.4676 174.474 28.9676 177.274 47.6676C177.874 51.7676 169.074 52.2676 167.774 58.6676C166.474 65.0676 170.374 71.6676 166.274 74.9676C162.774 77.8676 157.674 83.7676 162.274 89.6676Z" fill="#263238"/>
<path d="M219.974 83.9676C236.874 82.4676 258.274 81.9676 271.374 106.868C284.474 131.768 285.774 183.868 285.174 188.668C284.574 193.468 252.674 210.368 252.674 210.368C252.674 210.368 163.974 202.068 163.674 202.068C163.374 202.068 141.574 191.668 141.574 191.668C147.574 179.768 150.074 166.468 148.974 153.168C148.074 144.268 151.374 87.2676 180.674 86.0676C203.574 85.0676 219.974 83.9676 219.974 83.9676Z" fill="#0C4F3F"/>
<path d="M187.374 78.2679C184.674 81.9679 180.374 88.6679 181.374 93.7679C182.374 98.8679 188.774 108.468 196.174 112.768C203.574 117.068 210.674 119.368 217.074 117.868C223.474 116.368 227.074 110.768 228.474 103.168C229.874 95.5679 227.974 83.0679 223.474 80.2679C218.974 77.4679 187.374 78.2679 187.374 78.2679Z" fill="#FFFEFF"/>
<path d="M190.574 87.5675C193.174 95.7675 199.374 101.367 204.974 102.367C210.574 103.367 216.574 100.967 220.874 96.2675C225.174 91.5675 222.774 84.7675 222.174 84.0675C221.574 83.3675 190.574 87.5675 190.574 87.5675Z" fill="#FFFEFF"/>
<path d="M184.075 66.4677C185.175 66.2677 183.675 59.8677 183.675 59.8677C183.675 59.8677 187.675 58.4677 187.675 54.9677C187.675 51.4677 187.775 49.7677 191.075 49.9677C194.375 50.1677 195.975 46.3677 195.375 44.3677C195.375 44.3677 200.275 50.9677 204.975 54.4677C209.675 57.9677 215.275 53.6677 217.275 54.5677C219.275 55.4677 219.575 59.2677 222.075 59.4677C224.575 59.6677 225.775 59.5677 226.175 62.1677C226.075 64.7677 225.975 64.6677 226.575 64.7677C227.175 64.8677 229.175 63.4677 228.575 54.5677C228.575 54.5677 231.675 51.1677 233.875 54.6677C236.075 58.1677 234.475 61.5677 231.975 64.9677C230.475 66.9677 228.875 68.9677 227.075 70.8677C227.075 70.8677 228.375 75.8677 224.975 82.9677C221.575 90.0677 216.175 99.2677 206.875 98.3677C197.575 97.4677 195.275 93.3677 191.375 89.6677C187.475 85.9677 183.575 78.1677 181.775 71.4677C179.475 69.9677 177.575 67.9677 176.375 65.4677C174.075 61.0677 175.175 55.6677 176.375 55.2677C177.575 54.8677 178.575 55.1677 179.675 59.5677C180.475 62.7677 182.975 66.5677 184.075 66.4677Z" fill="#FFFEFF"/>
<path d="M246.875 91.4676C243.675 96.9676 234.775 113.268 232.675 115.368C232.575 115.468 232.575 115.468 232.475 115.568C226.675 119.468 226.975 119.468 228.275 112.468C228.275 112.368 228.375 112.268 228.375 112.168C229.275 109.768 235.475 98.6676 241.175 89.3676C246.775 80.3676 247.475 78.2676 250.875 79.6676C254.275 81.0676 250.175 85.7676 246.875 91.4676Z" fill="#263238"/>
<path d="M495.774 279.668C496.074 308.168 392.074 335.768 274.274 345.268C152.674 355.068 14.7744 334.568 14.7744 305.968C14.7744 277.368 87.2744 244.568 279.574 230.468C394.474 222.168 495.574 257.868 495.774 279.668Z" fill="#0C4F3F"/>
<path d="M38.5742 311.468C38.3742 314.068 29.2742 317.468 21.5742 316.368C13.8742 315.268 9.27424 316.168 8.27424 311.668C7.27424 307.168 5.27424 270.668 6.17424 266.568C6.87424 263.168 13.4742 261.568 21.5742 261.568C34.5742 261.668 38.4742 264.668 38.5742 266.268C38.7742 268.868 38.7742 308.868 38.5742 311.468Z" fill="#FFFEFF"/>
<path d="M10.7747 312.667C7.47471 312.367 6.3747 313.667 7.1747 315.267C7.9747 316.867 14.4747 319.267 23.8747 319.267C33.2747 319.267 39.8747 315.367 39.8747 313.767C39.8747 311.467 37.4747 310.967 36.3747 311.367C35.2747 311.767 10.7747 312.667 10.7747 312.667Z" fill="#FFFEFF"/>
<path d="M38.5748 266.368C36.8748 268.868 33.8748 270.268 30.2748 270.868C28.9748 271.068 27.5748 271.268 26.2748 271.268C25.2748 271.268 24.2748 271.268 23.1748 271.268C21.2748 271.168 19.4748 270.968 17.6748 270.668C16.8748 270.568 16.0748 270.368 15.2748 270.168C13.7748 269.868 12.3748 269.368 10.9748 268.868C9.27481 268.268 7.6748 267.468 6.1748 266.468C6.4748 265.268 7.47481 264.268 9.07481 263.468C10.6748 262.768 12.3748 262.268 14.1748 261.968L14.6748 261.868C16.9748 261.568 19.2748 261.368 21.5748 261.468C22.8748 261.468 24.0748 261.468 25.1748 261.568C35.1748 262.368 38.3748 264.868 38.5748 266.368Z" fill="#263238"/>
<path d="M26.2751 271.368C25.2751 271.368 24.2751 271.368 23.1751 271.368C20.4751 271.268 17.8751 270.868 15.2751 270.268C14.9751 267.968 14.5751 265.168 14.1751 262.168C11.9751 245.168 8.87507 219.968 10.0751 219.568C13.4751 218.568 20.0751 219.068 20.2751 219.868C20.3751 220.368 23.2751 244.768 25.1751 261.768C25.5751 265.368 25.8751 268.668 26.2751 271.368Z" fill="#FFFEFF"/>
<path d="M17.5742 270.668C16.7742 270.568 15.9742 270.368 15.1742 270.168C13.6742 269.868 12.2742 269.368 10.8742 268.868L8.97416 263.468C5.57416 253.568 1.87417 242.668 2.07417 242.368C3.17417 240.668 6.27417 239.368 6.97416 240.668C7.37417 241.368 11.0742 252.168 14.4742 261.968L17.5742 270.668Z" fill="#263238"/>
<path d="M31.2748 264.268L30.2748 270.868C27.9748 271.268 25.5748 271.368 23.1748 271.268C23.4748 269.468 23.9748 266.768 24.7748 263.268L31.2748 264.268Z" fill="#FFFEFF"/>
<path d="M33.2746 236.968C23.2746 235.668 19.0747 240.568 19.0747 246.968C18.8747 250.868 20.9746 254.468 24.3746 256.268C25.0746 256.468 22.8746 264.568 23.7746 264.768C28.6746 266.068 30.7746 266.768 31.3746 266.268C31.9746 265.768 33.6746 258.168 33.8746 257.468C34.0746 256.768 41.0746 259.468 43.6746 252.068C46.2746 244.668 43.2746 238.268 33.2746 236.968ZM25.8746 249.968C23.7746 249.368 22.4746 247.368 22.8746 245.268C23.0746 243.568 24.5746 242.268 26.2746 242.468C26.6746 242.468 27.1747 242.668 27.5747 242.868C28.2747 243.368 26.6746 250.168 25.8746 249.968ZM40.5746 248.368C40.4746 250.468 38.6746 251.968 36.6746 251.868C36.2746 251.868 35.8746 251.768 35.5746 251.668C35.0746 251.168 35.4746 249.668 36.4746 244.468C36.4746 243.668 40.7747 244.668 40.5746 248.368Z" fill="#0C4F3F"/>
<path d="M55.7745 300.268C80.0745 297.768 139.775 291.468 139.775 291.468L114.475 318.168C114.475 318.168 80.6745 325.168 78.4745 324.368C76.2745 323.568 55.1745 303.768 54.6745 302.968C54.1745 302.168 54.8745 300.368 55.7745 300.268Z" fill="#FFFEFF"/>
<path d="M71.5742 313.368C71.5742 314.368 90.4742 317.068 113.174 322.568C135.874 328.068 142.274 330.068 144.274 329.668C146.274 329.268 220.274 300.568 220.874 299.568C221.474 298.568 162.674 288.568 159.974 288.668C157.274 288.768 71.5742 311.368 71.5742 313.368Z" fill="#263238"/>
<path d="M75.975 310.168C75.575 310.668 89.775 312.968 112.475 318.568C135.175 324.168 141.575 326.068 143.575 325.668C145.575 325.268 217.075 298.668 217.575 297.668C218.075 296.668 161.975 284.568 159.175 284.668C156.375 284.768 77.375 308.668 75.975 310.168Z" fill="#FFFEFF"/>
<path d="M120.574 258.368C126.974 251.268 176.774 268.668 176.774 268.668L175.274 277.268C168.174 276.768 161.074 277.268 154.074 278.668C143.274 280.968 124.774 289.068 117.774 278.368C113.374 271.468 116.774 262.668 120.574 258.368Z" fill="#FFFEFF"/>
<path d="M280.075 193.168C307.875 191.568 325.975 196.268 330.275 209.568C334.575 222.868 320.575 245.268 301.275 256.268C281.975 267.268 243.675 271.568 243.675 271.568C243.675 271.568 166.475 253.368 145.675 234.268C124.875 215.168 105.775 193.668 111.575 191.668C117.375 189.668 143.975 184.468 185.675 203.268L280.075 193.168Z" fill="#FFFEFF"/>
<path d="M269.374 204.068C253.474 204.468 250.674 191.968 249.474 178.968C248.474 167.868 249.074 148.368 249.374 138.468C249.474 136.768 249.474 135.368 249.474 134.368C249.774 127.268 248.774 125.968 245.974 124.868C241.674 123.268 240.474 118.268 240.474 118.268C228.074 106.868 237.874 100.568 237.874 100.568C237.874 100.568 226.974 101.668 225.374 98.5676C224.474 96.8676 230.974 95.1676 240.374 95.0676C249.774 94.9676 250.474 96.4676 255.574 103.768C260.774 111.568 265.174 119.768 268.874 128.368C269.674 130.368 270.474 132.268 271.174 134.168C275.274 145.268 285.874 176.368 286.774 183.968C287.674 191.568 285.274 203.668 269.374 204.068Z" fill="#0C4F3F"/>
<path d="M269.774 286.568C260.674 289.668 249.074 288.868 236.974 287.268C230.074 286.368 223.374 283.768 217.574 279.868C221.974 274.768 227.974 267.068 230.074 260.368C235.974 262.668 240.974 263.868 245.974 262.168C250.974 260.468 270.774 254.568 280.974 260.368C291.174 266.168 278.874 283.468 269.774 286.568Z" fill="#FFFEFF"/>
<path d="M230.375 259.468C230.275 259.768 230.175 260.068 230.075 260.468C227.975 267.068 221.975 274.868 217.575 279.868C214.775 283.168 212.575 285.268 212.575 285.268C212.575 285.268 196.575 282.568 170.375 275.968C144.175 269.368 128.075 263.568 112.975 253.668C97.8747 243.768 90.2747 233.368 89.0747 218.068C87.8747 202.768 101.775 194.268 111.575 191.468C119.175 189.268 139.975 204.968 162.975 218.068C173.975 224.368 182.675 233.168 195.275 241.568C207.875 249.968 230.375 259.468 230.375 259.468Z" fill="#FFFEFF"/>
<path d="M469.175 231.768C473.175 243.968 484.375 277.868 484.475 281.668C484.575 285.468 477.575 288.168 473.775 283.068C469.975 277.968 455.175 231.768 455.175 231.768H469.175Z" fill="#263238"/>
<path d="M398.575 245.068C401.975 254.768 406.675 266.468 406.475 268.168C406.275 269.868 400.175 274.168 397.175 270.568C394.575 267.468 387.175 241.368 387.175 241.368L398.575 245.068Z" fill="#263238"/>
<path d="M361.574 252.868C351.174 278.868 339.274 315.268 337.574 319.268C335.674 324.068 322.774 324.868 324.374 318.068C325.974 311.268 346.574 251.068 346.574 251.068L361.574 252.868Z" fill="#263238"/>
<path d="M282.575 243.167C279.175 251.767 262.675 294.567 260.675 299.567C258.675 304.567 246.775 302.867 247.575 298.967C248.175 296.067 268.675 243.667 269.575 241.967C270.475 240.267 282.575 243.167 282.575 243.167Z" fill="#263238"/>
<path d="M476.475 222.768C476.475 228.968 476.975 234.468 475.775 235.068C474.575 235.668 354.975 257.868 352.075 257.368C349.175 256.868 263.575 243.968 262.075 243.168C260.575 242.368 262.075 231.068 262.075 231.068L476.475 222.768Z" fill="#FFFEFF"/>
<path d="M435.075 215.368C468.375 217.668 476.075 218.468 478.575 219.368C481.075 220.268 483.375 225.068 481.975 225.268C480.575 225.468 356.275 247.068 352.075 246.868C347.875 246.668 259.275 234.168 257.375 233.568C255.475 232.968 257.375 223.568 257.375 223.568L369.375 221.668L435.075 215.368Z" fill="#FFFEFF"/>
<path d="M458.874 197.067C458.374 192.067 454.674 190.367 449.574 190.267C449.574 189.067 449.574 188.067 449.574 187.267C449.674 186.267 449.274 185.167 448.674 184.367C446.774 182.267 441.474 182.967 429.574 182.967L428.774 185.567C426.374 193.567 419.274 217.667 420.774 219.067C424.374 222.467 441.274 222.267 444.174 219.067C445.674 217.367 446.874 213.267 447.674 208.567C456.674 208.867 459.374 202.367 458.874 197.067ZM455.174 199.467C454.974 202.467 451.674 205.767 448.174 205.767C448.774 201.867 449.174 197.767 449.374 194.267C452.474 194.167 455.374 195.167 455.174 199.467Z" fill="#0C4F3F"/>
<path d="M295.375 222.068C284.275 223.068 282.575 226.568 283.675 227.368C284.775 228.168 344.175 235.968 346.475 235.768C348.775 235.568 425.975 224.868 426.675 223.568C427.375 222.268 440.575 141.668 439.775 140.668C438.975 139.668 361.275 143.068 360.075 144.968C358.875 146.868 349.075 215.468 349.075 215.468C347.775 214.968 346.475 214.668 345.175 214.468C344.075 214.468 295.375 222.068 295.375 222.068Z" fill="#263238"/>
<path d="M346.275 230.468C331.875 229.068 318.575 227.168 318.975 226.768C319.375 226.368 347.675 221.768 347.475 222.568C347.275 223.368 347.375 230.568 346.275 230.468Z" fill="#FFFEFF"/>
<path d="M297.075 227.067C290.375 223.267 281.375 224.167 276.475 226.967C271.575 229.767 268.375 232.667 250.175 228.567H249.975C231.675 224.467 206.975 216.267 192.875 209.667C178.775 203.067 170.075 196.167 158.175 174.067C146.275 151.967 141.975 132.967 143.275 112.167C144.575 91.3675 167.075 86.9675 180.475 86.1675C180.475 86.1675 176.875 118.567 186.875 138.167C196.875 157.767 214.875 176.567 229.875 187.867C239.275 195.067 253.175 202.367 262.275 206.767C267.575 209.367 271.175 210.967 271.175 210.967C290.975 197.867 292.575 198.567 301.675 205.067C311.275 211.967 315.375 218.967 316.575 222.867C317.775 226.767 303.875 230.767 297.075 227.067Z" fill="#0C4F3F"/>
<path d="M268.975 128.367C266.175 135.067 257.475 138.267 249.475 138.367C249.575 136.667 249.575 135.267 249.575 134.267C249.875 127.167 248.875 125.867 246.075 124.767C241.775 123.167 240.575 118.167 240.575 118.167C228.175 106.767 237.975 100.467 237.975 100.467C237.975 100.467 227.075 101.567 225.475 98.4675C224.575 96.7675 231.075 95.0675 240.475 94.9675C249.875 94.8675 250.575 96.3675 255.675 103.667C260.875 111.567 265.275 119.767 268.975 128.367Z" fill="#FFFEFF"/>
<path d="M297.075 227.068C290.375 223.268 281.375 224.168 276.475 226.968C271.575 229.768 268.375 232.668 250.175 228.568C251.475 217.968 256.075 210.168 262.175 206.668C267.475 209.268 271.075 210.868 271.075 210.868C290.875 197.768 292.475 198.468 301.575 204.968C311.175 211.868 315.275 218.868 316.475 222.768C317.675 226.668 303.875 230.768 297.075 227.068Z" fill="#FFFEFF"/>
<path d="M214.674 72.2677C215.448 72.2677 216.074 71.5066 216.074 70.5677C216.074 69.6288 215.448 68.8677 214.674 68.8677C213.901 68.8677 213.274 69.6288 213.274 70.5677C213.274 71.5066 213.901 72.2677 214.674 72.2677Z" fill="#263238"/>
<path d="M193.875 72.9679C194.648 72.9679 195.275 72.2068 195.275 71.2679C195.275 70.329 194.648 69.5679 193.875 69.5679C193.101 69.5679 192.475 70.329 192.475 71.2679C192.475 72.2068 193.101 72.9679 193.875 72.9679Z" fill="#263238"/>
<path d="M232.675 115.468C232.575 115.568 232.575 115.568 232.475 115.668C231.375 116.368 230.575 116.968 229.875 117.468C227.575 118.868 227.275 118.668 227.675 115.968C227.775 115.068 228.075 113.968 228.275 112.568C228.275 112.468 228.375 112.368 228.375 112.268C230.075 112.768 231.575 113.968 232.675 115.468Z" fill="#FFFEFF"/>
<path d="M229.875 117.368C227.575 118.768 227.275 118.568 227.675 115.868C228.375 116.168 229.175 116.768 229.875 117.368Z" fill="#263238"/>
<path d="M233.274 132.668C234.874 132.368 235.874 137.668 233.974 137.768C232.074 137.868 230.874 133.068 233.274 132.668Z" fill="#FFFEFF"/>
<path d="M244.575 185.368C246.175 185.068 247.175 190.368 245.275 190.468C243.375 190.568 242.175 185.868 244.575 185.368Z" fill="#FFFEFF"/>
<path d="M223.675 198.168C225.275 197.868 226.275 203.168 224.375 203.268C222.475 203.368 221.275 198.668 223.675 198.168Z" fill="#FFFEFF"/>
<path d="M245.675 155.668C247.275 155.368 248.275 160.668 246.375 160.768C244.475 160.868 243.275 156.168 245.675 155.668Z" fill="#FFFEFF"/>
<path d="M186.875 195.567C188.475 195.267 189.475 200.567 187.575 200.667C185.675 200.767 184.475 196.067 186.875 195.567Z" fill="#FFFEFF"/>
<path d="M255.075 170.668C256.675 170.368 257.675 175.668 255.775 175.768C253.875 175.868 252.675 171.068 255.075 170.668Z" fill="#FFFEFF"/>
<path d="M283.474 185.368C285.074 185.068 286.074 190.368 284.174 190.468C282.274 190.568 281.074 185.868 283.474 185.368Z" fill="#FFFEFF"/>
<path d="M269.274 117.567C270.874 117.267 271.874 122.567 269.974 122.667C268.074 122.767 266.874 118.067 269.274 117.567Z" fill="#FFFEFF"/>
<path d="M190.375 121.168C191.975 120.868 192.975 126.168 191.075 126.268C189.175 126.368 187.975 121.568 190.375 121.168Z" fill="#FFFEFF"/>
<path d="M166.075 99.1675C167.675 98.8675 168.675 104.168 166.775 104.268C164.875 104.368 163.675 99.5675 166.075 99.1675Z" fill="#FFFEFF"/>
<path d="M179.474 109.868C181.074 109.568 182.074 114.868 180.174 114.968C178.274 115.068 177.074 110.368 179.474 109.868Z" fill="#FFFEFF"/>
<path d="M212.075 132.667C213.775 132.667 213.775 138.067 211.875 137.867C209.975 137.667 209.575 132.667 212.075 132.667Z" fill="#FFFEFF"/>
<path d="M154.175 123.667C155.875 123.667 155.875 129.067 153.975 128.867C152.075 128.667 151.775 123.767 154.175 123.667Z" fill="#FFFEFF"/>
<path d="M162.575 168.868C164.275 168.868 164.275 174.268 162.375 174.068C160.475 173.868 160.175 168.868 162.575 168.868Z" fill="#FFFEFF"/>
<path d="M272.675 166.768C274.375 166.768 274.375 172.168 272.475 171.968C270.575 171.768 270.275 166.768 272.675 166.768Z" fill="#FFFEFF"/>
<path d="M269.675 193.568C271.375 193.568 271.375 198.968 269.475 198.768C267.575 198.568 267.275 193.668 269.675 193.568Z" fill="#FFFEFF"/>
<path d="M228.675 168.068C230.375 168.068 230.375 173.468 228.475 173.268C226.575 173.068 226.175 168.068 228.675 168.068Z" fill="#FFFEFF"/>
<path d="M213.575 209.568C215.275 209.568 215.275 214.968 213.375 214.768C211.475 214.568 211.175 209.568 213.575 209.568Z" fill="#FFFEFF"/>
<path d="M261.075 96.5679C262.775 96.5679 262.775 101.968 260.875 101.768C258.975 101.568 258.675 96.5679 261.075 96.5679Z" fill="#FFFEFF"/>
<path d="M206.075 156.068C207.775 156.068 207.775 161.468 205.875 161.268C203.975 161.068 203.675 156.068 206.075 156.068Z" fill="#FFFEFF"/>
<path d="M197.875 174.068C199.575 174.068 199.575 179.468 197.675 179.268C195.775 179.068 195.375 174.068 197.875 174.068Z" fill="#FFFEFF"/>
<path d="M165.675 187.968C167.375 187.968 167.375 193.368 165.475 193.168C163.575 192.968 163.275 187.968 165.675 187.968Z" fill="#FFFEFF"/>
<path d="M172.274 142.768C173.974 142.768 173.974 148.168 172.074 147.968C170.174 147.768 169.774 142.868 172.274 142.768Z" fill="#FFFEFF"/>
<path d="M149.474 182.768C151.174 182.768 151.174 188.168 149.274 187.968C147.374 187.768 146.974 182.868 149.474 182.768Z" fill="#FFFEFF"/>
<path d="M226.175 332.368C225.175 335.168 225.875 337.468 227.275 337.668C229.675 338.068 255.175 341.468 256.375 341.168C257.575 340.868 274.175 319.068 274.775 317.668C275.375 316.268 274.775 313.468 274.775 313.468C274.775 313.468 249.275 311.168 247.475 311.768C245.675 312.368 226.375 332.068 226.175 332.368Z" fill="#263238"/>
<path d="M233.974 330.467C240.774 331.867 252.574 333.967 253.574 333.467C254.574 332.967 266.174 317.267 266.274 316.567C266.374 315.867 250.174 314.867 249.074 315.067C247.974 315.267 233.274 330.367 233.974 330.467Z" fill="#FFFEFF"/>
<path d="M87.375 320.168C98.075 323.168 114.775 327.468 115.675 327.168C116.575 326.868 125.675 320.568 125.075 319.868C124.475 319.168 100.375 313.268 98.175 313.468C95.975 313.668 85.975 319.768 87.375 320.168Z" fill="#263238"/>
<path d="M224.275 18.8674C224.075 18.7674 223.875 18.7674 223.575 18.9674C223.275 19.1674 222.875 19.5674 222.075 20.2674C220.875 21.1674 219.575 21.8674 218.275 22.2674C216.875 22.7674 215.375 23.0674 213.875 23.2674C211.475 23.5674 210.975 23.7674 210.975 24.1674C210.975 24.5674 211.475 24.9674 213.975 24.8674C215.575 24.7674 217.275 24.4674 218.775 23.9674C220.375 23.4674 221.775 22.6674 223.075 21.4674C223.675 20.9674 224.075 20.2674 224.375 19.5674C224.475 19.1674 224.375 18.9674 224.275 18.8674Z" fill="#263238"/>
<path d="M250.074 228.468C250.074 228.568 250.074 228.668 250.174 228.768C250.574 229.168 252.374 229.968 257.974 230.968C260.074 231.368 262.274 231.568 264.474 231.568C265.874 231.568 267.274 231.568 268.674 231.368C270.174 231.168 271.674 230.668 272.974 230.068C274.274 229.468 275.574 228.768 276.874 228.068C277.974 227.468 279.174 226.968 280.374 226.568C282.374 225.968 284.474 225.668 286.474 225.568C287.974 225.468 289.574 225.568 291.074 225.768C292.274 225.868 293.174 226.068 293.774 226.268C295.074 226.568 295.474 226.468 295.574 226.268C295.674 226.068 295.474 225.668 294.174 225.068C293.274 224.668 292.374 224.368 291.374 224.168C289.774 223.768 288.074 223.568 286.474 223.568C284.174 223.568 281.974 223.868 279.774 224.468C278.374 224.868 277.074 225.368 275.774 226.068C274.574 226.768 273.374 227.468 272.174 228.068C269.774 229.068 267.174 229.568 264.674 229.468C262.574 229.468 260.574 229.368 258.474 229.068C252.974 228.368 250.974 228.068 250.374 228.368C250.174 228.368 250.074 228.368 250.074 228.468Z" fill="#263238"/>
<path d="M316.575 222.667C316.775 222.567 316.875 222.067 316.375 220.367C315.275 217.367 313.575 214.667 311.475 212.267C309.475 209.967 307.275 207.867 304.975 205.967C303.575 204.867 301.975 203.667 300.375 202.567C298.675 201.267 296.775 200.267 294.775 199.667C292.575 199.067 290.375 199.167 288.275 199.967L286.775 200.467L285.375 201.067C284.475 201.467 283.675 201.967 282.775 202.367C279.575 204.167 276.875 205.867 274.875 207.167C273.675 207.967 272.675 208.667 271.775 209.267L271.075 209.767L270.975 209.867C270.975 209.867 270.375 209.667 270.075 209.467C268.475 208.767 267.275 208.267 266.375 207.967C264.575 207.367 263.975 207.267 263.875 207.567C263.775 207.867 264.075 208.267 265.775 209.167C266.575 209.667 267.775 210.267 269.275 211.067L269.875 211.367L270.775 211.867C271.175 212.267 271.575 211.767 271.975 211.567L272.775 211.067L275.875 209.067C277.875 207.867 280.575 206.167 283.675 204.467C285.275 203.567 286.975 202.867 288.675 202.267C290.375 201.667 292.175 201.567 293.875 201.967C295.675 202.567 297.275 203.367 298.775 204.467C300.375 205.567 301.875 206.667 303.275 207.667C305.575 209.467 307.675 211.467 309.675 213.567C311.775 215.867 313.575 218.267 315.075 220.967C315.975 222.367 316.375 222.767 316.575 222.667Z" fill="#263238"/>
<path d="M282.575 169.968C283.075 169.868 282.975 168.568 281.475 162.868C279.975 157.468 275.875 143.768 273.875 138.168C273.175 136.068 272.275 133.968 271.275 131.968C270.675 130.868 270.375 130.668 270.075 130.768C269.775 130.868 269.675 131.268 269.975 132.368C270.275 133.468 270.875 135.468 271.875 138.668C273.575 144.268 277.775 157.868 279.575 163.168C281.375 169.068 282.075 170.168 282.575 169.968Z" fill="#FFFEFF"/>
<path d="M249.374 140.468C248.874 140.468 248.474 141.968 248.074 149.668C247.874 153.268 247.774 159.768 247.774 166.368C247.774 172.068 248.074 177.768 248.874 183.368C249.174 186.368 249.974 189.168 251.074 191.968C251.774 193.468 252.174 193.668 252.374 193.568C252.574 193.468 252.674 192.968 252.374 191.568C251.774 188.768 251.274 186.068 250.974 183.168C250.374 177.668 250.074 172.068 250.074 166.468C249.974 159.968 250.074 153.568 250.074 149.868C250.174 142.168 249.974 140.468 249.374 140.468Z" fill="#FFFEFF"/>
<path d="M255.574 198.768C255.374 198.968 255.374 199.268 255.874 200.068C256.974 201.468 258.274 202.568 259.874 203.368C261.374 204.068 262.974 204.568 264.674 204.868C266.774 205.168 268.974 205.268 271.074 205.168C273.274 205.068 275.374 204.568 277.374 203.768C278.974 203.168 280.474 202.268 281.874 201.168C282.874 200.368 283.674 199.368 284.374 198.268C284.774 197.668 285.074 196.968 285.374 196.268C285.674 195.268 285.574 194.868 285.374 194.768C285.174 194.668 284.774 194.768 284.274 195.568C283.974 195.968 283.574 196.468 282.974 197.168C281.274 199.168 279.174 200.668 276.674 201.668C274.874 202.368 272.974 202.768 270.974 202.868C269.074 203.068 267.074 202.968 265.074 202.768C263.574 202.568 262.174 202.168 260.774 201.668C259.374 201.068 257.974 200.268 256.674 199.368C256.174 198.668 255.774 198.668 255.574 198.768Z" fill="#263238"/>
<path d="M245.874 98.1675C245.874 97.9675 245.674 97.8675 245.174 97.7675C244.774 97.7675 244.374 97.6675 244.074 97.6675C243.574 97.6675 242.974 97.7675 242.174 97.8675L240.874 98.2675C240.374 98.4675 239.874 98.6675 239.374 98.8675C238.174 99.4675 237.174 100.267 236.274 101.167C234.674 102.967 233.774 105.267 233.774 107.667C233.774 108.867 234.074 110.067 234.674 111.167C235.074 111.667 235.274 111.767 235.474 111.667C235.674 111.567 235.774 111.367 235.674 110.767C235.474 109.767 235.374 108.767 235.374 107.667C235.474 105.667 236.174 103.767 237.474 102.267C238.174 101.467 239.074 100.767 240.074 100.267C240.574 100.067 240.974 99.7675 241.374 99.6675L242.474 99.2675L244.174 98.7675C244.574 98.6675 244.874 98.5675 245.274 98.4675C245.674 98.4675 245.874 98.3675 245.874 98.1675Z" fill="#263238"/>
<path d="M250.575 101.968C250.575 101.768 250.475 101.568 249.875 101.468C248.875 101.168 247.775 101.068 246.675 101.068H245.975L245.175 101.168C244.575 101.268 243.975 101.368 243.375 101.568L242.375 101.868C242.075 101.968 241.775 102.168 241.475 102.368C240.875 102.768 240.275 103.168 239.675 103.768C238.675 104.868 237.975 106.068 237.575 107.468C237.275 108.568 237.175 109.668 237.175 110.768C237.175 112.068 237.575 113.368 238.375 114.468C238.875 115.068 239.175 115.068 239.275 114.868C239.375 114.668 239.475 114.468 239.275 113.968C238.975 112.868 238.775 111.768 238.775 110.668C238.775 109.768 238.875 108.768 239.175 107.868C239.575 106.768 240.175 105.768 240.875 104.868C241.275 104.468 241.775 104.068 242.275 103.768C242.575 103.668 242.775 103.468 243.075 103.368L243.875 103.068C244.375 102.868 244.875 102.768 245.375 102.668L246.075 102.568C246.275 102.568 246.475 102.568 246.675 102.468C248.175 102.268 249.175 102.368 249.775 102.268C250.375 102.168 250.575 102.168 250.575 101.968Z" fill="#263238"/>
<path d="M252.175 105.968C252.175 105.768 252.075 105.568 251.475 105.468C250.375 105.168 249.275 105.168 248.275 105.468C247.275 105.668 246.275 106.168 245.375 106.668C244.175 107.468 243.275 108.468 242.575 109.668C241.875 110.868 241.475 112.168 241.275 113.568C241.175 114.668 241.375 115.868 241.775 116.868C242.175 117.668 242.775 118.368 243.475 118.768C243.875 119.068 244.375 119.168 244.975 119.168C245.675 119.168 245.875 118.968 245.875 118.768C245.875 118.568 245.675 118.368 245.175 118.168C244.275 117.768 243.575 117.068 243.275 116.168C242.975 115.368 242.875 114.468 242.975 113.668C243.075 112.568 243.375 111.468 243.975 110.468C244.575 109.468 245.275 108.668 246.175 107.968C246.875 107.468 247.675 107.068 248.575 106.768C249.475 106.468 250.475 106.268 251.375 106.168C251.975 106.368 252.075 106.168 252.175 105.968Z" fill="#263238"/>
<path d="M268.975 128.367C269.175 128.267 269.075 127.767 268.575 126.267C267.475 123.467 266.275 120.667 264.975 117.967C262.075 111.967 258.575 106.267 254.775 100.767C253.675 99.0675 252.275 97.5675 250.775 96.1675C249.175 94.9675 247.275 94.2675 245.275 94.1675C242.275 93.8675 239.275 93.9675 236.275 94.2675C232.775 94.5675 229.375 95.4675 226.075 96.9675C224.375 97.7675 224.075 98.5675 224.275 98.5675C224.475 98.5675 224.775 98.4675 226.475 97.8675C229.675 96.8675 233.075 96.1675 236.375 95.8675C239.275 95.5675 242.175 95.5675 245.075 95.7675C246.775 95.8675 248.375 96.3675 249.775 97.3675C251.175 98.5675 252.375 99.9675 253.375 101.467C257.175 106.867 260.575 112.467 263.675 118.267L267.875 126.367C268.475 128.067 268.775 128.467 268.975 128.367Z" fill="#263238"/>
<path d="M237.974 100.568C237.874 100.368 237.674 100.368 237.374 100.468C236.774 100.768 236.174 101.068 235.774 101.568C235.374 102.068 234.974 102.568 234.574 103.068C234.174 103.768 233.874 104.568 233.674 105.368C233.374 106.868 233.374 108.368 233.874 109.868C234.074 110.568 234.374 111.268 234.874 111.868C235.174 112.168 235.374 112.168 235.574 112.068C235.774 111.968 235.874 111.768 235.874 111.468C235.874 111.168 235.674 110.468 235.474 109.568C235.174 108.368 235.174 107.168 235.374 105.868C235.674 104.668 236.174 103.568 236.874 102.568C237.374 101.868 237.774 101.468 237.874 101.168C237.974 100.868 238.074 100.668 237.974 100.568Z" fill="#263238"/>
<path d="M240.574 118.268C240.374 118.268 240.274 118.568 240.374 119.168C240.574 120.368 241.074 121.468 241.774 122.468C242.474 123.468 243.274 124.268 244.274 124.868C244.574 125.068 244.974 125.268 245.274 125.368L245.774 125.568L246.274 125.768C246.874 125.968 247.374 126.368 247.774 126.768C248.474 127.768 248.774 129.068 248.774 130.268C248.874 131.568 248.874 132.668 248.874 133.568C248.874 137.568 249.074 138.368 249.474 138.368C249.874 138.368 250.174 137.668 250.474 133.668C250.574 132.568 250.574 131.368 250.474 130.268C250.474 129.568 250.374 128.768 250.174 128.068C249.974 127.268 249.674 126.468 249.174 125.768C248.574 125.068 247.874 124.568 247.074 124.268C246.474 124.068 245.874 123.768 245.274 123.468C244.374 122.968 243.674 122.368 243.074 121.568C242.374 120.668 241.774 119.768 241.274 118.868C240.974 118.368 240.774 118.268 240.574 118.268Z" fill="#263238"/>
<path d="M274.275 147.468C274.075 147.268 273.775 147.268 273.275 147.668C272.875 147.868 272.575 148.168 272.175 148.468C271.675 148.768 271.175 149.268 270.475 149.768C268.475 151.268 266.275 152.468 263.875 153.168C261.475 153.868 258.975 154.068 256.475 153.768C255.175 153.568 253.975 153.168 252.675 152.768C251.975 152.568 251.675 152.668 251.575 152.868C251.475 153.068 251.475 153.368 252.075 153.968C253.275 154.868 254.575 155.568 256.075 155.768C258.875 156.368 261.775 156.168 264.575 155.368C267.275 154.568 269.675 153.168 271.875 151.368C272.875 150.568 273.675 149.568 274.375 148.468C274.475 147.868 274.475 147.568 274.275 147.468Z" fill="#FFFEFF"/>
<path d="M244.775 200.168C244.675 199.968 244.475 199.768 243.775 199.968C243.275 200.068 242.875 200.168 242.375 200.468C241.675 200.768 240.975 201.168 240.375 201.668C238.175 203.368 236.375 205.468 234.975 207.968C233.575 210.368 232.575 212.968 231.975 215.768C231.675 217.168 231.475 218.568 231.575 219.968C231.675 220.768 231.875 220.968 232.075 220.968C232.275 220.968 232.575 220.868 232.875 220.168C233.175 219.468 233.375 218.268 233.975 216.268C234.675 213.768 235.575 211.368 236.875 209.068C238.075 206.868 239.675 204.868 241.475 203.268C242.175 202.768 242.675 202.268 243.175 201.968C243.675 201.668 243.975 201.368 244.175 201.168C244.775 200.668 244.875 200.368 244.775 200.168Z" fill="#FFFEFF"/>
<path d="M314.574 223.167C314.874 222.967 314.674 222.068 311.974 218.768C309.974 216.468 307.774 214.268 305.474 212.268C303.174 210.168 300.674 208.267 298.074 206.667C296.674 205.767 295.274 205.068 293.674 204.568C292.774 204.368 292.574 204.467 292.474 204.667C292.374 204.867 292.574 205.068 293.274 205.468C293.974 205.868 295.174 206.568 297.174 207.868C299.674 209.568 302.074 211.468 304.274 213.468C306.874 215.768 309.374 218.267 310.774 219.667C313.574 222.767 314.274 223.367 314.574 223.167Z" fill="#263238"/>
<path d="M308.575 223.568C308.875 223.268 308.475 222.568 305.675 219.568C303.675 217.368 301.475 215.467 299.075 213.767C296.575 212.067 293.875 210.667 290.875 209.867C289.975 209.567 288.975 209.367 287.975 209.267C287.375 209.167 286.775 209.167 286.275 209.167C285.475 209.167 285.175 209.368 285.175 209.568C285.175 209.768 285.375 209.967 286.075 210.167C286.775 210.367 288.175 210.667 290.375 211.367C293.075 212.267 295.675 213.467 297.975 215.167C300.275 216.767 302.475 218.667 304.475 220.667C307.475 223.367 308.275 223.868 308.575 223.568Z" fill="#263238"/>
<path d="M302.974 224.868C303.074 224.768 303.074 224.468 302.674 223.968C301.874 223.068 300.974 222.268 299.874 221.568C297.574 220.168 295.174 219.068 292.774 218.168C290.274 217.268 287.774 216.468 285.174 215.768C281.074 214.768 280.174 214.968 280.074 215.368C279.974 215.768 280.674 216.168 284.674 217.268C286.374 217.768 289.274 218.668 292.074 219.668C294.474 220.568 296.774 221.568 299.074 222.768C302.174 224.568 302.674 225.168 302.974 224.868Z" fill="#263238"/>
<path d="M227.075 70.6678C226.875 70.6678 226.975 71.2678 226.875 73.1678C226.775 74.4678 226.575 75.7678 226.275 77.0678C225.775 79.1678 224.975 81.2678 223.875 83.1678C222.375 86.2678 220.575 89.1678 218.375 91.7678C217.075 93.3678 215.475 94.7678 213.675 95.7678C212.775 96.2678 211.675 96.6678 210.675 96.9678C209.575 97.1678 208.475 97.2678 207.475 97.2678C205.275 97.1678 203.075 96.6678 200.975 95.9678C198.975 95.1678 197.175 94.0678 195.675 92.5678C194.875 91.8678 194.175 91.1678 193.575 90.4678C192.975 89.7678 192.175 89.0678 191.575 88.4678C190.475 87.3678 189.475 86.1678 188.675 84.8678C187.275 82.7678 185.975 80.4678 184.875 78.0678C183.975 76.2678 183.475 74.8678 182.975 73.8678C182.175 71.7678 181.875 71.2678 181.675 71.2678C181.475 71.2678 181.475 71.9678 181.975 74.0678C182.375 75.5678 182.875 77.0678 183.475 78.4678C184.475 80.8678 185.675 83.2678 187.075 85.4678C187.975 86.8678 188.975 88.1678 190.075 89.3678L192.075 91.3678C192.775 92.0678 193.475 92.8678 194.275 93.5678C195.875 95.1678 197.875 96.4678 200.075 97.3678C202.275 98.2678 204.675 98.7678 207.075 98.8678C209.575 99.0678 212.075 98.4678 214.175 97.2678C216.175 96.1678 217.975 94.6678 219.375 92.8678C221.575 90.0678 223.475 87.0678 224.975 83.8678C226.075 81.7678 226.875 79.5678 227.375 77.2678C227.675 75.8678 227.775 74.4678 227.675 72.9678C227.675 71.1678 227.275 70.5678 227.075 70.6678Z" fill="#263238"/>
<path d="M204.474 83.9679C204.574 83.7679 204.474 83.6679 204.274 83.3679C203.874 82.9679 203.574 82.4679 203.474 81.8679C203.274 80.3679 203.174 78.8679 203.174 77.3679C203.174 75.5679 203.174 73.6679 202.974 72.4679C202.874 71.8679 202.674 71.2679 202.374 70.7679C202.174 70.3679 201.774 70.0679 201.274 70.0679C200.774 70.0679 200.674 70.1679 200.574 70.3679C200.474 70.5679 200.574 70.7679 200.974 70.9679C201.074 71.0679 201.174 71.2679 201.274 71.3679C201.374 71.7679 201.474 72.1679 201.474 72.5679C201.574 73.5679 201.474 75.4679 201.574 77.2679C201.574 78.8679 201.674 80.5679 202.074 82.1679C202.274 82.6679 202.574 83.1679 202.974 83.5679C203.174 83.7679 203.474 83.9679 203.774 84.0679C204.174 84.1679 204.374 84.0679 204.474 83.9679Z" fill="#263238"/>
<path d="M213.374 84.8678C212.974 84.7678 212.774 84.8678 212.374 85.5678C212.074 85.9678 211.774 86.3678 211.374 86.7678C210.974 87.0678 210.574 87.3678 210.074 87.5678C209.274 87.8678 209.074 88.0678 209.074 88.5678C209.074 88.7678 209.174 88.9678 209.374 89.0678C209.774 89.1678 210.174 89.2678 210.474 89.1678C211.174 88.9678 211.874 88.6678 212.474 88.1678C213.074 87.6678 213.474 87.0678 213.674 86.3678C213.974 85.2678 213.674 84.9678 213.374 84.8678Z" fill="#263238"/>
<path d="M218.675 62.9677C218.875 62.6677 218.575 62.1677 217.075 61.7677C215.975 61.5677 214.875 61.3677 213.775 61.3677C212.575 61.3677 211.475 61.4677 210.375 61.7677C209.775 61.8677 209.175 62.1677 208.775 62.6677C208.575 62.9677 208.575 63.0677 208.675 63.2677C208.875 63.6677 209.175 63.6677 210.775 63.2677C211.775 63.0677 212.775 62.9677 213.875 62.9677C215.075 62.9677 216.275 63.0677 216.975 63.0677C218.275 63.3677 218.475 63.3677 218.675 62.9677Z" fill="#263238"/>
<path d="M191.274 89.4679C191.274 89.3679 191.274 89.3679 191.274 89.2679L191.174 88.7679L191.074 89.4679C191.074 90.1679 191.274 90.8679 191.574 91.4679C192.374 93.4679 193.474 95.2679 194.874 96.8679C196.274 98.5679 197.974 100.068 199.874 101.268C201.074 102.068 202.474 102.568 203.874 102.968C205.374 103.268 206.874 103.468 208.374 103.368C211.374 103.168 214.174 102.268 216.774 100.668C218.774 99.4679 220.474 97.8679 221.974 96.0679C222.974 94.6679 223.674 92.9679 223.874 91.2679C223.974 90.2679 223.974 89.2679 223.774 88.2679C223.474 86.8679 223.174 86.5679 222.974 86.5679C222.774 86.5679 222.674 86.9679 222.674 88.3679C222.674 89.2679 222.574 90.1679 222.474 91.0679C222.174 92.5679 221.574 93.9679 220.674 95.1679C219.274 96.7679 217.674 98.1679 215.874 99.2679C213.574 100.668 210.974 101.568 208.374 101.768C207.074 101.868 205.674 101.768 204.374 101.468C203.174 101.168 201.974 100.668 200.874 100.068C199.074 99.0679 197.474 97.6679 196.074 96.1679C194.674 94.6679 193.574 92.9679 192.474 91.1679C191.874 89.9679 191.574 89.4679 191.274 89.4679L191.074 89.5679C191.174 89.5679 191.274 89.4679 191.274 89.4679Z" fill="#263238"/>
<path d="M214.674 255.568C214.274 255.468 214.074 256.268 212.774 259.768C211.874 262.268 210.674 264.768 209.374 267.068C207.974 269.468 206.474 271.668 204.774 273.868L203.074 275.868C202.674 276.268 202.374 276.668 202.074 277.068C201.574 277.668 201.574 277.968 201.774 278.068C201.974 278.168 202.174 278.168 202.774 277.768C203.174 277.468 203.674 277.168 204.074 276.768C204.574 276.268 205.174 275.668 205.974 274.768C207.874 272.668 209.474 270.268 210.874 267.868C212.274 265.468 213.374 262.868 214.174 260.168C215.374 256.568 215.074 255.668 214.674 255.568Z" fill="#263238"/>
<path d="M238.975 231.168C238.675 231.068 238.575 231.068 237.675 231.468C236.775 231.868 235.475 232.568 232.975 233.668C230.475 234.768 226.575 236.468 222.375 238.068C218.175 239.668 213.875 241.068 211.275 241.868C205.275 243.668 204.175 243.968 204.275 244.568C204.375 245.168 205.575 245.368 211.775 243.868C215.575 242.868 219.375 241.668 223.075 240.168C226.775 238.768 230.275 237.268 233.775 235.468C235.475 234.668 236.975 233.668 238.375 232.468C239.175 231.868 239.175 231.268 238.975 231.168Z" fill="#263238"/>
<path d="M120.575 258.367C120.475 258.567 120.675 258.967 121.975 259.767C124.275 261.267 126.675 262.567 129.075 263.667C134.475 266.167 140.075 268.367 145.775 270.167C152.475 272.367 159.275 274.167 163.275 275.167C172.675 277.467 174.575 277.467 174.675 276.967C174.775 276.467 173.175 275.767 163.875 273.167C159.975 272.067 153.175 270.167 146.575 268.067C139.975 265.967 133.575 263.467 129.975 261.867C126.175 260.267 123.875 259.167 122.475 258.567C121.075 257.967 120.675 258.167 120.575 258.367Z" fill="#263238"/>
<path d="M217.574 279.868C217.774 280.068 218.574 279.468 220.774 277.068C222.274 275.368 223.774 273.568 225.074 271.668C225.974 270.468 226.874 269.068 227.874 267.368C228.974 265.568 229.974 263.568 230.674 261.568L230.974 260.868C230.974 260.768 231.074 260.468 231.174 260.068L231.574 258.768L229.174 257.768L227.474 256.968L223.674 255.268C221.074 254.068 218.174 252.768 215.074 251.268C208.474 248.168 202.074 244.668 195.874 240.668C189.574 236.468 183.674 231.668 178.274 227.468C173.674 223.768 168.874 220.468 163.874 217.468C145.274 206.368 141.574 204.568 141.274 205.068C140.974 205.568 144.174 207.868 162.574 219.168C167.474 222.168 172.274 225.468 176.674 229.168C182.074 233.368 188.074 238.268 194.474 242.568C200.774 246.568 207.274 250.168 213.974 253.268C217.074 254.768 219.974 256.068 222.674 257.268L226.474 258.968L228.174 259.668L228.774 259.968H228.874V260.068L228.774 260.468C228.074 262.468 227.274 264.268 226.274 266.068C225.374 267.668 224.474 269.168 223.674 270.368C222.074 272.868 220.674 274.668 219.774 275.968C217.874 278.868 217.374 279.768 217.574 279.868Z" fill="#263238"/>
<path d="M283.874 263.268C284.074 263.168 284.174 262.668 283.274 261.368C282.674 260.568 281.874 259.868 280.874 259.368C280.274 258.968 279.574 258.668 278.874 258.368L277.674 257.968L276.974 257.768L276.274 257.568C273.774 256.968 271.274 256.768 268.774 256.768C265.574 256.768 262.274 257.068 259.074 257.668C255.874 258.268 252.674 258.968 249.574 259.868C248.074 260.268 246.774 260.768 245.574 261.168C244.574 261.468 243.574 261.768 242.474 261.868C240.774 262.068 238.974 261.968 237.274 261.668C235.874 261.468 234.874 261.168 234.074 261.068C232.574 260.768 232.074 260.768 231.974 261.068C231.874 261.368 232.174 261.668 233.674 262.368C234.674 262.768 235.774 263.168 236.874 263.468C238.774 263.968 240.674 264.168 242.574 263.968C243.774 263.868 244.974 263.668 246.074 263.268C247.274 262.868 248.574 262.468 249.974 262.068C252.774 261.268 255.974 260.568 259.174 259.968C262.274 259.368 265.374 259.068 268.474 258.968C269.174 258.968 269.874 258.968 270.574 258.968C271.174 258.968 271.874 258.968 272.474 259.068L274.174 259.268L275.574 259.568C277.074 259.868 278.474 260.368 279.874 260.968C280.674 261.268 281.474 261.768 282.174 262.368C283.274 263.068 283.574 263.468 283.874 263.268Z" fill="#263238"/>
<path d="M433.774 186.068C433.774 186.468 434.074 186.668 436.074 186.868C437.474 186.968 438.874 186.968 440.274 186.968C441.674 186.968 443.074 186.768 444.474 186.568C446.674 186.068 447.074 185.568 446.974 185.268C446.874 184.968 446.474 184.768 444.274 184.968C443.374 185.068 441.774 185.168 440.174 185.268L436.174 185.368C434.174 185.468 433.774 185.668 433.774 186.068Z" fill="#FFFEFF"/>
<path d="M352.075 246.767C352.075 246.267 349.275 245.668 335.075 243.568C321.675 241.568 287.375 236.767 273.175 234.867L257.475 232.767C257.375 232.767 257.375 232.668 257.375 232.568C257.275 232.468 257.275 232.367 257.275 232.267C257.175 232.067 257.175 231.768 257.075 231.568L256.875 230.467C256.775 229.967 256.675 229.667 256.475 229.667C256.275 229.667 256.175 229.867 256.075 230.367C255.975 230.767 255.975 231.167 255.975 231.467C255.975 231.767 255.975 232.067 255.975 232.367C255.975 232.567 256.075 232.767 256.075 232.867C256.175 233.167 256.275 233.368 256.475 233.568C256.675 233.768 256.875 233.968 257.175 234.068L257.775 234.167L259.175 234.467C260.175 234.667 261.375 234.868 262.575 235.068C265.175 235.568 268.475 236.067 272.575 236.667C286.575 238.867 320.875 243.667 334.375 245.267C348.875 247.367 352.075 247.267 352.075 246.767Z" fill="#263238"/>
<path d="M261.774 234.268C261.674 234.268 261.474 234.768 261.274 236.168C261.174 236.868 261.074 237.768 260.974 238.968C260.974 239.568 260.874 240.268 260.974 240.968C260.974 241.368 260.974 241.768 261.074 242.168C261.074 242.468 261.174 242.668 261.274 242.968C261.374 243.068 261.474 243.268 261.574 243.368C261.674 243.468 261.774 243.568 261.974 243.668C262.474 243.768 262.874 243.968 263.374 244.068L264.674 244.368L267.474 244.868C269.474 245.268 271.774 245.668 274.274 246.068C279.374 246.968 285.674 247.968 293.374 249.268L324.774 254.168L344.574 257.168L349.774 257.968L351.074 258.168L351.674 258.268C351.874 258.368 352.174 258.368 352.374 258.368C352.874 258.368 353.374 258.368 353.874 258.268C354.374 258.268 354.774 258.168 355.174 258.068C358.674 257.568 362.274 256.968 365.774 256.368C393.974 251.568 422.274 246.268 438.774 243.068C448.474 241.268 456.174 239.768 462.274 238.468L470.274 236.868L473.474 236.168L474.874 235.868L475.174 235.768C475.274 235.768 475.474 235.668 475.574 235.668C475.774 235.668 475.874 235.568 476.074 235.468C476.174 235.368 476.374 235.268 476.474 235.068C476.674 234.868 476.774 234.568 476.874 234.268C476.974 234.068 476.974 233.868 476.974 233.568C476.974 233.168 477.074 232.768 477.074 232.368C477.074 231.668 477.074 230.968 477.074 230.468C477.074 229.368 476.974 228.468 476.874 227.768C476.774 226.468 476.574 225.968 476.474 225.968C476.374 225.968 476.174 226.468 476.174 227.668L476.074 230.268C476.074 230.768 475.974 231.468 475.974 232.068C475.974 232.368 475.874 232.768 475.874 233.068C475.874 233.268 475.774 233.368 475.774 233.568L475.674 233.768C475.674 233.768 475.674 233.868 475.574 233.868C475.574 233.968 475.474 233.968 475.374 233.968L474.874 234.068L473.474 234.368L470.274 234.968L462.274 236.368L438.874 240.568C422.374 243.568 394.174 248.768 366.074 253.668C362.574 254.268 359.074 254.868 355.574 255.368C354.674 255.468 353.874 255.668 352.974 255.768H352.674H352.474C352.374 255.768 352.374 255.768 352.274 255.768H351.974L350.674 255.568L345.474 254.768L325.674 251.768L294.274 246.968L274.674 243.968L267.674 242.868L264.774 242.368L263.474 242.168C263.174 242.068 262.774 242.068 262.474 241.968C262.174 241.868 262.074 240.968 261.974 240.268C261.874 239.568 261.874 238.868 261.874 238.268V235.468C261.974 234.768 261.974 234.268 261.774 234.268Z" fill="#263238"/>
<path d="M352.074 257.368C352.074 257.968 356.174 257.868 375.274 254.668C393.374 251.668 439.474 243.268 458.374 239.568C463.874 238.468 468.374 237.568 471.874 236.868L474.374 236.368L475.474 236.068C475.774 235.968 475.974 235.868 476.274 235.768C476.474 235.568 476.674 235.368 476.774 235.068C476.974 234.668 477.074 234.268 477.074 233.868C477.074 233.568 477.174 233.168 477.174 232.868C477.174 232.268 477.174 231.768 477.174 231.268C476.974 227.368 476.674 226.268 476.474 226.268C476.274 226.268 475.974 227.368 475.874 231.168C475.874 231.668 475.774 232.168 475.774 232.668C475.774 233.168 475.674 233.768 475.474 234.268C475.474 234.368 475.374 234.468 475.174 234.468L474.174 234.668L471.774 235.068L458.374 237.468L375.474 252.668C365.774 254.468 359.974 255.568 356.574 256.268C354.874 256.668 353.774 256.868 353.074 257.068C352.374 257.268 352.174 257.268 352.074 257.368Z" fill="#263238"/>
<path d="M6.17444 266.567C6.07444 266.667 6.17444 266.967 6.87444 267.567C8.27444 268.567 9.77445 269.267 11.2745 269.867C14.7745 271.067 18.3744 271.867 21.9744 272.067C23.0744 272.167 24.1744 272.167 25.1744 272.167C26.1744 272.167 27.1744 272.167 28.2745 272.067C29.9745 271.867 31.5744 271.567 33.1744 270.967C35.0744 270.367 36.6744 269.367 37.9744 267.867C38.6744 266.967 38.6745 266.567 38.5745 266.467H38.4744C38.2744 266.367 37.9745 266.567 37.2745 267.167C35.9745 268.267 34.3745 269.067 32.7745 269.567C31.2745 270.067 29.7745 270.367 28.2745 270.467C27.2745 270.567 26.3744 270.567 25.3744 270.567C24.3744 270.567 23.3745 270.567 22.2745 270.467C18.7745 270.267 15.2744 269.567 11.8744 268.567C10.3744 268.067 8.77444 267.567 7.37444 266.867C6.57444 266.467 6.27444 266.467 6.17444 266.567Z" fill="#263238"/>
<path d="M38.5748 311.468C38.4748 311.468 38.4748 311.468 38.4748 311.568C38.3748 311.668 38.2748 311.768 38.1748 311.868C37.7748 312.368 37.2748 312.768 36.7748 313.068C35.1748 313.968 31.8748 314.868 26.3748 315.068C22.8748 315.168 19.3748 314.968 15.9748 314.468C14.9748 314.268 13.8748 314.168 12.8748 313.868C11.8748 313.668 10.7748 313.368 9.87479 312.868C9.67479 312.768 9.5748 312.668 9.4748 312.568C9.4748 312.568 9.47479 312.468 9.37479 312.468L9.2748 312.068C9.0748 311.568 8.9748 310.968 8.9748 310.468C8.8748 309.268 8.6748 308.168 8.5748 306.968C7.7748 297.468 7.2748 287.968 7.0748 282.368C6.7748 275.768 6.6748 271.868 6.5748 269.668C6.4748 267.468 6.4748 266.868 6.2748 266.768C6.0748 266.668 5.7748 267.368 5.5748 269.568C5.3748 271.768 5.3748 275.668 5.5748 282.268C5.7748 287.868 6.1748 297.368 6.9748 306.868C7.0748 308.068 7.17479 309.268 7.37479 310.468C7.47479 311.068 7.5748 311.668 7.6748 312.268L7.9748 313.268C8.0748 313.468 8.27479 313.668 8.37479 313.868C8.47479 313.968 8.67479 314.168 8.87479 314.268C9.97479 314.868 11.0748 315.368 12.2748 315.568C13.3748 315.868 14.4748 316.068 15.5748 316.168C19.0748 316.668 22.6748 316.868 26.2748 316.668C32.0748 316.368 35.5748 315.368 37.3748 314.068C37.7748 313.768 38.0748 313.468 38.3748 313.068C38.5748 312.868 38.6748 312.568 38.7748 312.268C38.7748 312.068 38.8748 311.968 38.8748 311.768C38.5748 311.568 38.5748 311.468 38.5748 311.468Z" fill="#263238"/>
<path d="M8.57459 312.768C8.57459 312.568 8.37458 312.468 7.67458 312.568C7.17458 312.668 6.67458 313.068 6.47458 313.568C6.27458 313.968 6.17458 314.368 6.27458 314.768C6.37458 315.268 6.57457 315.768 6.87457 316.168C9.57457 318.968 17.4746 319.968 20.7746 319.968C24.5746 319.968 25.2746 319.568 25.2746 319.268C25.2746 318.968 24.5746 318.668 20.8746 318.468C18.5746 318.268 16.2746 317.968 14.0746 317.468C12.8746 317.268 11.5746 316.868 10.4746 316.468C9.57458 316.168 8.77459 315.768 8.07459 315.268C7.97459 315.168 7.87457 315.068 7.87457 314.968C7.77457 314.868 7.77458 314.768 7.77458 314.668C7.77458 314.468 7.77458 314.368 7.77458 314.168C7.87458 313.868 7.97458 313.668 8.17458 313.568C8.47458 313.068 8.57459 312.968 8.57459 312.768Z" fill="#263238"/>
<path d="M24.3749 264.968C23.9749 264.868 23.7749 265.068 23.4749 265.968C23.0749 267.268 22.8749 268.568 22.6749 269.968C22.5749 271.068 22.7749 271.268 23.1749 271.368C23.5749 271.468 23.8749 271.268 24.1749 270.268C24.5749 268.968 24.7749 267.668 24.8749 266.268C24.9749 265.268 24.7749 265.068 24.3749 264.968Z" fill="#263238"/>
<path d="M30.2742 270.868C30.6742 270.868 30.8742 270.868 31.1742 270.168C31.3742 269.268 31.5742 268.268 31.5742 267.268C31.5742 266.468 31.2742 266.268 30.8742 266.268C30.4742 266.268 30.1742 266.268 29.9742 267.068C29.7742 267.968 29.6742 268.968 29.5742 269.968C29.5742 270.668 29.8742 270.868 30.2742 270.868Z" fill="#263238"/>
<path d="M33.275 236.967C32.875 236.867 32.475 237.667 31.675 241.567C30.875 245.267 28.975 254.767 28.275 258.767C27.475 263.367 27.575 264.367 27.975 264.367C28.375 264.367 28.775 263.667 29.775 259.067C30.675 255.167 32.475 245.667 33.075 241.867C33.775 237.967 33.675 237.067 33.275 236.967Z" fill="#263238"/>
<path d="M22.4746 239.068C22.8746 239.068 22.8746 236.868 21.7746 226.468L20.9746 219.768C20.8746 219.468 20.6746 219.168 20.4746 219.068C20.3746 218.968 20.1746 218.868 20.0746 218.868C19.9746 218.768 19.8746 218.768 19.7746 218.768C19.3746 218.668 19.0746 218.568 18.6746 218.568C17.8746 218.468 17.1746 218.368 16.3746 218.368C14.6746 218.268 12.9746 218.368 11.2746 218.568L10.5746 218.668C10.2746 218.768 9.87462 218.868 9.57462 218.968C9.27462 219.268 9.07462 219.668 9.07462 220.068C9.07462 220.368 9.07461 220.568 8.97461 220.868C8.97461 221.768 8.97462 222.768 9.07462 223.668C9.17462 225.468 9.37461 227.368 9.47461 229.168C10.1746 236.468 11.0746 243.568 11.5746 247.968C13.1746 260.068 13.7746 262.368 14.1746 262.268C14.5746 262.168 14.5746 259.968 13.1746 247.968C12.6746 243.568 11.8746 236.468 11.1746 229.068C10.9746 227.268 10.8746 225.368 10.7746 223.568C10.7746 222.668 10.6746 221.768 10.6746 220.968C10.6746 220.768 10.6746 220.568 10.6746 220.368C10.4746 220.368 11.0746 220.268 11.4746 220.168C13.0746 219.968 14.6746 219.868 16.2746 219.868C16.9746 219.868 17.6746 219.968 18.3746 220.068C18.6746 220.068 18.9746 220.168 19.2746 220.268H19.4746L20.2746 226.468C21.5746 236.868 22.1746 239.068 22.4746 239.068Z" fill="#263238"/>
<path d="M5.275 260.168C5.675 260.068 5.67499 259.468 4.97499 256.868C4.57499 255.668 3.87499 253.568 3.17499 251.468L2.075 248.368C1.975 248.068 1.875 247.668 1.775 247.368C1.875 247.268 1.975 247.268 2.075 247.268C2.675 246.968 3.27499 246.768 3.67499 246.568C3.97499 246.468 4.37499 246.268 4.67499 246.068C5.17499 245.768 5.27499 245.568 5.17499 245.368C5.07499 245.168 4.97499 245.068 4.37499 245.068C3.97499 245.068 3.675 245.168 3.275 245.168C2.675 245.268 1.97499 245.468 1.37499 245.668L1.075 245.768C0.575 245.968 0.275 246.368 0.075 246.868C-0.025 247.168 -0.025 247.568 0.075 247.968C0.175 248.268 0.174997 248.468 0.274997 248.768C0.574997 249.768 0.974997 250.768 1.275 251.868C1.975 253.968 2.775 256.068 3.275 257.268C4.475 259.868 4.875 260.368 5.275 260.168Z" fill="#263238"/>
<path d="M127.974 293.668C127.974 293.468 126.474 293.768 121.474 295.168C116.474 296.568 108.074 298.968 94.0744 303.368C91.0744 304.268 87.5744 305.368 83.6744 306.668L80.6744 307.668L79.0744 308.168L77.1744 308.868C76.9744 308.968 76.6744 309.068 76.4744 309.168L75.9744 309.468L75.4744 309.768C75.3744 309.768 75.2744 309.868 75.2744 309.968V310.068C75.2744 310.168 75.2744 310.268 75.2744 310.468C75.2744 310.568 75.3744 310.668 75.3744 310.768C75.6744 311.068 75.9744 311.268 76.3744 311.368C76.8744 311.568 77.4744 311.668 77.9744 311.768L78.9744 311.968L80.7744 312.368C90.2744 314.368 101.174 316.768 112.374 319.468H112.474H112.574H112.374L131.474 324.268C134.674 325.068 137.774 325.868 141.074 326.468C141.974 326.668 142.874 326.668 143.774 326.668C144.174 326.568 144.674 326.368 145.074 326.268L146.174 325.868L150.574 324.268C162.174 320.068 172.674 316.168 180.074 313.268C196.074 307.268 205.474 303.468 210.874 301.168C216.274 298.868 217.774 297.968 217.574 297.768C217.574 297.768 217.174 297.868 216.174 298.168C215.174 298.468 213.374 299.168 210.674 300.168L179.974 311.568C172.474 314.368 161.974 318.268 150.174 322.568L145.674 324.168C144.874 324.468 144.174 324.668 143.474 324.868C142.774 324.968 142.074 324.868 141.374 324.768C138.274 324.168 135.074 323.368 131.874 322.568L112.674 317.768H112.574H112.474H112.674C101.474 315.068 90.7744 312.768 81.3744 310.768L78.4744 310.168H78.3744C78.3744 310.168 78.3744 310.168 78.4744 310.168L79.2744 309.868L80.7744 309.368L83.6744 308.368L93.8744 304.868C107.974 300.368 116.574 297.668 121.574 295.968C126.574 294.268 127.974 293.768 127.974 293.668Z" fill="#263238"/>
<path d="M141.975 318.068C142.075 317.668 141.175 317.168 136.075 315.468C131.275 313.868 118.875 310.268 113.675 309.068C107.575 307.568 106.375 307.668 106.275 308.068C106.175 308.468 107.275 308.968 113.175 310.568C118.275 311.968 130.675 315.468 135.575 316.868C140.675 318.268 141.875 318.368 141.975 318.068Z" fill="#263238"/>
<path d="M147.175 313.468C147.275 313.068 146.775 312.668 143.875 311.768C141.175 310.868 134.075 308.968 131.075 308.268C127.575 307.468 126.875 307.468 126.775 307.868C126.675 308.268 127.175 308.668 130.575 309.768C133.475 310.668 140.475 312.568 143.375 313.168C146.375 313.968 147.075 313.868 147.175 313.468Z" fill="#263238"/>
<path d="M154.374 311.267C154.474 310.867 154.174 310.567 152.174 309.867C150.174 309.167 145.374 307.867 143.374 307.367C140.974 306.767 140.474 306.967 140.374 307.367C140.274 307.767 140.674 308.167 142.974 308.867C144.974 309.567 149.774 310.867 151.774 311.267C153.774 311.667 154.274 311.567 154.374 311.267Z" fill="#263238"/>
<path d="M162.875 309.768C162.975 309.368 162.275 308.968 158.375 307.668C154.675 306.468 145.175 303.768 141.175 302.768C136.475 301.668 135.575 301.668 135.475 302.068C135.375 302.468 136.175 302.968 140.675 304.268C144.575 305.368 154.075 308.068 157.775 309.068C161.875 310.068 162.775 310.068 162.875 309.768Z" fill="#263238"/>
<path d="M169.675 307.268C169.775 306.868 169.175 306.468 165.875 305.368C162.775 304.368 154.875 301.968 151.575 301.068C147.675 300.068 146.875 300.068 146.775 300.468C146.675 300.868 147.275 301.368 151.075 302.568C154.275 303.568 162.275 305.968 165.375 306.768C168.775 307.668 169.575 307.568 169.675 307.268Z" fill="#263238"/>
<path d="M186.875 137.968C186.675 138.068 186.775 138.668 187.575 140.568C188.175 141.868 188.775 143.168 189.475 144.468C189.875 145.268 190.475 146.268 191.075 147.268C191.675 148.268 192.375 149.468 193.175 150.668C194.675 152.968 196.875 156.168 199.675 159.668C202.475 163.168 205.575 166.868 208.975 170.468C214.875 176.768 221.175 182.568 227.975 187.768C230.175 189.468 232.475 191.068 234.875 192.568C236.775 193.668 238.175 194.468 239.175 195.068C241.275 196.168 241.975 196.268 242.075 196.068C242.175 195.868 241.775 195.368 239.875 193.968L235.875 191.168C234.175 189.968 231.975 188.368 229.375 186.268C222.775 180.968 216.575 175.268 210.775 169.168C207.375 165.668 204.275 161.968 201.475 158.568C198.675 155.168 196.475 152.168 194.975 149.868C191.575 145.068 189.775 142.068 188.675 140.268C187.575 138.468 187.175 137.868 186.875 137.968Z" fill="#FFFEFF"/>
<path d="M197.775 63.3676C197.975 63.0676 197.775 62.5676 196.175 62.1676C195.075 61.8676 193.975 61.7676 192.875 61.8676C191.775 61.8676 190.575 62.0676 189.475 62.3676C187.675 62.9676 187.575 63.4676 187.675 63.8676C187.775 64.2676 188.175 64.2676 189.775 63.9676C190.775 63.7676 191.775 63.6676 192.775 63.6676C193.775 63.6676 194.775 63.6676 195.775 63.7676C197.375 63.7676 197.675 63.6676 197.775 63.3676Z" fill="#263238"/>
<path d="M176.775 199.468C176.875 199.268 175.875 198.668 172.375 197.168C165.875 194.568 159.075 192.468 152.275 190.968C145.675 189.568 138.875 188.668 132.075 188.368C127.775 188.168 123.475 188.368 119.175 188.868C116.875 189.168 114.675 189.568 112.475 190.168C111.375 190.468 110.275 190.868 109.175 191.168C108.075 191.468 106.975 191.968 105.975 192.468C103.875 193.468 101.775 194.568 99.8746 195.968C97.9746 197.268 96.1746 198.768 94.5746 200.468C91.3746 203.668 89.2746 207.768 88.3746 212.168C88.2746 212.668 88.1746 213.168 88.1746 213.768L87.9746 215.368C87.9746 216.368 87.9746 217.468 87.9746 218.468L88.2746 221.368C88.4746 222.268 88.5746 223.168 88.7746 224.068C89.3746 227.168 90.3746 230.268 91.7746 233.168C94.0746 237.868 97.1746 242.068 100.975 245.668C103.175 247.768 105.575 249.668 108.075 251.468C111.675 253.868 112.875 254.268 112.975 254.068C113.075 253.868 112.275 253.068 108.975 250.468C106.675 248.668 104.475 246.668 102.375 244.568C98.8746 241.068 95.9746 237.068 93.7746 232.668C92.4746 229.968 91.5746 227.068 90.9746 224.168C90.6746 222.368 90.3746 220.668 90.2746 218.868C90.1746 217.968 90.2746 217.068 90.1746 216.068C90.0746 215.068 90.3746 214.168 90.4746 213.268C91.2746 209.268 93.1746 205.568 95.9746 202.568C98.9746 199.368 102.575 196.868 106.575 195.068C114.575 191.268 123.675 190.768 131.575 190.868C138.275 191.068 144.875 191.868 151.375 193.168C158.275 194.568 165.175 196.468 171.875 198.668C175.475 199.468 176.675 199.668 176.775 199.468Z" fill="#263238"/>
<path d="M448.075 216.368C448.075 216.568 449.775 216.868 455.375 217.468L467.075 218.668C469.575 218.968 472.475 219.168 475.575 219.668C476.375 219.768 477.175 219.968 477.875 220.168C478.175 220.268 478.475 220.368 478.775 220.568C479.075 220.768 479.375 221.068 479.575 221.268C480.175 221.868 480.575 222.568 480.875 223.368C480.975 223.568 481.075 223.768 481.075 223.968C481.075 224.068 481.175 224.168 481.175 224.268V224.368C481.175 224.468 481.175 224.568 481.075 224.568L473.275 225.868L390.675 239.768L366.575 243.668C362.575 244.268 358.675 244.968 354.875 245.468L353.475 245.668L352.175 245.768C351.275 245.768 350.375 245.568 349.375 245.468L343.775 244.768L306.575 239.768C284.175 236.668 270.775 234.868 263.075 233.868L258.275 233.268L257.375 233.168C257.175 233.168 257.075 233.068 256.975 232.868C256.775 232.568 256.675 232.168 256.675 231.768C256.475 230.368 256.475 229.768 256.275 229.768C256.075 229.768 255.875 230.268 255.875 231.768C255.875 232.268 255.975 232.768 256.175 233.168C256.275 233.568 256.575 233.768 256.975 233.968C257.375 234.068 257.575 234.068 257.975 234.168C259.275 234.468 260.875 234.768 262.675 235.068C270.275 236.368 283.475 238.368 305.675 241.568C315.175 242.968 328.075 244.768 342.675 246.668L348.275 247.368C349.275 247.468 350.175 247.568 351.175 247.668C351.475 247.668 351.675 247.768 351.975 247.668L352.775 247.568C353.275 247.568 353.875 247.468 354.275 247.368C358.175 246.868 362.075 246.268 365.975 245.668C373.875 244.468 381.975 243.068 390.075 241.768C422.375 236.368 454.475 230.768 472.575 227.668L481.775 226.068C482.175 225.968 482.575 225.768 482.775 225.368C482.975 224.968 483.075 224.568 482.975 224.168C482.975 223.968 482.875 223.768 482.875 223.568C482.875 223.468 482.775 223.268 482.775 223.168C482.675 222.868 482.575 222.668 482.475 222.368C482.075 221.468 481.475 220.568 480.775 219.868C480.475 219.468 480.075 219.168 479.575 218.868C479.375 218.668 479.075 218.568 478.875 218.468C478.675 218.368 478.375 218.268 478.175 218.168C477.375 217.968 476.575 217.768 475.675 217.668C472.475 217.268 469.575 217.068 467.075 216.768C461.975 216.368 458.175 216.168 455.275 215.968C449.875 216.068 448.075 216.068 448.075 216.368Z" fill="#263238"/>
<path d="M331.075 219.768C331.375 219.768 331.575 219.368 331.875 217.868C332.275 214.968 332.075 212.068 331.275 209.368C330.475 206.668 329.075 204.168 327.175 202.068C325.975 200.768 324.675 199.568 323.175 198.568C321.675 197.468 320.075 196.668 318.375 195.868C311.475 192.868 304.075 192.168 299.775 191.968C296.575 191.768 293.275 191.868 290.075 192.168C288.375 192.368 287.875 192.668 287.875 192.868C287.875 193.068 288.375 193.368 290.075 193.468C291.775 193.568 294.675 193.668 299.575 193.968C303.675 194.268 310.975 194.968 317.375 197.768C320.475 198.968 323.175 200.868 325.575 203.268C327.275 205.168 328.575 207.268 329.475 209.668C330.275 212.268 330.775 214.968 330.875 217.668C330.675 219.268 330.875 219.768 331.075 219.768Z" fill="#263238"/>
<path d="M150.775 158.267C150.375 158.467 150.375 159.767 152.875 165.667C154.775 169.867 156.775 173.967 159.075 177.967C161.375 182.067 163.875 185.967 166.675 189.767C168.075 191.767 169.675 193.567 171.475 195.167C172.475 195.967 172.875 196.067 173.075 195.967C173.275 195.867 173.175 195.367 172.475 194.367C171.775 193.367 170.475 191.667 168.375 188.667C166.575 186.167 163.675 181.667 161.075 177.067C158.475 172.467 156.075 167.767 154.675 165.067C151.975 159.267 151.275 158.067 150.775 158.267Z" fill="#FFFEFF"/>
</svg>
