<svg width="606" height="436" viewBox="0 0 606 436" fill="none" xmlns="http://www.w3.org/2000/svg">
<path opacity="0.3" d="M28.0611 297.506C33.7681 316.778 41.8176 335.605 51.9887 352.048C70.6641 382.236 99.9062 405.266 134.164 407.833C146.066 408.724 158.066 407.658 169.79 405.361C219.379 395.654 266.841 376.491 315.687 363.406C364.055 350.448 411.523 352.85 460.835 349.27C487.221 347.352 517.919 340.385 538.705 321.224C559.016 302.5 574.15 275.446 582.02 247.344C603.343 171.204 571.496 79.8509 507.843 42.2655C473.592 22.0419 430.732 28.5095 396.003 42.4931C374.009 51.3484 353.038 63.5746 329.526 66.9049C294.408 71.8776 259.473 57.9864 224.499 51.1069C166.798 39.7516 102.158 50.1142 61.0591 96.4277C19.5874 143.146 10.2712 213.234 22.3968 274.534C23.9088 282.181 25.801 289.879 28.0611 297.506Z" stroke="#0C4F3F" stroke-width="3.75573" stroke-miterlimit="10"/>
<path d="M311.982 293.669V432.076" stroke="#F8FAFB" stroke-width="3.75573" stroke-miterlimit="10"/>
<path d="M330.712 428.33H293.254V435.823H330.712V428.33Z" fill="#0C4F3F"/>
<path d="M418.001 289.63H205.963V297.706H418.001V289.63Z" fill="#F8FAFB"/>
<path d="M134.881 385.357C134.881 385.357 144.089 400.63 161.722 402.875L156.022 382.333L134.881 385.357Z" fill="#102048"/>
<path d="M158.06 389.207L143.447 377.887L137.163 396.742L150.036 407.923L158.06 389.207Z" fill="#F9B384"/>
<path d="M123.209 409.601L150.516 435.236C151.25 435.926 152.364 435.16 152.097 434.152L146.835 414.331L151.302 405.428L137.273 396.606C132.659 399.674 128.459 403.416 124.799 407.728L123.209 409.601Z" fill="#3748AC"/>
<path d="M146.737 297.974C186.316 300.98 197.714 298.465 203.006 315.613C209.726 337.396 161.724 402.872 161.724 402.872C161.724 402.872 153.122 389.237 134.884 385.354L159.797 328.253L146.737 297.974Z" fill="#1F3C88"/>
<path d="M96.6268 342.012V430.949" stroke="#F8FAFB" stroke-width="3.75573" stroke-miterlimit="10"/>
<path d="M108.47 290.022C97.0699 290.022 91.5339 255.961 76.7548 260.802C36.7437 273.909 66.1283 388.691 146.629 337.194L108.47 290.022Z" fill="#F8FAFB"/>
<path d="M77.9364 435.694C77.9364 430.456 86.3049 426.209 96.6265 426.209C106.948 426.209 115.317 430.456 115.317 435.694H77.9364Z" fill="#0C4F3F"/>
<path d="M224.14 241.32C229.326 244.257 232.876 248.618 233.866 255.208L223.851 255.572L224.14 241.32Z" fill="#6F3428"/>
<path d="M229.934 236.614C229.934 236.614 231.331 234.291 235.704 234.016C239.782 233.758 243.217 234.003 246.678 232.362C247.182 232.122 247.693 231.902 248.228 231.753L250.054 231.243L250.2 234.908C250.2 234.908 245.208 238.02 242.232 237.474C242.232 237.474 243.494 239.643 254.289 239.334C254.289 239.334 258.001 237.721 259.97 238.182C261.065 238.437 261.818 239.569 261.818 239.569L253.56 243.978L233.191 243.667L229.934 236.614Z" fill="#E28B6D"/>
<path d="M258.294 231.575L256.823 242.235L253.559 243.979L245.711 243.861L253.831 239.596C253.831 239.594 255.388 231.105 258.294 231.575Z" fill="#E28B6D"/>
<path d="M251.212 229.945L253.313 239.894L250.326 243.929L243.125 245.65L249.489 239.293C249.486 239.295 248.497 231.158 251.212 229.945Z" fill="#F9B384"/>
<path d="M220.011 244.826L229.936 236.613L240.649 240.655L245.179 239.712C245.179 239.712 243.24 233.041 245.96 231.489C245.96 231.489 248.305 234.94 248.87 239.925C248.971 240.817 244.799 245.205 244.799 245.205C243.73 245.954 235.031 246.338 235.031 246.338L225.877 258.054L220.011 244.826Z" fill="#F9B384"/>
<path d="M188.919 265.314C189.214 265.587 224.14 241.32 224.14 241.32C225.256 248.196 229.038 252.253 233.866 255.208L212.99 275.85L188.919 265.314Z" fill="#AE5140"/>
<path d="M186.966 407.784C186.966 407.784 204.162 414.361 219.614 401.995L199.752 391.724L186.966 407.784Z" fill="#102048"/>
<path d="M207.159 395.675L189.245 397.483L195.991 416.153L212.51 415.471L207.159 395.675Z" fill="#F9B384"/>
<path d="M193.562 435.726H229.509C230.482 435.726 230.858 434.361 230.042 433.79L214.001 422.566L212.512 415.4L195.993 415.966C194.382 421.543 193.564 427.349 193.564 433.188V435.726H193.562Z" fill="#3748AC"/>
<path d="M170.552 202.558L169.683 211.914L168.236 227.366L149.182 222.574C149.182 222.574 153.755 208.817 155.621 203.466C156.041 202.232 156.324 201.453 156.383 201.38L158.953 201.59L170.552 202.558Z" fill="#F9B384"/>
<path d="M170.553 202.558L169.542 213.405C164.21 212.96 158.831 210.273 155.668 203.324L158.953 201.588L170.553 202.558Z" fill="#E28B6D"/>
<path d="M171.284 207.204C159.558 210.46 151.361 198.905 151.361 198.905L150.559 191.456L150.451 190.781L148.643 178.857L157.105 167.269L176.461 172.462C176.471 172.472 176.461 172.472 176.461 172.472C177.331 174.694 178.084 176.981 178.698 179.267C179.01 180.437 179.294 181.615 179.528 182.775C181.847 194.11 180.283 204.707 171.284 207.204Z" fill="#F9B384"/>
<path d="M178.808 179.911C171.762 165.753 163.877 169.577 158.934 173.865C151.968 179.911 153.002 191.11 153.002 191.11L150.559 191.458L147.1 191.944L144.003 193.165C136.028 188.445 138.629 174.393 142.988 169.241C149.593 161.425 161.192 158.402 169.272 163.753C170.191 164.355 171.012 165.027 171.765 165.755C173.906 167.798 175.409 170.212 176.464 172.467V172.477C177.861 175.427 178.476 178.091 178.701 179.272C178.78 179.679 178.808 179.911 178.808 179.911Z" fill="#102048"/>
<path d="M178.809 179.911C174.579 169.117 165.225 168.718 160.536 173.326C154.498 179.261 162.552 187.661 153.002 191.107L150.451 190.781L145.799 190.179L143.757 175.874L151.25 167.267L160.29 163.758L171.76 165.75C173.901 167.793 175.404 170.207 176.459 172.462V172.472C177.857 175.422 178.471 178.086 178.696 179.266C178.78 179.679 178.809 179.911 178.809 179.911Z" fill="#102048"/>
<path d="M147.433 164.299C146.664 161.501 145.121 158.746 142.641 157.58C141.672 157.128 140.554 156.943 139.559 157.325C138.647 157.676 138.622 159.14 137.789 159.534C137.285 159.772 137.048 159.443 136.577 159.264C135.862 158.991 135.093 158.95 134.375 159.246C133.791 159.486 133.271 159.954 132.936 160.525C132.701 160.927 132.666 161.476 132.38 161.842C132.007 162.322 131.597 162.272 131.09 162.454C130.009 162.843 129.153 163.794 128.865 164.992C128.727 165.571 128.722 166.165 128.83 166.749C128.973 167.515 129.683 168.124 129.54 168.943C129.308 170.26 127.662 170.637 127.343 172.07C127.167 172.853 127.299 173.703 127.686 174.39C128.061 175.055 128.755 175.485 128.839 176.322C128.919 177.115 128.387 177.806 128.065 178.523C127.876 178.948 127.754 179.451 127.927 179.883C128.089 180.293 128.478 180.546 128.87 180.687C130.016 181.094 130.722 181.248 131.501 182.32C132.141 183.2 132.628 184.234 133.611 184.729C135.126 185.493 137.018 185.129 138.551 184.588C140.511 183.898 142.221 182.57 143.813 181.16C144.833 180.255 145.832 179.292 146.559 178.101C147.757 176.137 148.488 172.952 147.942 170.619C147.733 169.727 147.175 169.259 147.332 168.291C147.576 166.799 147.855 165.836 147.433 164.299Z" fill="#102048"/>
<path d="M160.416 251.884L173.704 267.107C172.198 269.372 170.381 272.312 168.545 275.851C165.417 281.844 162.214 289.534 160.24 298.467L100.547 296.298C105.422 279.771 121.087 228.236 150.029 216.997C163.162 211.888 173.537 220.663 180.965 231.778L156.47 247.357L160.416 251.884Z" fill="#FC6B58"/>
<path d="M217.968 279.544L244.83 274.084L258.277 283.042C259.492 283.849 258.962 285.866 257.536 285.866L241.439 285.305L224.883 288.785L217.968 279.544Z" fill="#F9B384"/>
<path d="M231.392 272.028C233.137 279.549 232.232 283.98 229.469 289.627L196.345 284.723C190.94 283.922 185.951 281.149 182.213 276.862L173.704 267.104L156.467 247.352L180.963 231.773C189.904 245.15 198.312 258.583 198.312 258.583L231.392 272.028Z" fill="#FC6B58"/>
<path d="M162.444 336.802C162.444 336.802 122.536 341.585 110.749 331.68C99.9726 322.623 99.0229 304.028 100.545 296.298C100.545 296.298 123.036 286.715 171.317 300.997C182.937 304.435 192.295 313.72 196.561 325.869C204.064 347.232 215.699 381.896 219.612 401.995C219.612 401.995 194.028 400.167 186.963 407.784L162.444 336.802Z" fill="#708CD5"/>
<path d="M269.532 285.454H241.536V289.63H269.532V285.454Z" fill="white"/>
<path d="M271.239 289.63H265.462L287.61 230.425H293.388L271.239 289.63Z" fill="#102048"/>
<path d="M173.706 267.104C172.201 269.369 170.384 272.309 168.548 275.848C165.703 268.484 161.933 258.224 160.418 251.882L173.706 267.104Z" fill="#AE5140"/>
<path d="M161.347 192.439C158.634 192.361 156.003 191.881 154.313 191.486C153.473 191.292 152.606 191.57 152.013 192.239L148.643 196.054L151.358 198.908C151.358 198.908 155.042 203.4 160.339 206.011C163.108 202.128 163.213 196.737 161.347 192.439Z" stroke="white" stroke-width="3.75573" stroke-miterlimit="10"/>
<path d="M179.965 185.169C179.353 190.872 173.662 194.201 161.572 192.336C161.389 192.308 161.249 192.497 161.324 192.682C163.021 196.919 163.021 202.252 160.344 206.011C164.208 207.917 168.928 208.825 173.711 206.251C183.606 200.923 179.965 185.169 179.965 185.169Z" fill="white" stroke="white" stroke-width="3.75573" stroke-miterlimit="10"/>
<path d="M153.307 193.16C152.948 190.705 151.372 188.567 149.152 187.899C146.376 187.065 143.431 188.445 143.046 191.736C142.46 196.764 146.58 201.901 154.045 198.213L153.307 193.16Z" fill="#F9B384"/>
<path d="M169.025 187.204C169.247 188.165 168.9 189.086 168.246 189.263C167.592 189.44 166.88 188.805 166.657 187.847C166.434 186.886 166.781 185.965 167.435 185.788C168.089 185.611 168.799 186.244 169.025 187.204Z" fill="#102048"/>
<path d="M175.601 186.676C176.244 186.567 176.654 185.714 176.517 184.771C176.379 183.827 175.746 183.15 175.103 183.259C174.46 183.368 174.05 184.222 174.187 185.165C174.325 186.109 174.958 186.785 175.601 186.676Z" fill="#102048"/>
<path d="M163.459 187.072C163.483 186.349 163.689 185.661 164.057 185.039C164.418 184.412 164.993 183.896 165.652 183.615C166.318 183.35 167.026 183.314 167.682 183.423C168.008 183.484 168.323 183.595 168.63 183.696C168.923 183.85 169.216 183.984 169.493 184.156L169.359 184.543C169.049 184.518 168.756 184.455 168.463 184.412C168.17 184.394 167.879 184.356 167.598 184.346C167.033 184.341 166.494 184.409 165.999 184.594C165.509 184.788 165.089 185.135 164.716 185.567C164.355 186.007 164.064 186.569 163.832 187.137L163.459 187.072Z" fill="#102048"/>
<path d="M172.719 182.791C172.86 182.283 173.127 181.848 173.483 181.481C173.835 181.109 174.299 180.857 174.785 180.718C175.275 180.599 175.786 180.601 176.252 180.735C176.487 180.793 176.705 180.907 176.925 180.991C177.129 181.12 177.333 181.241 177.521 181.385L177.39 181.694C176.949 181.618 176.541 181.509 176.135 181.484C175.73 181.446 175.343 181.479 174.968 181.554C174.585 181.623 174.248 181.825 173.912 182.05C173.582 182.283 173.277 182.601 173.003 182.935L172.719 182.791Z" fill="#102048"/>
<path d="M150.144 193.633C149.867 193.173 149.553 192.779 149.199 192.445C148.842 192.114 148.451 191.843 148.038 191.671C147.625 191.499 147.201 191.423 146.791 191.489C146.38 191.562 145.986 191.795 145.6 192.149L145.285 191.916C145.494 191.345 145.956 190.819 146.568 190.596C147.175 190.366 147.843 190.45 148.399 190.693C148.96 190.938 149.44 191.34 149.806 191.825C150.172 192.308 150.434 192.89 150.507 193.497L150.144 193.633Z" fill="#E28B6D"/>
<path d="M153.217 337.379L158.336 336.547C160.036 336.241 161.743 335.981 163.441 335.65L168.545 334.727C170.25 334.428 171.952 334.117 173.664 333.849L173.748 334.251C172.083 334.792 170.398 335.222 168.707 335.632C167.012 336.021 165.309 336.37 163.6 336.681C161.886 336.959 160.172 337.245 158.444 337.432C156.718 337.624 154.985 337.763 153.248 337.794L153.217 337.379Z" fill="#1F3C88"/>
<path d="M223.85 92.6289C209.121 92.6289 197.179 105.503 197.179 121.383C197.179 127.725 199.087 133.582 202.314 138.337V150.122L209.526 145.633C213.665 148.482 218.577 150.137 223.853 150.137C238.582 150.137 250.524 137.263 250.524 121.383C250.522 105.503 238.582 92.6289 223.85 92.6289Z" fill="#99A1D2"/>
<path d="M211.585 124.636C213.25 124.636 214.6 123.181 214.6 121.386C214.6 119.59 213.25 118.135 211.585 118.135C209.92 118.135 208.57 119.59 208.57 121.386C208.57 123.181 209.92 124.636 211.585 124.636Z" fill="white"/>
<path d="M223.85 124.636C225.516 124.636 226.866 123.181 226.866 121.386C226.866 119.59 225.516 118.135 223.85 118.135C222.185 118.135 220.835 119.59 220.835 121.386C220.835 123.181 222.185 124.636 223.85 124.636Z" fill="white"/>
<path d="M236.116 124.636C237.781 124.636 239.131 123.181 239.131 121.386C239.131 119.59 237.781 118.135 236.116 118.135C234.451 118.135 233.101 119.59 233.101 121.386C233.101 123.181 234.451 124.636 236.116 124.636Z" fill="white"/>
<path d="M482.499 187.778L477.682 193.013L453.151 186.16C447.055 181.046 443.322 172.1 445.249 164.868C447.73 155.568 457.707 148.753 464.371 152.901C464.371 152.901 459.689 156.475 460.35 159.592C465.119 153.766 478.266 155.96 484.623 163.7C487.899 167.686 487.556 177.176 482.499 187.778Z" fill="#102048"/>
<path d="M485.291 218.211L463.907 222.564L458.68 195.344L476.571 194.79C476.637 194.884 485.291 218.211 485.291 218.211Z" fill="#E28B6D"/>
<path d="M461.881 207.197C472.742 208.392 478.695 195.298 478.695 195.298L478.78 188.551L478.791 187.889L478.934 176.205L469.762 166.64L452.779 174.982C452.772 174.995 452.781 174.992 452.781 174.992C452.27 177.265 451.871 179.575 451.599 181.86C451.461 183.031 451.353 184.203 451.285 185.349C450.603 196.565 454.898 206.428 461.881 207.197Z" fill="#F9B384"/>
<path d="M450.57 180.482C453.156 173.806 458.805 170.313 463.522 174.052C470.353 179.466 473.881 175.311 474.575 176.044C479.429 181.165 478.796 187.892 478.796 187.892L481.903 185.922L482.536 182.874L482.592 168.88L474.676 161.989L465.996 160.227L455.794 164.135C454.101 166.458 450.382 170.609 450.382 170.609C449.477 173.665 450.57 180.482 450.57 180.482Z" fill="#102048"/>
<path d="M468.962 191.132C471.426 190.389 474.953 187.929 477.021 186.433C477.823 185.852 478.916 186.236 479.249 187.214L480.986 192.32L478.92 195.457C478.92 195.457 476.217 200.288 471.724 203.675C468.662 200.693 467.574 195.895 468.458 191.683C468.514 191.408 468.714 191.206 468.962 191.132Z" stroke="white" stroke-width="3.53475" stroke-miterlimit="10"/>
<path d="M451.24 189.08C455.426 194.275 462.551 193.393 468.432 191.242C468.596 191.181 468.756 191.333 468.718 191.515C467.813 195.746 468.655 200.686 471.722 203.674C468.444 206.143 464.2 207.913 459.386 206.34C451.212 203.676 451.24 189.08 451.24 189.08Z" fill="white" stroke="white" stroke-width="3.53475" stroke-miterlimit="10"/>
<path d="M475.807 189.671C477.633 185.129 482.777 182.474 484.655 186.888C486.536 191.302 484.344 197.399 476.834 196.534L475.807 189.671Z" fill="#F9B384"/>
<path d="M462.232 187.59C462.171 188.576 462.666 189.418 463.339 189.466C464.012 189.514 464.607 188.755 464.67 187.767C464.731 186.78 464.237 185.938 463.564 185.89C462.891 185.842 462.293 186.603 462.232 187.59Z" fill="#102048"/>
<path d="M454.457 186.624C454.478 187.579 455.022 188.341 455.671 188.323C456.323 188.308 456.834 187.519 456.813 186.566C456.792 185.61 456.248 184.849 455.596 184.866C454.947 184.882 454.436 185.668 454.457 186.624Z" fill="#102048"/>
<path d="M467.328 186.528C467.006 186.012 466.626 185.517 466.197 185.153C465.759 184.796 465.29 184.538 464.774 184.44C464.258 184.351 463.717 184.389 463.161 184.5C462.884 184.566 462.608 184.66 462.322 184.733C462.04 184.831 461.763 184.95 461.461 185.034L461.266 184.68C461.51 184.457 461.778 184.27 462.04 184.063C462.329 183.904 462.617 183.734 462.929 183.613C463.557 183.378 464.258 183.279 464.959 183.41C465.656 183.56 466.305 183.957 466.765 184.505C467.231 185.049 467.548 185.684 467.689 186.392L467.328 186.528Z" fill="#102048"/>
<path d="M457.611 184.15C457.287 183.875 456.933 183.622 456.57 183.455C456.202 183.299 455.836 183.165 455.449 183.17C455.067 183.165 454.682 183.21 454.289 183.324C453.892 183.425 453.508 183.609 453.088 183.769L452.908 183.491C453.069 183.311 453.25 183.152 453.428 182.988C453.632 182.864 453.827 182.712 454.049 182.608C454.486 182.386 454.99 182.285 455.491 182.308C455.991 182.351 456.49 182.512 456.898 182.811C457.311 183.101 457.646 183.481 457.867 183.953L457.611 184.15Z" fill="#102048"/>
<path d="M478.761 189.687C478.85 189.184 479.03 188.711 479.272 188.266C479.506 187.814 479.825 187.401 480.247 187.06C480.655 186.734 481.281 186.461 481.884 186.683C482.475 186.891 482.801 187.404 482.981 187.877L482.67 188.117C482.323 187.824 481.973 187.616 481.685 187.586C481.401 187.551 481.115 187.692 480.813 187.917C480.203 188.385 479.675 189.128 479.108 189.864L478.761 189.687Z" fill="#E28B6D"/>
<path d="M410.359 271.945L382.433 268.929L370.444 282.489C368.892 284.061 370.02 285.595 371.474 285.444L386.975 280.631L404.199 282.612L410.359 271.945Z" fill="#E28B6D"/>
<path d="M501.639 387.7C501.639 387.7 491.748 404.262 474.796 405.218L478.941 382.331L501.639 387.7Z" fill="#102048"/>
<path d="M459.951 219.884C447.209 230.038 439.584 248.825 429.091 255.393C424.486 258.274 397.395 267.238 397.395 267.238L398.886 281.634L443.992 262.134L460.788 238.995L459.951 219.884Z" fill="#0C4F3F"/>
<path d="M392.668 394.535C392.581 394.32 402.952 405.488 423.837 411.96L417.11 390.561L392.668 394.535Z" fill="#102048"/>
<path d="M403.351 388.929L420.545 397.407L409.804 415.951L394.23 409.978L403.351 388.929Z" fill="#F9B384"/>
<path d="M406.945 435.499L372.264 423.79C371.373 423.489 371.392 422.122 372.292 421.851L390.839 416.272L394.248 409.912L409.855 415.777C409.846 421.621 409.086 427.438 407.595 433.057L406.945 435.499Z" fill="#FC6B58"/>
<path d="M392.668 394.535L421.169 336.916C429.701 319.436 434.417 308.179 449.13 302.443C460.16 298.141 480.695 297.441 494.093 297.721L494.602 324.744L456.901 350.51L423.84 411.957C414.904 402.758 404.392 397.968 392.668 394.535Z" fill="#102048"/>
<path d="M538.336 342.012V430.949" stroke="#F8FAFB" stroke-width="3.75573" stroke-miterlimit="10"/>
<path d="M526.495 290.022C537.896 290.022 543.432 255.961 558.211 260.802C598.222 273.909 568.837 388.691 488.337 337.194L526.495 290.022Z" fill="#F8FAFB"/>
<path d="M557.027 435.694C557.027 430.456 548.658 426.209 538.337 426.209C528.015 426.209 519.646 430.456 519.646 435.694H557.027Z" fill="#0C4F3F"/>
<path d="M474.078 388.891L488.337 377.743L498.291 396.598L485.415 407.779L474.078 388.891Z" fill="#F9B384"/>
<path d="M512.244 409.457L484.763 435.254C484.081 435.893 483.045 435.183 483.293 434.245L488.618 414.187L485.378 407.728L498.18 396.461C502.795 399.53 506.994 403.272 510.655 407.584L512.244 409.457Z" fill="#FC6B58"/>
<path d="M534.423 296.296L470.517 297.848C468.383 287.653 464.828 278.947 461.475 272.337C459.773 268.992 458.12 266.181 456.718 263.975L471.096 246.601L474.381 242.642L452.422 224.755C460.033 212.75 468.167 208.992 479.858 211.724C518.786 220.822 532.156 277.428 534.423 296.296Z" fill="#338573"/>
<path d="M409.278 278.846L387.617 273.512L370.395 283.497C369.234 284.493 370.165 285.603 371.621 285.454H388.546L404.113 288.1L409.278 278.846Z" fill="#F9B384"/>
<path d="M360.546 289.63H388.543V285.454H360.546V289.63Z" fill="white"/>
<path d="M358.84 289.63H364.617L342.469 230.425H336.691L358.84 289.63Z" fill="#102048"/>
<path d="M471.098 246.598C469.837 253.107 467.253 263.325 461.475 272.337C459.773 268.992 458.12 266.181 456.718 263.975L471.098 246.598Z" fill="#0C4F3F"/>
<path d="M397.74 270.583C395.5 277.223 396.448 283.48 399.714 289.63L435.889 283.533C440.89 282.752 445.502 280.047 448.961 275.868L458.258 264.632L474.388 242.637L452.424 224.75C443.261 239.202 435.354 258.363 435.354 258.363L397.74 270.583Z" fill="#338573"/>
<path d="M524.212 331.68C515.428 339.064 491.029 338.286 479.166 337.411L501.639 387.702C483.396 391.59 474.796 405.22 474.796 405.22C474.796 405.22 419.032 342.012 433.933 315.353C451.013 284.796 534.421 296.296 534.421 296.296C535.938 304.028 534.988 322.621 524.212 331.68Z" fill="#1F3C88"/>
<path d="M494.6 338.157C491.976 338.281 489.352 338.253 486.733 338.188C484.111 338.132 481.495 337.958 478.878 337.811C476.264 337.631 473.651 337.409 471.042 337.159C468.434 336.888 465.829 336.6 463.231 336.208L463.267 335.798C465.883 335.912 468.495 336.079 471.107 336.241L478.939 336.769L486.768 337.3C489.378 337.465 491.988 337.619 494.6 337.748V338.157Z" fill="#708CD5"/>
<path d="M428.96 184.538C431.242 179.176 432.03 173.022 430.858 166.809C427.924 151.252 413.846 141.243 399.416 144.456C384.986 147.668 375.666 162.884 378.601 178.441C381.535 193.998 395.612 204.006 410.042 200.794C415.208 199.644 419.716 196.948 423.245 193.257L431.14 196.082L428.962 184.537L428.96 184.538Z" fill="#D3DFFF"/>
<path d="M417.666 173.272C419.171 172.934 419.978 171.17 419.469 169.331C418.96 167.493 417.328 166.277 415.824 166.614C414.319 166.952 413.512 168.716 414.021 170.554C414.529 172.393 416.161 173.609 417.666 173.272Z" fill="white"/>
<path d="M405.539 175.989C407.056 175.724 407.924 174.004 407.477 172.147C407.031 170.29 405.439 168.999 403.922 169.264C402.406 169.529 401.538 171.249 401.984 173.106C402.431 174.963 404.022 176.253 405.539 175.989Z" fill="white"/>
<path d="M393.523 178.664C395.04 178.399 395.908 176.678 395.461 174.821C395.015 172.964 393.423 171.674 391.907 171.939C390.39 172.204 389.522 173.924 389.968 175.781C390.415 177.638 392.006 178.929 393.523 178.664Z" fill="white"/>
</svg>
