<svg width="30" height="30" viewBox="0 0 30 30" fill="none" xmlns="http://www.w3.org/2000/svg">
<path d="M11.1 26.3249C10.65 25.4999 10.256 24.6434 9.918 23.7554C9.58 22.8674 9.299 21.9489 9.075 20.9999H4.65C5.375 22.2499 6.2815 23.3374 7.3695 24.2624C8.4575 25.1874 9.701 25.8749 11.1 26.3249ZM3.375 17.9999H8.475C8.4 17.4999 8.3435 17.0059 8.3055 16.5179C8.2675 16.0299 8.249 15.5239 8.25 14.9999C8.25 14.4749 8.269 13.969 8.307 13.482C8.345 12.995 8.401 12.501 8.475 12H3.375C3.25 12.5 3.156 12.994 3.093 13.482C3.03 13.97 2.999 14.4759 3 14.9999C3 15.5249 3.0315 16.0309 3.0945 16.5179C3.1575 17.0049 3.251 17.4989 3.375 17.9999ZM4.65 8.99997H9.075C9.3 8.04997 9.5815 7.13098 9.9195 6.24298C10.2575 5.35498 10.651 4.49898 11.1 3.67499C9.7 4.12499 8.456 4.81248 7.368 5.73748C6.28 6.66248 5.374 7.74997 4.65 8.99997ZM12.15 8.99997H17.85C17.55 7.89997 17.1625 6.86248 16.6875 5.88748C16.2125 4.91248 15.65 3.97499 15 3.07499C14.35 3.97499 13.7875 4.91248 13.3125 5.88748C12.8375 6.86248 12.45 7.89997 12.15 8.99997ZM20.925 8.99997H25.35C24.625 7.74997 23.7185 6.66248 22.6305 5.73748C21.5425 4.81248 20.299 4.12499 18.9 3.67499C19.35 4.49998 19.744 5.35648 20.082 6.24448C20.42 7.13248 20.701 8.05097 20.925 8.99997ZM15 29.9999C12.95 29.9999 11.0125 29.6059 9.1875 28.8179C7.3625 28.0299 5.7685 26.9549 4.4055 25.5929C3.0435 24.2309 1.9685 22.6374 1.1805 20.8124C0.392502 18.9874 -0.000998099 17.0499 1.90114e-06 14.9999C1.90114e-06 12.925 0.394002 10.981 1.182 9.16797C1.97 7.35497 3.045 5.76798 4.407 4.40698C5.769 3.04399 7.362 1.96899 9.186 1.182C11.01 0.394999 12.948 0.000999996 15 0C17.075 0 19.019 0.393999 20.832 1.182C22.645 1.96999 24.232 3.04499 25.593 4.40698C26.956 5.76898 28.031 7.35647 28.818 9.16947C29.605 10.9825 29.999 12.926 30 14.9999C30 15.2499 29.9935 15.4999 29.9805 15.7499C29.9675 15.9999 29.949 16.2499 29.925 16.4999H26.8875C26.9375 16.2499 26.969 16.0059 26.982 15.7679C26.995 15.5299 27.001 15.2739 27 14.9999C27 14.4749 26.9685 13.969 26.9055 13.482C26.8425 12.995 26.749 12.501 26.625 12H21.525C21.6 12.5 21.6565 12.994 21.6945 13.482C21.7325 13.97 21.751 14.4759 21.75 14.9999V15.7694C21.75 16.0064 21.7375 16.2499 21.7125 16.4999H18.7125C18.7375 16.2499 18.75 16.0059 18.75 15.7679V14.9999C18.75 14.4749 18.731 13.969 18.693 13.482C18.655 12.995 18.599 12.501 18.525 12H11.475C11.4 12.5 11.3435 12.994 11.3055 13.482C11.2675 13.97 11.249 14.4759 11.25 14.9999C11.25 15.5249 11.269 16.0309 11.307 16.5179C11.345 17.0049 11.401 17.4989 11.475 17.9999H16.5V20.9999H12.15C12.45 22.0999 12.8375 23.1374 13.3125 24.1124C13.7875 25.0874 14.35 26.0249 15 26.9249C15.275 26.5249 15.5375 26.1184 15.7875 25.7054C16.0375 25.2924 16.275 24.8739 16.5 24.4499V29.9249C16.25 29.9499 16.0065 29.9689 15.7695 29.9819C15.5325 29.9949 15.276 30.0009 15 29.9999ZM26.925 29.0624L22.5 24.6374V27.9749H19.5V19.4999H27.975V22.4999H24.6L29.025 26.9249L26.925 29.0624Z" fill="#338573"/>
</svg>
