<svg aria-hidden="true" style="position: absolute; width: 0; height: 0; overflow: hidden;" version="1.1" xmlns="http://www.w3.org/2000/svg" xmlns:xlink="http://www.w3.org/1999/xlink">
<defs>
<symbol id="icon-bookmark" viewBox="0 0 26 32">
<path fill="none" stroke="#338573" style="stroke: var(--color1, #338573)" stroke-linejoin="miter" stroke-linecap="butt" stroke-miterlimit="4" stroke-width="2.7826" d="M2.087 5.565c0-2.049 1.661-3.71 3.71-3.71h14.841c2.049 0 3.71 1.661 3.71 3.71v22.252c0 1.622-1.935 2.463-3.121 1.356l-6.743-6.296c-0.713-0.665-1.819-0.665-2.532 0l-6.743 6.296c-1.186 1.107-3.121 0.266-3.121-1.356v-22.252z"></path>
</symbol>
<symbol id="icon-share" viewBox="0 0 32 32">
<path fill="#338573" style="fill: var(--color1, #338573)" d="M22.464 23.855l-11.408-6.667c0.080-0.37 0.144-0.739 0.144-1.124s-0.064-0.755-0.144-1.125l11.28-6.602c0.864 0.803 2 1.301 3.264 1.301 2.656 0 4.8-2.153 4.8-4.819s-2.144-4.819-4.8-4.819c-2.656 0-4.8 2.153-4.8 4.819 0 0.386 0.064 0.755 0.144 1.125l-11.28 6.602c-0.864-0.803-2-1.301-3.264-1.301-2.656 0-4.8 2.153-4.8 4.819s2.144 4.819 4.8 4.819c1.264 0 2.4-0.498 3.264-1.301l11.392 6.683c-0.080 0.337-0.128 0.691-0.128 1.044 0 2.586 2.096 4.691 4.672 4.691s4.672-2.104 4.672-4.691c0-2.586-2.096-4.691-4.672-4.691-1.216 0-2.304 0.482-3.136 1.237z"></path>
</symbol>
<symbol id="icon-arrow-back" viewBox="0 0 18 32">
<path fill="#338573" style="fill: var(--color1, #338573)" d="M17.174 0.713c0.83 0.914 0.796 2.362-0.076 3.231l-11.103 11.52c-0.286 0.29-0.286 0.777 0 1.067l11.109 11.52c0.87 0.868 0.901 2.316 0.070 3.23-0.831 0.93-2.21 0.96-3.078 0.076l-13.401-13.638c-0.898-0.914-0.93-2.408-0.071-3.352l13.472-13.73c0.87-0.884 2.249-0.838 3.078 0.076z"></path>
</symbol>
<symbol id="icon-student" viewBox="0 0 38 32">
<path fill="none" stroke="#338573" style="stroke: var(--color1, #338573)" stroke-linejoin="round" stroke-linecap="round" stroke-miterlimit="4" stroke-width="2.9091" d="M36.364 9.766l-17.455-8.312-17.455 8.312 17.455 8.312 17.455-8.312zM36.364 9.766v12.468"></path>
<path fill="none" stroke="#338573" style="stroke: var(--color1, #338573)" stroke-linejoin="round" stroke-linecap="round" stroke-miterlimit="4" stroke-width="2.9091" d="M8.436 13.091v11.221c0 1.653 1.103 3.239 3.067 4.408s4.628 1.826 7.405 1.826c2.777 0 5.441-0.657 7.405-1.826s3.067-2.755 3.067-4.408v-11.221"></path>
</symbol>
<symbol id="icon-software" viewBox="0 0 32 32">
<path fill="#338573" style="fill: var(--color1, #338573)" d="M18.667 24.42c-1.463-0.697-2.72-1.76-3.649-3.087h-11.017v-16h24v3.019c1.080 0.758 1.989 1.734 2.667 2.867v-5.885c-0.002-0.707-0.284-1.384-0.783-1.883s-1.177-0.781-1.883-0.783h-24c-0.707 0.002-1.384 0.284-1.883 0.783s-0.781 1.177-0.783 1.883v16c0.002 0.707 0.284 1.384 0.783 1.883s1.177 0.781 1.883 0.783h9.333v2.667h-2.667v2.667h10.667v-2.667h-2.667v-2.247z"></path>
<path fill="#338573" style="fill: var(--color1, #338573)" d="M22.667 8c-1.582 0-3.129 0.469-4.445 1.348s-2.341 2.128-2.947 3.59c-0.605 1.462-0.764 3.070-0.455 4.622s1.071 2.977 2.189 4.096c1.119 1.119 2.544 1.881 4.096 2.189s3.16 0.15 4.622-0.455 2.711-1.631 3.59-2.947c0.879-1.316 1.348-2.862 1.348-4.445 0-1.051-0.206-2.091-0.608-3.062s-0.991-1.853-1.734-2.596-1.625-1.332-2.596-1.734c-0.971-0.402-2.011-0.609-3.062-0.608zM22.667 21.333c-1.055 0-2.086-0.313-2.963-0.899s-1.561-1.419-1.964-2.394c-0.404-0.975-0.509-2.047-0.303-3.081s0.714-1.985 1.46-2.731 1.696-1.254 2.731-1.46c1.035-0.206 2.107-0.1 3.081 0.303s1.808 1.087 2.394 1.964c0.586 0.877 0.899 1.908 0.899 2.963-0.002 1.414-0.564 2.769-1.564 3.769s-2.355 1.562-3.769 1.564z"></path>
<path fill="#338573" style="fill: var(--color1, #338573)" d="M22.667 17.333c0.736 0 1.333-0.597 1.333-1.333s-0.597-1.333-1.333-1.333c-0.736 0-1.333 0.597-1.333 1.333s0.597 1.333 1.333 1.333z"></path>
</symbol>
<symbol id="icon-health" viewBox="0 0 32 32">
<path fill="none" stroke="#338573" style="stroke: var(--color1, #338573)" stroke-linejoin="round" stroke-linecap="round" stroke-miterlimit="4" stroke-width="2.6667" d="M21.333 4c0-0.354-0.141-0.693-0.391-0.943s-0.589-0.391-0.943-0.391h-8c-0.354 0-0.693 0.14-0.943 0.391s-0.391 0.589-0.391 0.943v6.667h-6.667c-0.354 0-0.693 0.14-0.943 0.391s-0.391 0.589-0.391 0.943v8c0 0.354 0.14 0.693 0.391 0.943s0.589 0.391 0.943 0.391h6.667v6.667c0 0.354 0.14 0.693 0.391 0.943s0.589 0.391 0.943 0.391h8c0.354 0 0.693-0.141 0.943-0.391s0.391-0.589 0.391-0.943v-6.667h6.667c0.354 0 0.693-0.141 0.943-0.391s0.391-0.589 0.391-0.943v-8c0-0.354-0.141-0.693-0.391-0.943s-0.589-0.391-0.943-0.391h-6.667v-6.667z"></path>
</symbol>
<symbol id="icon-design" viewBox="0 0 32 32">
<path fill="none" stroke="#338573" style="stroke: var(--color1, #338573)" stroke-linejoin="round" stroke-linecap="round" stroke-miterlimit="4" stroke-width="2.6667" d="M16 2.667c-7.364 0-13.333 5.969-13.333 13.333s5.969 13.333 13.333 13.333c7.364 0 13.333-5.969 13.333-13.333s-5.969-13.333-13.333-13.333z"></path>
<path fill="none" stroke="#338573" style="stroke: var(--color1, #338573)" stroke-linejoin="round" stroke-linecap="round" stroke-miterlimit="4" stroke-width="2.6667" d="M10.667 28.224v-9.557l5.333-9.333 5.333 9.333v9.557"></path>
<path fill="none" stroke="#338573" style="stroke: var(--color1, #338573)" stroke-linejoin="round" stroke-linecap="round" stroke-miterlimit="4" stroke-width="2.6667" d="M10.667 18.667c0 0 1.503 1.333 2.667 1.333s2.667-1.333 2.667-1.333c0 0 1.503 1.333 2.667 1.333s2.667-1.333 2.667-1.333"></path>
</symbol>
<symbol id="icon-data" viewBox="0 0 32 32">
<path fill="none" stroke="#338573" style="stroke: var(--color1, #338573)" stroke-linejoin="round" stroke-linecap="round" stroke-miterlimit="4" stroke-width="2.6667" d="M29.333 7.333v18c0 2.209-5.969 4-13.333 4s-13.333-1.791-13.333-4v-18"></path>
<path fill="none" stroke="#338573" style="stroke: var(--color1, #338573)" stroke-linejoin="round" stroke-linecap="round" stroke-miterlimit="4" stroke-width="2.6667" d="M29.333 19.333c0 2.209-5.969 4-13.333 4s-13.333-1.791-13.333-4M29.333 13.333c0 2.209-5.969 4-13.333 4s-13.333-1.791-13.333-4"></path>
<path fill="none" stroke="#338573" style="stroke: var(--color1, #338573)" stroke-linejoin="round" stroke-linecap="round" stroke-miterlimit="4" stroke-width="2.6667" d="M16 10.667c7.364 0 13.333-1.791 13.333-4s-5.97-4-13.333-4c-7.364 0-13.333 1.791-13.333 4s5.97 4 13.333 4z"></path>
</symbol>
<symbol id="icon-user-business" viewBox="0 0 32 32">
<path fill="none" stroke="#338573" style="stroke: var(--color1, #338573)" stroke-linejoin="round" stroke-linecap="round" stroke-miterlimit="4" stroke-width="2.6667" d="M16 13.333c2.945 0 5.333-2.388 5.333-5.333s-2.388-5.333-5.333-5.333c-2.946 0-5.333 2.388-5.333 5.333s2.388 5.333 5.333 5.333z"></path>
<path fill="none" stroke="#338573" style="stroke: var(--color1, #338573)" stroke-linejoin="round" stroke-linecap="round" stroke-miterlimit="4" stroke-width="2.6667" d="M28 29.333c0-6.627-5.373-12-12-12s-12 5.373-12 12"></path>
<path fill="none" stroke="#338573" style="stroke: var(--color1, #338573)" stroke-linejoin="round" stroke-linecap="round" stroke-miterlimit="4" stroke-width="2.6667" d="M16 29.333l2.667-3.333-2.667-8.667-2.667 8.667 2.667 3.333z"></path>
</symbol>
<symbol id="icon-code-computer" viewBox="0 0 32 32">
<path fill="none" stroke="#338573" style="stroke: var(--color1, #338573)" stroke-linejoin="round" stroke-linecap="round" stroke-miterlimit="4" stroke-width="2.6667" d="M14 4h-8c-0.53 0-1.039 0.211-1.414 0.586s-0.586 0.884-0.586 1.414v14.667c0 0.53 0.211 1.039 0.586 1.414s0.884 0.586 1.414 0.586h20c0.53 0 1.039-0.211 1.414-0.586s0.586-0.884 0.586-1.414v-6.667M16 22.667v5.333"></path>
<path fill="none" stroke="#338573" style="stroke: var(--color1, #338573)" stroke-linejoin="round" stroke-linecap="round" stroke-miterlimit="4" stroke-width="2.6667" d="M21.333 4l-2.667 2.667 2.667 2.667M25.333 4l2.667 2.667-2.667 2.667M9.333 28h13.333"></path>
</symbol>
<symbol id="icon-business" viewBox="0 0 32 32">
<path fill="#338573" style="fill: var(--color1, #338573)" d="M5.333 28c-0.733 0-1.361-0.261-1.884-0.784s-0.784-1.15-0.783-1.883v-14.667c0-0.733 0.261-1.361 0.784-1.884s1.15-0.784 1.883-0.783h5.333v-2.667c0-0.733 0.261-1.361 0.784-1.884s1.15-0.784 1.883-0.783h5.333c0.733 0 1.361 0.261 1.884 0.784s0.784 1.15 0.783 1.883v2.667h5.333c0.733 0 1.361 0.261 1.884 0.784s0.784 1.15 0.783 1.883v14.667c0 0.733-0.261 1.361-0.784 1.884s-1.15 0.784-1.883 0.783h-21.333zM13.333 8h5.333v-2.667h-5.333v2.667zM26.667 20h-6.667v2.667h-8v-2.667h-6.667v5.333h21.333v-5.333zM14.667 20h2.667v-2.667h-2.667v2.667zM5.333 17.333h6.667v-2.667h8v2.667h6.667v-6.667h-21.333v6.667z"></path>
</symbol>
<symbol id="icon-art" viewBox="0 0 32 32">
<path fill="#338573" style="fill: var(--color1, #338573)" d="M5.333 29.333c-0.733 0-1.361-0.261-1.884-0.784s-0.784-1.15-0.783-1.883v-16c0-0.733 0.261-1.361 0.784-1.884s1.15-0.784 1.883-0.783h5.333l4.4-4.4c0.267-0.267 0.578-0.4 0.933-0.4s0.667 0.133 0.933 0.4l4.4 4.4h5.333c0.733 0 1.361 0.261 1.884 0.784s0.784 1.15 0.783 1.883v16c0 0.733-0.261 1.361-0.784 1.884s-1.15 0.784-1.883 0.783h-21.333zM5.333 26.667h21.333v-16h-21.333v16zM15 22.667l-2.467-3.3c-0.133-0.178-0.311-0.267-0.533-0.267s-0.4 0.089-0.533 0.267l-2.667 3.567c-0.178 0.222-0.2 0.456-0.067 0.7s0.333 0.367 0.6 0.367h13.333c0.267 0 0.467-0.122 0.6-0.367s0.111-0.478-0.067-0.7l-3.667-4.9c-0.133-0.178-0.311-0.267-0.533-0.267s-0.4 0.089-0.533 0.267l-3.467 4.633zM23.333 17.333c0.556 0 1.028-0.195 1.417-0.584s0.584-0.861 0.583-1.416c0-0.555-0.195-1.028-0.584-1.417s-0.861-0.584-1.416-0.583c-0.556 0-1.028 0.195-1.417 0.584s-0.584 0.861-0.583 1.416c0 0.556 0.195 1.028 0.584 1.417s0.861 0.584 1.416 0.583zM13.467 8h5.067l-2.533-2.533-2.533 2.533z"></path>
</symbol>
<symbol id="icon-people" viewBox="0 0 32 32">
<path fill="#338573" style="fill: var(--color1, #338573)" d="M12 14.667c1.055 0 2.086-0.313 2.963-0.899s1.561-1.419 1.964-2.394c0.404-0.975 0.509-2.047 0.303-3.081s-0.714-1.985-1.46-2.731-1.696-1.254-2.731-1.46c-1.035-0.206-2.107-0.1-3.081 0.303s-1.808 1.087-2.394 1.964c-0.586 0.877-0.899 1.908-0.899 2.963 0 1.415 0.562 2.771 1.562 3.771s2.357 1.562 3.771 1.562zM12 6.667c0.527 0 1.043 0.156 1.481 0.449s0.78 0.71 0.982 1.197c0.202 0.487 0.255 1.023 0.152 1.541s-0.357 0.992-0.73 1.365-0.848 0.627-1.365 0.73c-0.517 0.103-1.053 0.050-1.541-0.152s-0.904-0.544-1.197-0.982c-0.293-0.439-0.449-0.954-0.449-1.482 0-0.707 0.281-1.386 0.781-1.886s1.178-0.781 1.886-0.781zM22.667 17.333c0.791 0 1.565-0.235 2.222-0.674s1.171-1.064 1.473-1.795c0.303-0.731 0.382-1.535 0.228-2.311s-0.535-1.489-1.095-2.048c-0.559-0.559-1.272-0.94-2.048-1.095s-1.58-0.075-2.311 0.228c-0.731 0.303-1.356 0.815-1.795 1.473s-0.674 1.431-0.674 2.222c0 1.061 0.421 2.078 1.172 2.828s1.768 1.172 2.828 1.172zM22.667 12c0.264 0 0.521 0.078 0.741 0.225s0.39 0.355 0.491 0.598 0.127 0.512 0.076 0.77c-0.051 0.259-0.178 0.496-0.365 0.683s-0.424 0.313-0.683 0.365-0.527 0.025-0.77-0.076c-0.244-0.101-0.452-0.272-0.598-0.491s-0.225-0.477-0.225-0.741c0-0.354 0.141-0.693 0.391-0.943s0.589-0.391 0.943-0.391zM22.667 18.667c-1.478 0.002-2.913 0.494-4.080 1.4-1.306-1.301-2.968-2.186-4.776-2.543s-3.682-0.172-5.385 0.534c-1.703 0.706-3.158 1.9-4.183 3.432s-1.573 3.333-1.576 5.177c0 0.354 0.14 0.693 0.391 0.943s0.589 0.391 0.943 0.391c0.354 0 0.693-0.141 0.943-0.391s0.391-0.589 0.391-0.943c0-1.768 0.702-3.464 1.953-4.714s2.946-1.953 4.714-1.953 3.464 0.702 4.714 1.953c1.25 1.25 1.953 2.946 1.953 4.714 0 0.354 0.141 0.693 0.391 0.943s0.589 0.391 0.943 0.391c0.354 0 0.693-0.141 0.943-0.391s0.391-0.589 0.391-0.943c0.003-1.562-0.391-3.099-1.147-4.467 0.589-0.466 1.298-0.756 2.044-0.838s1.501 0.048 2.177 0.375c0.676 0.327 1.246 0.838 1.646 1.473s0.612 1.372 0.613 2.123c0 0.354 0.141 0.693 0.391 0.943s0.589 0.391 0.943 0.391c0.354 0 0.693-0.141 0.943-0.391s0.391-0.589 0.391-0.943c0-1.768-0.702-3.464-1.953-4.714s-2.946-1.953-4.714-1.953z"></path>
</symbol>
<symbol id="icon-time" viewBox="0 0 32 32">
<path fill="#338573" style="fill: var(--color1, #338573)" d="M15.987 2.667c-7.36 0-13.32 5.973-13.32 13.333s5.96 13.333 13.32 13.333c7.373 0 13.347-5.973 13.347-13.333s-5.973-13.333-13.347-13.333zM16 26.667c-5.893 0-10.667-4.773-10.667-10.667s4.773-10.667 10.667-10.667c5.893 0 10.667 4.773 10.667 10.667s-4.773 10.667-10.667 10.667zM15.707 9.333h-0.080c-0.533 0-0.96 0.427-0.96 0.96v6.293c0 0.467 0.24 0.907 0.653 1.147l5.533 3.32c0.453 0.267 1.040 0.133 1.307-0.32 0.067-0.108 0.111-0.228 0.131-0.354s0.013-0.254-0.018-0.377c-0.031-0.123-0.087-0.239-0.163-0.34s-0.173-0.186-0.283-0.249l-5.16-3.067v-6.053c0-0.533-0.427-0.96-0.96-0.96z"></path>
</symbol>
<symbol id="icon-arrow-right" viewBox="0 0 34 32">
<path fill="none" stroke="#338573" style="stroke: var(--color1, #338573)" stroke-linejoin="round" stroke-linecap="round" stroke-miterlimit="4" stroke-width="3.0476" d="M16.762 30.256c8.416 0 15.238-6.432 15.238-14.366s-6.822-14.366-15.238-14.366c-8.416 0-15.238 6.432-15.238 14.366s6.822 14.366 15.238 14.366z"></path>
<path fill="none" stroke="#338573" style="stroke: var(--color1, #338573)" stroke-linejoin="round" stroke-linecap="round" stroke-miterlimit="4" stroke-width="3.0476" d="M16.762 21.636l6.095-5.746-6.095-5.746"></path>
<path fill="none" stroke="#338573" style="stroke: var(--color1, #338573)" stroke-linejoin="round" stroke-linecap="round" stroke-miterlimit="4" stroke-width="3.0476" d="M10.667 15.89h12.19"></path>
</symbol>
<symbol id="icon-arrow-left" viewBox="0 0 34 32">
<path fill="none" stroke="#338573" style="stroke: var(--color1, #338573)" stroke-linejoin="round" stroke-linecap="round" stroke-miterlimit="4" stroke-width="3.0476" d="M16.762 30.256c-8.416 0-15.238-6.432-15.238-14.366s6.822-14.366 15.238-14.366c8.416 0 15.238 6.432 15.238 14.366s-6.822 14.366-15.238 14.366z"></path>
<path fill="none" stroke="#338573" style="stroke: var(--color1, #338573)" stroke-linejoin="round" stroke-linecap="round" stroke-miterlimit="4" stroke-width="3.0476" d="M16.762 21.636l-6.095-5.746 6.095-5.746"></path>
<path fill="none" stroke="#338573" style="stroke: var(--color1, #338573)" stroke-linejoin="round" stroke-linecap="round" stroke-miterlimit="4" stroke-width="3.0476" d="M22.857 15.89h-12.19"></path>
</symbol>
<symbol id="icon-location" viewBox="0 0 34 32">
<path fill="none" stroke="#338573" style="stroke: var(--color1, #338573)" stroke-linejoin="round" stroke-linecap="round" stroke-miterlimit="4" stroke-width="3.2" d="M28.219 13.333c0 9.333-12.094 17.333-12.094 17.333s-12.094-8-12.094-17.333c0-3.183 1.274-6.235 3.542-8.485s5.344-3.515 8.551-3.515c3.208 0 6.284 1.264 8.552 3.515s3.542 5.303 3.542 8.485z"></path>
<path fill="none" stroke="#338573" style="stroke: var(--color1, #338573)" stroke-linejoin="round" stroke-linecap="round" stroke-miterlimit="4" stroke-width="3.2" d="M16.125 17.333c2.226 0 4.031-1.791 4.031-4s-1.805-4-4.031-4c-2.226 0-4.031 1.791-4.031 4s1.805 4 4.031 4z"></path>
</symbol>
<symbol id="icon-star" viewBox="0 0 32 32">
<path fill="#fae03e" style="fill: var(--color3, #fae03e)" d="M11.282 8.572c1.231-2.793 3.573-7.729 4.745-7.729 1.703-0.002 5.433 9.576 5.433 9.576s3.453 0.301 6.244 0.61c1.481 0.163 4.127 0.413 4.293 1.229 0.035 0.177-0.177 0.899-0.564 1.403-1.639 2.139-5.891 6.722-5.891 6.722s0.233 2.189 0.441 4.584c0.133 1.549 0.493 4.689 0.363 5.25-0.142 0.618-0.397 0.787-0.662 0.884-0.693 0.253-2.301-0.729-4.179-1.629-2.559-1.228-5.435-2.54-5.435-2.54s-1.897 0.992-4.146 1.96c-2.402 1.034-4.835 2.739-5.85 2.139-0.633-0.376-0.164-3.303 0.079-5.908 0.228-2.457 0.426-4.702 0.426-4.702s-1.409-1.654-3.049-3.422c-1.772-1.912-3.933-3.975-3.465-4.733 0.353-0.573 1.965-0.879 4.671-1.214 2.875-0.357 5.747-0.61 5.747-0.61s0.313-0.769 0.799-1.871z"></path>
</symbol>
</defs>
</svg>
