<svg width="168" height="175" viewBox="0 0 168 175" fill="none" xmlns="http://www.w3.org/2000/svg">
<path d="M80.0416 41.1673H68.6736C67.6436 41.1673 66.8086 40.3359 66.8086 39.3102C66.8086 38.2845 67.6436 37.4531 68.6736 37.4531H80.0416C81.0716 37.4531 81.9066 38.2845 81.9066 39.3102C81.9066 40.3359 81.0716 41.1673 80.0416 41.1673Z" fill="#D6D6D6"/>
<g opacity="0.7">
<path opacity="0.7" d="M80.0416 41.1673H68.6736C67.6436 41.1673 66.8086 40.3359 66.8086 39.3102C66.8086 38.2845 67.6436 37.4531 68.6736 37.4531H80.0416C81.0716 37.4531 81.9066 38.2845 81.9066 39.3102C81.9066 40.3359 81.0716 41.1673 80.0416 41.1673Z" fill="white"/>
</g>
<path d="M121.749 79.327L78.1617 159.206C77.5997 160.232 76.3047 160.613 75.2747 160.053L1.10967 119.919C0.0796692 119.36 -0.302329 118.07 0.258671 117.044L56.9457 13.147C57.5077 12.1213 58.8037 11.7406 59.8337 12.3L109.81 39.3408L121.749 79.327Z" fill="#D6D6D6"/>
<g opacity="0.2">
<path opacity="0.2" d="M121.749 79.327L78.1617 159.206C77.5997 160.232 76.3047 160.613 75.2747 160.053L1.10967 119.919C0.0796692 119.36 -0.302329 118.07 0.258671 117.044L56.9457 13.147C57.5077 12.1213 58.8037 11.7406 59.8337 12.3L109.81 39.3408L121.749 79.327Z" fill="white"/>
</g>
<path d="M97.2956 97.2559L41.9046 67.4972L40.0516 70.9165L95.4426 100.675L97.2956 97.2559Z" fill="#D6D6D6"/>
<path d="M89.7257 111.227L34.3347 81.4684L32.4827 84.8877L87.8737 114.646L89.7257 111.227Z" fill="#D6D6D6"/>
<path d="M82.1586 125.198L26.7677 95.4398L24.9156 98.8588L80.3067 128.617L82.1586 125.198Z" fill="#D6D6D6"/>
<path d="M109.873 39.3097L96.7326 63.4055C96.1706 64.4312 96.5536 65.7211 97.5836 66.2806L121.702 79.3347L109.873 39.3097Z" fill="#D6D6D6"/>
<path opacity="0.7" d="M109.873 39.3097L96.7326 63.4055C96.1706 64.4312 96.5536 65.7211 97.5836 66.2806L121.702 79.3347L109.873 39.3097Z" fill="white"/>
<path d="M133.109 76.6381L89.5226 156.517C88.9606 157.543 87.6656 157.924 86.6356 157.364L12.4696 117.23C11.4396 116.671 11.0576 115.381 11.6196 114.355L68.3066 10.4581C68.8686 9.43252 70.1636 9.05172 71.1936 9.61122L121.171 36.652L133.109 76.6381Z" fill="#D6D6D6"/>
<g opacity="0.5">
<path opacity="0.5" d="M133.109 76.6381L89.5226 156.517C88.9606 157.543 87.6656 157.924 86.6356 157.364L12.4696 117.23C11.4396 116.671 11.0576 115.381 11.6196 114.355L68.3066 10.4581C68.8686 9.43252 70.1636 9.05172 71.1936 9.61122L121.171 36.652L133.109 76.6381Z" fill="white"/>
</g>
<path d="M107.181 93.7719L54.7456 65.6047C53.9266 65.1695 52.9116 65.4726 52.4676 66.2807L52.2096 66.7547C51.7726 67.5706 52.0766 68.5807 52.8886 69.0236L105.324 97.1909C106.143 97.6259 107.157 97.3229 107.602 96.5149L107.859 96.0409C108.304 95.2249 108 94.2069 107.181 93.7719Z" fill="#D6D6D6"/>
<path d="M99.6117 107.743L47.1767 79.5754C46.3577 79.1402 45.3437 79.4433 44.8987 80.2514L44.6407 80.7254C44.2037 81.5413 44.5087 82.5514 45.3197 82.9943L97.7547 111.162C98.5737 111.597 99.5877 111.294 100.033 110.486L100.291 110.012C100.735 109.196 100.431 108.186 99.6117 107.743Z" fill="#D6D6D6"/>
<path d="M92.0426 121.714L39.6087 93.5469C38.7897 93.1119 37.7746 93.4149 37.3296 94.2229L37.0726 94.6969C36.6356 95.5129 36.9396 96.5229 37.7516 96.9659L90.1857 125.133C91.0057 125.568 92.0196 125.265 92.4646 124.457L92.7216 123.983C93.1666 123.167 92.8626 122.157 92.0426 121.714Z" fill="#D6D6D6"/>
<path d="M121.242 36.6211L108.094 60.7169C107.532 61.7426 107.914 63.0325 108.944 63.592L133.063 76.6461L121.242 36.6211Z" fill="#D6D6D6"/>
<path opacity="0.7" d="M121.242 36.6211L108.094 60.7169C107.532 61.7426 107.914 63.0325 108.944 63.592L133.063 76.6461L121.242 36.6211Z" fill="white"/>
<path d="M118.229 0L121.896 16.2167C108.008 20.0164 95.5457 33.7 86.5807 46.6376C83.0457 51.7427 80.0497 57.6715 77.8107 63.9422C77.8107 63.9422 105.815 38.7119 121.257 37.2355L120.523 64.0432C120.523 64.0432 136.534 32.9851 167.636 21.6171C167.628 21.6093 141.583 2.92942 118.229 0Z" fill="#EFF6F2"/>
<path d="M114.109 143.343C114.109 160.558 100.145 174.514 82.9186 174.514C65.6936 174.514 51.7296 160.558 51.7296 143.343C51.7296 126.127 65.6936 112.171 82.9186 112.171C100.145 112.171 114.109 126.127 114.109 143.343Z" fill="#EFF6F2"/>
<path d="M78.8886 149.822L73.7786 144.715C73.2086 144.145 72.3036 144.145 71.7336 144.715C71.1646 145.284 71.1646 146.188 71.7336 146.758L77.8526 152.872C78.4216 153.441 79.3416 153.441 79.9116 152.872L95.3896 137.418C95.9586 136.849 95.9586 135.944 95.3896 135.375C94.8196 134.806 93.9146 134.806 93.3446 135.375L78.8886 149.822Z" fill="white"/>
</svg>
