<svg width="126" height="31" viewBox="0 0 126 31" fill="none" xmlns="http://www.w3.org/2000/svg">
<g clip-path="url(#clip0_120_208)">
<path fill-rule="evenodd" clip-rule="evenodd" d="M1.24561 22.5034L5.68674 19.1017C8.04511 22.1808 10.5496 23.5997 13.3404 23.5997C16.1158 23.5997 18.5515 22.1971 20.8042 19.1424L25.3065 22.4627C22.0585 26.867 18.0176 29.1938 13.3404 29.1938C8.67874 29.1938 4.6004 26.8833 1.24561 22.5034Z" fill="url(#paint0_linear_120_208)"/>
<path fill-rule="evenodd" clip-rule="evenodd" d="M13.3262 7.71904L5.42174 14.5302L1.77002 10.2923L13.3419 0.320956L24.8239 10.3001L21.1542 14.5225L13.3262 7.71904Z" fill="url(#paint1_linear_120_208)"/>
<path d="M55.6219 6.0712H51.1465V24.7185H55.6219V6.0712Z" fill="black"/>
<path fill-rule="evenodd" clip-rule="evenodd" d="M42.102 24.8007C39.4638 24.8007 37.2653 23.9458 35.482 22.2358C33.6988 20.5014 32.8193 18.2785 32.8193 15.5669C32.8193 12.831 33.7232 10.5836 35.5064 8.82485C37.3141 7.04158 39.5126 6.16219 42.1264 6.16219C45.3508 6.16219 48.209 7.55457 49.87 9.72868L46.9631 12.7822C45.5706 11.2921 44.0562 10.5348 42.4195 10.5348C41.0272 10.5348 39.8791 10.9989 38.9263 11.9516C37.9981 12.9043 37.534 14.1013 37.534 15.5425C37.534 16.9349 37.9981 18.1075 38.9263 19.0602C39.8791 19.9884 41.0272 20.4525 42.3951 20.4525C44.1784 20.4525 45.7417 19.6709 47.0363 18.1319L50.0656 21.0388C49.2351 22.1381 48.1112 23.0419 46.7187 23.7503C45.3267 24.4588 43.7875 24.8007 42.102 24.8007Z" fill="black"/>
<path fill-rule="evenodd" clip-rule="evenodd" d="M62.3348 7.56295C62.3348 8.9018 61.2498 9.98713 59.9109 9.98713C58.5719 9.98713 57.4866 8.9018 57.4866 7.56295C57.4866 6.22414 58.5719 5.13881 59.9109 5.13881C61.2498 5.13881 62.3348 6.22414 62.3348 7.56295ZM62.1483 11.1059H57.673V24.7185H62.1483V11.1059Z" fill="black"/>
<path fill-rule="evenodd" clip-rule="evenodd" d="M70.7989 24.8251C68.6738 24.8251 66.9637 24.1656 65.6204 22.8465C64.3012 21.5273 63.6414 19.8418 63.6414 17.7654C63.6414 15.6891 64.3012 14.0035 65.6445 12.6844C66.9883 11.3653 68.7225 10.7058 70.8722 10.7058C73.6817 10.7058 76.1485 12.0737 77.2966 14.6387L73.8523 16.4463C73.1684 15.2982 72.2159 14.7119 70.97 14.7119C70.0663 14.7119 69.3332 15.0051 68.7471 15.5913C68.1851 16.1776 67.892 16.9104 67.892 17.7654C67.892 19.5487 69.1867 20.8678 70.9213 20.8678C72.1668 20.8678 73.3149 20.1838 73.8036 19.1334L77.2479 21.1854C76.0753 23.4327 73.6571 24.8251 70.7989 24.8251Z" fill="black"/>
<path fill-rule="evenodd" clip-rule="evenodd" d="M82.8473 6.0712H78.3721V24.7185H82.8473V19.9714L83.3716 19.4823L87.4626 24.7185H92.6687L86.3833 16.6738L92.3542 11.1059H86.8857L82.8473 14.872V6.0712Z" fill="black"/>
<path fill-rule="evenodd" clip-rule="evenodd" d="M93.4758 17.672V6.0712H98.138V17.4123C98.138 19.4398 99.3194 20.4169 101.028 20.4169C102.712 20.4169 103.918 19.391 103.918 17.4123V6.0712H108.58V17.672C108.58 22.9973 104.841 25.0004 101.028 25.0004C97.2395 25.0004 93.4758 22.9973 93.4758 17.672Z" fill="black"/>
<path fill-rule="evenodd" clip-rule="evenodd" d="M118.65 25.0914C122.254 25.0914 125.177 21.9189 125.177 18.0054C125.177 14.092 122.254 10.9195 118.65 10.9195C117.181 10.9195 115.825 11.4466 114.734 12.3361V11.106H110.445V30.3127H114.734V23.6748C115.825 24.5643 117.181 25.0914 118.65 25.0914ZM114.734 18.0127V17.9981C114.738 16.2507 116.114 14.8354 117.811 14.8354C119.51 14.8354 120.888 16.2547 120.888 18.0054C120.888 19.7562 119.51 21.1755 117.811 21.1755C116.114 21.1755 114.738 19.7601 114.734 18.0127Z" fill="black"/>
</g>
<defs>
<linearGradient id="paint0_linear_120_208" x1="1.24561" y1="31.011" x2="25.3065" y2="31.011" gradientUnits="userSpaceOnUse">
<stop stop-color="#8930FD"/>
<stop offset="1" stop-color="#49CCF9"/>
</linearGradient>
<linearGradient id="paint1_linear_120_208" x1="1.77002" y1="17.0887" x2="24.8239" y2="17.0887" gradientUnits="userSpaceOnUse">
<stop stop-color="#FF02F0"/>
<stop offset="1" stop-color="#FFC800"/>
</linearGradient>
<clipPath id="clip0_120_208">
<rect width="124.594" height="30.271" fill="white" transform="translate(0.896729 0.180647)"/>
</clipPath>
</defs>
</svg>
