<svg width="122" height="29" viewBox="0 0 122 29" fill="none" xmlns="http://www.w3.org/2000/svg">
<g clip-path="url(#clip0_120_179)">
<path d="M34.4253 6.02855H40.2667C45.269 6.02855 48.4317 9.25584 48.4317 14.2904C48.4317 19.325 45.2851 22.5523 40.2667 22.5523H34.4253V6.02855ZM40.1376 19.5348C43.2842 19.5348 45.0108 17.5177 45.0108 14.3065C45.0108 11.0793 43.2842 9.0622 40.1376 9.0622H37.8462V19.5348H40.1376V19.5348Z" fill="#007EE5"/>
<path d="M57.2905 13.8225C56.8387 13.5481 56.2416 13.419 55.6123 13.419C54.4828 13.419 53.563 14.0161 53.3209 15.1134V22.5684H49.9968V10.5306H53.3371V11.7086C53.8534 10.8533 54.8378 10.2563 56.0319 10.2563C56.5966 10.2563 57.113 10.3693 57.2905 10.4661V13.8225Z" fill="#007EE5"/>
<path d="M63.955 22.8427C60.4534 22.8427 58.0491 20.2609 58.0491 16.5657C58.0491 12.8543 60.4534 10.2563 63.955 10.2563C67.4566 10.2563 69.8448 12.8381 69.8448 16.5657C69.8448 20.2609 67.4566 22.8427 63.955 22.8427ZM63.955 13.0963C62.2768 13.0963 61.3732 14.5486 61.3732 16.5657C61.3732 18.5504 62.293 20.0189 63.955 20.0189C65.6171 20.0189 66.5368 18.5666 66.5368 16.5657C66.5368 14.5486 65.6171 13.0963 63.955 13.0963Z" fill="#007EE5"/>
<path d="M74.6211 27.0221H71.2809V10.5306H74.6211V11.5311C75.1536 10.8856 76.3477 10.2724 77.6386 10.2724C81.1403 10.2724 83.125 13.177 83.125 16.5818C83.125 19.9704 81.1403 22.8589 77.6386 22.8589C76.3477 22.8589 75.1536 22.2457 74.6211 21.6002V27.0221V27.0221ZM74.6211 18.5343C75.0245 19.3734 75.912 19.9382 76.8802 19.9382C78.6875 19.9382 79.7687 18.4859 79.7687 16.5657C79.7687 14.6293 78.6875 13.177 76.8802 13.177C75.8798 13.177 75.0245 13.774 74.6211 14.5809V18.5343Z" fill="#007EE5"/>
<path d="M87.9337 22.5684H84.5612V5.06036H87.9337V11.5311C88.4662 10.8856 89.6603 10.2724 90.9512 10.2724C94.4528 10.2724 96.4214 13.1286 96.4214 16.5818C96.4214 20.035 94.4528 22.8589 90.9512 22.8589C89.6603 22.8589 88.4662 22.2457 87.9337 21.6002V22.5684ZM87.9337 18.5343C88.3048 19.3734 89.1923 19.9382 90.1928 19.9382C92.0001 19.9382 93.0812 18.4859 93.0812 16.5657C93.0812 14.6293 92.0001 13.177 90.1928 13.177C89.2246 13.177 88.3048 13.774 87.9337 14.5809V18.5343Z" fill="#007EE5"/>
<path d="M103.522 22.875C100.02 22.875 97.6156 20.2932 97.6156 16.5979C97.6156 12.8865 100.02 10.2886 103.522 10.2886C107.023 10.2886 109.411 12.8704 109.411 16.5979C109.411 20.2932 107.007 22.875 103.522 22.875ZM103.522 13.1286C101.843 13.1286 100.94 14.5809 100.94 16.5979C100.94 18.5827 101.859 20.0511 103.522 20.0511C105.184 20.0511 106.103 18.5988 106.103 16.5979C106.103 14.5809 105.184 13.1286 103.522 13.1286Z" fill="#007EE5"/>
<path d="M116.915 16.3559L121.304 22.5845H117.609L115.027 18.8086L112.413 22.5845H108.911L113.252 16.4366L109.169 10.5468H112.865L115.188 13.9677L117.544 10.5468H121.046L116.915 16.3559Z" fill="#007EE5"/>
<path d="M9.31693 0.364658L0.619385 5.96401L6.63828 10.8211L15.3842 5.41537L9.31693 0.364658Z" fill="#007EE5"/>
<path d="M0.619385 15.5652L9.31693 21.2775L15.3842 16.2268L6.63828 10.8211L0.619385 15.5652Z" fill="#007EE5"/>
<path d="M15.3843 16.2268L21.4516 21.2775L30.1169 15.6297L24.1141 10.8211L15.3843 16.2268Z" fill="#007EE5"/>
<path d="M30.1169 6.01242L21.4516 0.364658L15.3843 5.41537L24.1141 10.8211L30.1169 6.01242Z" fill="#007EE5"/>
<path d="M15.4004 17.3079L9.31699 22.3586L6.70288 20.6643V22.5684L15.4004 27.7805L24.0818 22.5684V20.6643L21.4839 22.3586L15.4004 17.3079Z" fill="#007EE5"/>
</g>
<defs>
<clipPath id="clip0_120_179">
<rect width="121.023" height="28.0774" fill="white" transform="translate(0.458008 0.0580654)"/>
</clipPath>
</defs>
</svg>
