<svg width="164" height="58" viewBox="0 0 164 58" fill="none" xmlns="http://www.w3.org/2000/svg">
<g clip-path="url(#clip0_120_127)">
<path d="M56.1841 30.2376C56.1893 27.9583 55.49 25.7331 54.1811 23.8669C52.8726 22.0007 51.0188 20.5847 48.8742 19.8131C49.0694 18.8183 49.1677 17.8069 49.168 16.7931C49.17 13.4375 48.1076 10.1677 46.134 7.45387C44.1604 4.74002 41.3772 2.72189 38.1842 1.68964C34.9915 0.65739 31.5534 0.664193 28.3646 1.70907C25.1759 2.75395 22.4005 4.78309 20.4377 7.5047C18.9896 6.38255 17.2152 5.76286 15.3833 5.73958C13.5514 5.7163 11.7619 6.29065 10.2857 7.37561C8.8095 8.46061 7.72715 9.99713 7.20252 11.7525C6.67793 13.5078 6.73967 15.3862 7.3784 17.1033C5.22861 17.8869 3.37038 19.31 2.05359 21.1812C0.736811 23.0525 0.0246777 25.2822 0.0129771 27.5703C0.00701185 29.8575 0.71021 32.0903 2.02575 33.9611C3.34129 35.8322 5.20449 37.2495 7.35881 38.0177C7.16811 39.0121 7.07082 40.0219 7.06824 41.0344C7.06504 44.386 8.12637 47.6521 10.0992 50.3619C12.072 53.0714 14.8543 55.0845 18.0451 56.111C21.2358 57.1371 24.67 57.1237 27.8526 56.0721C31.0351 55.0208 33.8015 52.9859 35.7529 50.2607C37.1969 51.3858 38.9681 52.009 40.7983 52.0365C42.6286 52.0639 44.4177 51.4935 45.8944 50.4122C47.3714 49.3306 48.4553 47.7971 48.9816 46.0442C49.5082 44.291 49.4488 42.4144 48.8122 40.6981C50.963 39.9158 52.8227 38.493 54.14 36.6216C55.4577 34.7502 56.1697 32.5198 56.1808 30.2311" fill="white"/>
<path d="M22.0962 25.0202L34.3882 30.6324L46.7945 19.7671C46.9731 18.8706 47.0619 17.9584 47.059 17.0442C47.0583 14.0847 46.1105 11.203 44.3541 8.82092C42.5979 6.43881 40.1255 4.68133 37.2981 3.80563C34.4711 2.92994 31.4381 2.982 28.6428 3.95421C25.8475 4.92642 23.4367 6.76771 21.7632 9.20868L19.6965 19.8977L22.0962 25.0202Z" fill="#FEC514"/>
<path d="M9.37316 38.037C9.19193 38.9476 9.10114 39.8738 9.10218 40.8023C9.10225 43.7743 10.0549 46.6679 11.8204 49.0584C13.5859 51.4492 16.0712 53.2109 18.9115 54.0852C21.7519 54.9595 24.7977 54.9004 27.602 53.9164C30.4063 52.9327 32.8214 51.0757 34.4926 48.6183L36.5397 37.9521L33.807 32.7285L21.4693 27.1064L9.37316 38.037Z" fill="#00BFB3"/>
<path d="M9.29806 16.7667L17.7213 18.755L19.5659 9.17604C18.4202 8.3073 17.024 7.83305 15.5862 7.8243C14.1484 7.81552 12.7465 8.27276 11.5903 9.12749C10.4341 9.98218 9.58591 11.1884 9.17269 12.5656C8.75946 13.9427 8.80344 15.4167 9.29806 16.7667Z" fill="#F04E98"/>
<path d="M8.56682 18.7713C6.71867 19.395 5.11081 20.5791 3.96689 22.1589C2.82294 23.7388 2.19979 25.6359 2.18408 27.5863C2.18276 29.4714 2.75521 31.3122 3.82536 32.864C4.89547 34.416 6.41259 35.6054 8.17504 36.274L19.9937 25.5915L17.8226 20.9555L8.56682 18.7713Z" fill="#1BA9F5"/>
<path d="M36.6539 48.6183C37.7979 49.4825 39.1907 49.9539 40.6243 49.9614C42.0579 49.9689 43.4555 49.5128 44.6083 48.6607C45.7615 47.8086 46.6077 46.6062 47.0214 45.2333C47.4347 43.8608 47.3929 42.391 46.9022 41.0439L38.4855 39.085L36.6539 48.6183Z" fill="#93C90E"/>
<path d="M38.3648 36.8682L47.6303 39.0328C49.4795 38.4108 51.0884 37.2273 52.2327 35.6468C53.3771 34.0667 53.9993 32.1687 54.013 30.2178C54.0114 28.3367 53.4378 26.5006 52.3686 24.9531C51.299 23.4055 49.7845 22.2197 48.0254 21.553L35.9064 32.1636L38.3648 36.8682Z" fill="#0077CC"/>
<path d="M78.5513 40.231L79.6744 40.1167L79.7528 42.4021C77.2536 42.7795 74.7318 42.9868 72.2045 43.0224C69.4187 43.0224 67.4444 42.216 66.2821 40.6032C65.1199 38.9903 64.5397 36.4807 64.542 33.0745C64.542 26.2902 67.2387 22.897 72.6322 22.8948C75.2441 22.8948 77.1922 23.624 78.4762 25.0822C79.7606 26.5405 80.4048 28.8259 80.409 31.9383L80.2556 34.1453H67.4836C67.4836 36.2871 67.8711 37.8738 68.6459 38.9054C69.4209 39.9371 70.768 40.453 72.6877 40.453C74.612 40.4595 76.5663 40.3854 78.5513 40.231ZM77.5066 31.8339C77.5066 29.4593 77.1269 27.7822 76.3672 26.8028C75.6074 25.8233 74.3691 25.3325 72.6518 25.3303C70.9345 25.3303 69.6439 25.8462 68.7797 26.8779C67.9159 27.9095 67.4705 29.5615 67.4444 31.8339H77.5066Z" fill="#1C1E23"/>
<path d="M84.4574 42.8689V17.4034H87.3598V42.8689H84.4574Z" fill="#1C1E23"/>
<path d="M105.64 29.1241V38.8859C105.64 39.8653 108.049 39.8131 108.049 39.8131L107.902 42.3792C105.862 42.3792 104.174 42.549 103.162 41.5663C100.97 42.5398 98.5957 43.0351 96.1977 43.0191C94.4193 43.0191 93.0644 42.5154 92.133 41.5075C91.2015 40.4997 90.7366 39.0514 90.7389 37.162C90.7389 35.2773 91.2165 33.8897 92.1721 32.9994C93.1278 32.1092 94.624 31.5651 96.6613 31.367L102.737 30.7891V29.1241C102.737 27.8181 102.454 26.8757 101.888 26.2967C101.578 26.0057 101.212 25.7804 100.813 25.6345C100.413 25.4887 99.9884 25.4252 99.5637 25.4479H91.9371V22.8915H99.3711C101.565 22.8915 103.158 23.3954 104.151 24.4031C105.143 25.4109 105.64 26.9845 105.64 29.1241ZM93.7131 37.0184C93.7131 39.3929 94.6926 40.5803 96.6515 40.5803C98.4187 40.5783 100.173 40.277 101.839 39.689L102.727 39.3789V32.9929L97.0106 33.5348C95.8483 33.6393 95.0093 33.9746 94.4934 34.5404C93.9776 35.1062 93.7174 35.9322 93.7131 37.0184Z" fill="#1C1E23"/>
<path d="M116.972 25.4871C114.157 25.4871 112.75 26.4665 112.75 28.4254C112.75 29.3309 113.077 29.9697 113.73 30.3418C114.383 30.714 115.853 31.1015 118.141 31.5041C120.439 31.9068 122.065 32.4683 123.018 33.1888C123.971 33.9093 124.449 35.2629 124.451 37.2502C124.451 39.2394 123.813 40.6978 122.535 41.625C121.257 42.5523 119.393 43.0168 116.942 43.0191C115.343 43.0191 110.001 42.4249 110.001 42.4249L110.158 39.911C113.227 40.2048 115.444 40.4236 116.942 40.4236C118.441 40.4236 119.58 40.1853 120.367 39.7086C121.154 39.2319 121.546 38.4321 121.546 37.309C121.546 36.1859 121.219 35.4252 120.54 35.0236C119.861 34.622 118.398 34.2433 116.129 33.8809C113.86 33.5185 112.244 32.9896 111.291 32.2942C110.338 31.5988 109.858 30.3059 109.858 28.4221C109.858 26.5383 110.511 25.1573 111.852 24.2432C113.194 23.329 114.84 22.8883 116.825 22.8883C118.398 22.8883 123.86 23.2898 123.86 23.2898V25.8201C120.978 25.6927 118.62 25.4871 116.972 25.4871Z" fill="#1C1E23"/>
<path d="M138.441 25.794H132.287V35.0464C132.287 37.2642 132.448 38.7216 132.77 39.418C133.097 40.1167 133.861 40.4628 135.072 40.4628L138.516 40.231L138.712 42.6306C137.408 42.8719 136.087 43.0145 134.762 43.0583C132.751 43.0583 131.357 42.5676 130.583 41.5859C129.808 40.6041 129.421 38.7334 129.424 35.9736V25.794H126.688V23.2801H129.437V17.3577H132.3V23.2801H138.441V25.794Z" fill="#1C1E23"/>
<path d="M142.477 20.8086V17.4393H145.379V20.8086H142.477ZM142.477 42.8689V23.2801H145.379V42.8689H142.477Z" fill="#1C1E23"/>
<path d="M157.952 22.8915C159.401 22.9534 160.845 23.1094 162.274 23.3584L163.202 23.4727L163.087 25.8331C161.57 25.641 160.045 25.5254 158.517 25.4871C156.323 25.4871 154.833 26.0094 154.047 27.0542C153.261 28.0989 152.867 30.0339 152.865 32.859C152.865 35.6886 153.233 37.656 153.969 38.7618C154.704 39.8676 156.239 40.4226 158.572 40.4269L163.143 40.0808L163.26 42.4804C161.481 42.7818 159.684 42.963 157.88 43.0224C154.863 43.0224 152.78 42.2476 151.631 40.6978C150.482 39.148 149.907 36.5362 149.907 32.8623C149.907 29.1861 150.527 26.6058 151.765 25.1214C153.003 23.637 155.066 22.8937 157.952 22.8915Z" fill="#1C1E23"/>
</g>
<defs>
<clipPath id="clip0_120_127">
<rect width="163.241" height="56.1548" fill="white" transform="translate(0.0129395 0.922579)"/>
</clipPath>
</defs>
</svg>
