<svg width="108" height="36" viewBox="0 0 108 36" fill="none" xmlns="http://www.w3.org/2000/svg">
<path d="M14.0855 16.242V12.4719H26.5613C26.7044 13.2404 26.7733 14.0209 26.767 14.8025C26.767 17.5445 26.013 21.0404 23.5452 23.4396C21.146 25.9759 18.1299 27.2783 14.017 27.2783C6.54522 27.2783 0.23877 21.1775 0.23877 13.7058C0.23877 6.23398 6.54522 0.0646286 14.017 0.0646286C18.1984 0.0646286 21.146 1.70979 23.4081 3.83479L20.7347 6.43963C19.3422 5.11064 17.5869 4.22437 15.6907 3.89287C13.7945 3.56138 11.8426 3.79953 10.0818 4.57724C8.32093 5.35495 6.83021 6.63728 5.79807 8.26211C4.76594 9.88695 4.23874 11.7813 4.28312 13.7058C4.28312 19.1896 8.60167 23.5767 14.017 23.5767C17.5815 23.5767 19.638 22.1372 20.9404 20.8348C21.9686 19.8066 22.6541 18.2985 22.9283 16.242H14.0855Z" fill="#4285F4"/>
<path d="M45.7546 18.5043C45.7546 23.5769 41.7788 27.2785 36.9119 27.2785C32.045 27.2785 28.1377 23.5769 28.1377 18.5043C28.1377 13.4317 32.1135 9.73009 36.9119 9.73009C41.7103 9.73009 45.7546 13.4317 45.7546 18.5043ZM41.8474 18.5043C41.8474 15.3511 39.5853 13.2261 36.9119 13.2261C34.2385 13.2261 31.9764 15.3511 31.9764 18.5043C31.9764 21.6575 34.3071 23.8511 36.9119 23.8511C39.5167 23.8511 41.8474 21.6575 41.8474 18.5043Z" fill="#EA4335"/>
<path d="M64.9481 18.5043C64.9481 23.5769 60.9723 27.2785 56.1054 27.2785C51.2384 27.2785 47.3312 23.5769 47.3312 18.5043C47.3312 13.4317 51.307 9.73009 56.1054 9.73009C60.9038 9.73009 64.9481 13.4317 64.9481 18.5043ZM61.0409 18.5043C61.0409 15.3511 58.7788 13.2261 56.1054 13.2261C53.432 13.2261 51.1699 15.3511 51.1699 18.5043C51.1699 21.6575 53.5005 23.8511 56.1054 23.8511C58.7102 23.8511 61.0409 21.6575 61.0409 18.5043Z" fill="#FBBC04"/>
<path d="M83.319 10.2785V26.0446C83.319 32.4882 79.4803 35.1615 74.9561 35.1615C70.7061 35.1615 68.1698 32.2825 67.2101 29.9519L70.569 28.5809C71.1859 30.0204 72.6255 31.7341 74.9561 31.7341C77.9037 31.7341 79.6859 29.8833 79.6859 26.593V25.2906H79.5489C78.9655 25.9439 78.2455 26.4607 77.4399 26.8043C76.6342 27.1478 75.7628 27.3097 74.8876 27.2785C70.569 27.2785 66.5247 23.4398 66.5247 18.5728C66.5247 13.6374 70.569 9.73009 74.8876 9.73009C77.0126 9.73009 78.6577 10.6898 79.5489 11.718H79.6859V10.2785H83.319ZM79.9601 18.5728C79.9601 15.4882 77.9037 13.2261 75.2303 13.2261C72.6255 13.2261 70.3634 15.4882 70.3634 18.5728C70.3634 21.589 72.6255 23.8511 75.2303 23.8511C77.9037 23.8511 79.9601 21.589 79.9601 18.5728Z" fill="#4285F4"/>
<path d="M85.9924 1.09308H89.8311V26.7987H85.9924V1.09308Z" fill="#34A853"/>
<path d="M104.706 21.3833L107.722 23.4398C106.763 24.8107 104.432 27.2785 100.388 27.2785C95.3835 27.2785 91.6819 23.4398 91.6819 18.5043C91.6819 13.2946 95.452 9.73009 99.9762 9.73009C104.5 9.73009 106.763 13.3632 107.448 15.3511L107.859 16.3107L96.1375 21.1777C97.0287 22.9599 98.3996 23.8511 100.388 23.8511C102.375 23.8511 103.678 22.8914 104.706 21.3833ZM95.5206 18.2301L103.335 15.0083C102.924 13.9115 101.621 13.1575 100.113 13.1575C98.1254 13.1575 95.3835 14.8712 95.5206 18.2301Z" fill="#EA4335"/>
</svg>
