<svg width="122" height="41" viewBox="0 0 122 41" fill="none" xmlns="http://www.w3.org/2000/svg">
<path d="M107.487 31.9183C107.487 31.6156 107.235 31.4642 106.932 31.4642H106.428V32.9778H106.68V32.3723H106.882L107.235 32.9778H107.537L107.134 32.3219C107.336 32.2714 107.487 32.1201 107.487 31.9183ZM106.629 32.1201V31.7165H106.882C107.033 31.7165 107.184 31.7669 107.184 31.9183C107.184 32.1201 106.983 32.1201 106.831 32.1201H106.629ZM106.882 30.9092C106.125 30.9092 105.519 31.5147 105.519 32.2714C105.519 33.0282 106.125 33.5832 106.882 33.5832C107.638 33.5832 108.244 32.9778 108.244 32.2714C108.244 31.5147 107.638 30.9092 106.882 30.9092ZM106.882 33.3814C106.276 33.3814 105.772 32.8769 105.772 32.2714C105.772 31.666 106.276 31.1615 106.882 31.1615C107.487 31.1615 107.992 31.666 107.992 32.2714C108.042 32.8769 107.537 33.3814 106.882 33.3814Z" fill="#0077C5"/>
<path d="M15.4634 15.2188H20.004V33.3814H15.4634V15.2188ZM34.635 14.6638C31.9611 14.6638 29.7916 16.2783 28.9844 18.0945H28.8835V15.1683H24.5951V33.3309H29.1358V23.392C29.1358 20.9703 30.498 18.4477 33.3737 18.4477C36.2999 18.4477 36.8044 21.1216 36.8044 23.2911V33.3814H41.3451V22.0298C41.3451 18.3468 39.3774 14.6638 34.635 14.6638ZM73.735 25.2082C73.735 27.6299 72.3728 30.1525 69.4971 30.1525C66.5709 30.1525 66.0664 27.4785 66.0664 25.3091V15.2188H61.5257V26.5704C61.5257 30.2534 63.4933 33.8859 68.2358 33.8859C70.9097 33.8859 73.0791 32.2714 73.8864 30.4552H73.9873V33.3814H78.2756V15.2188H73.735C73.735 15.2188 73.735 25.2082 73.735 25.2082ZM82.9172 33.3814H87.4578V15.2188H82.9172V33.3814ZM43.6658 19.2045H48.7614V33.3814H53.3021V19.2045H58.3977V15.1683H43.6658V19.2045ZM51.0318 12.8476C52.5453 12.8476 53.7562 11.6367 53.7562 10.1232C53.7562 8.60963 52.5453 7.3988 51.0318 7.3988C49.5182 7.3988 48.3074 8.60963 48.3074 10.1232C48.3074 11.6367 49.5182 12.8476 51.0318 12.8476ZM90.6363 15.2188V19.2549H95.7319V33.4318H100.273V19.2045H105.368V15.1683H90.6363V15.2188ZM98.0022 12.8476C99.5158 12.8476 100.727 11.6367 100.727 10.1232C100.727 8.60963 99.5158 7.3988 98.0022 7.3988C96.4887 7.3988 95.2778 8.60963 95.2778 10.1232C95.2778 11.5863 96.4887 12.8476 98.0022 12.8476Z" fill="#0077C5"/>
</svg>
