<svg width="110" height="19" viewBox="0 0 110 19" fill="none" xmlns="http://www.w3.org/2000/svg">
<path d="M8.32814 5.54386H10.0742C11.1656 5.54386 12.3005 5.76212 12.3005 7.02805C12.3005 8.11937 11.6021 8.90512 9.55042 8.90512H7.6297L8.32814 5.54386ZM0.645264 17.8976H5.70898L6.75664 12.8775H10.2052C14.5705 12.8775 17.4079 9.99643 17.4079 6.63518C17.4079 2.96835 15.4435 1.26589 12.3878 1.26589H4.13748L0.645264 17.8976Z" fill="#004B8D"/>
<path d="M23.6502 6.9844L24.2613 11.9608H21.0747L23.6502 6.9844ZM12.6934 17.8976H17.9317L19.1976 15.5403H24.6105L24.8725 17.8976H29.8925L27.3607 1.26589H22.297L12.6934 17.8976Z" fill="#004B8D"/>
<path d="M32.0316 11.7862L28.452 1.26589H33.603L35.1745 7.46458L39.2342 1.26589H45.2583L37.1389 11.7425L35.873 17.8976H30.7656L32.0316 11.7862Z" fill="#004B8D"/>
<path d="M57.4811 11.5679C57.1755 13.2703 55.8659 18.2904 48.9252 18.2904C44.0797 18.2904 41.7661 15.1474 41.7661 10.6948C41.7661 5.32554 45.1274 0.829315 50.8022 0.829315C54.5127 0.829315 57.8303 2.44447 57.9176 7.42087H53.0722C53.1158 5.84938 52.3737 4.97632 50.8022 4.97632C47.9648 4.97632 46.9171 8.25028 46.9171 10.6075C46.9171 12.0044 47.2664 14.0997 49.6236 14.0997C51.2388 14.0997 52.1555 13.0084 52.461 11.5242L57.4811 11.5679Z" fill="#004B8D"/>
<path d="M60.4495 1.26589H65.6006L64.3783 7.02805H69.0491L70.2714 1.26589H75.4224L71.9302 17.8976H66.8228L68.1761 11.306H63.5052L62.1083 17.8976H57.001L60.4495 1.26589Z" fill="#004B8D"/>
<path d="M76.7757 1.26589H90.5263L89.6532 5.54386H81.01L80.5735 7.59554H88.6056L87.7762 11.5679H79.744L79.3075 13.6196H88.1254L87.2523 17.8976H73.2834L76.7757 1.26589Z" fill="#004B8D"/>
<path d="M94.062 9.07973L90.2206 1.26589H95.8081L97.4233 5.58751L100.741 1.26589H106.809L99.8678 9.07973L103.928 17.8976H98.1654L96.332 13.2704L92.4469 17.8976H86.1609L94.062 9.07973Z" fill="#004B8D"/>
<path d="M107.464 2.00795C107.464 1.39681 107.9 0.91663 108.511 0.91663C109.079 0.91663 109.559 1.39681 109.559 2.00795C109.559 2.61909 109.122 3.09927 108.511 3.09927C107.944 3.09927 107.464 2.61909 107.464 2.00795ZM107.245 2.00795C107.245 2.75004 107.813 3.27388 108.511 3.27388C109.21 3.27388 109.777 2.75004 109.777 2.00795C109.777 1.3095 109.21 0.74202 108.511 0.74202C107.813 0.74202 107.245 1.3095 107.245 2.00795ZM108.031 2.75004H108.249V2.13891H108.468L108.86 2.7937H109.122L108.686 2.13891C108.904 2.13891 109.079 2.00795 109.079 1.74603C109.079 1.44046 108.904 1.3095 108.555 1.3095H108.031V2.75004ZM108.249 1.48412H108.555C108.729 1.48412 108.86 1.52777 108.86 1.70238C108.86 1.92064 108.686 1.9643 108.468 1.9643H108.249V1.48412V1.48412Z" fill="#004B8D"/>
</svg>
