<svg width="191" height="30" viewBox="0 0 191 30" fill="none" xmlns="http://www.w3.org/2000/svg">
<path fill-rule="evenodd" clip-rule="evenodd" d="M47.1231 9.64367C45.1902 9.63784 43.3165 10.3106 41.8288 11.5445V9.83503H36.9937V28.6651H42.0201V16.6348C42.5607 15.9314 43.2509 15.357 44.0409 14.9532C44.8308 14.5495 45.7006 14.3264 46.5873 14.3002C47.2731 14.2627 47.9593 14.367 48.603 14.6063V9.77125C48.1146 9.68392 47.6193 9.64121 47.1231 9.64367" fill="#293E40"/>
<path fill-rule="evenodd" clip-rule="evenodd" d="M3.28825 22.9243C4.71602 24.1281 6.52371 24.7879 8.39126 24.7869C9.74356 24.7869 10.7897 24.1235 10.7897 23.1922C10.828 20.36 1.74459 21.4061 1.74459 15.308C1.74459 11.6976 5.2274 9.45232 8.93984 9.45232C11.206 9.44978 13.4235 10.1106 15.3186 11.3532L12.9202 15.0274C11.8793 14.2449 10.6239 13.7997 9.32256 13.7516C7.93199 13.7516 6.77106 14.3002 6.77106 15.2698C6.77106 17.7192 15.8544 16.7496 15.8544 23.2687C15.8544 26.8408 12.3333 29.0606 8.39126 29.0606C5.67322 29.0186 3.03659 28.1263 0.851562 26.5091L3.28825 22.9243Z" fill="#293E40"/>
<path fill-rule="evenodd" clip-rule="evenodd" d="M34.8504 19.0715C34.8504 13.8281 31.1762 9.45232 25.9839 9.45232C20.4216 9.45232 16.8622 14.0323 16.8622 19.2629C16.804 20.5672 17.0185 21.8693 17.4919 23.0861C17.9653 24.3029 18.6873 25.4076 19.6117 26.3296C20.5361 27.2516 21.6427 27.9707 22.8607 28.441C24.0787 28.9112 25.3814 29.1223 26.6855 29.0606C28.1269 29.0716 29.5543 28.7772 30.8736 28.1966C32.1929 27.6161 33.3744 26.7627 34.3401 25.6927L31.4696 22.7967C30.8698 23.4589 30.1427 23.9934 29.3317 24.3682C28.5206 24.7431 27.6424 24.9505 26.7493 24.9782C25.4887 25.0294 24.2564 24.5947 23.3069 23.7639C22.3574 22.933 21.763 21.7694 21.6463 20.5131H34.7228C34.8066 20.0371 34.8493 19.5548 34.8504 19.0715ZM21.9653 16.8262C22.1463 15.894 22.6466 15.0541 23.3801 14.451C24.1135 13.8479 25.0343 13.5194 25.9839 13.522C26.9001 13.522 27.7844 13.8586 28.4688 14.4677C29.1532 15.0769 29.59 15.9161 29.6963 16.8262H21.9653Z" fill="#293E40"/>
<path fill-rule="evenodd" clip-rule="evenodd" d="M60.5824 21.3295L65.7237 9.83499H70.9543L62.3174 28.6651H58.8474L50.2233 9.83499H55.4411L60.5824 21.3295Z" fill="#293E40"/>
<path fill-rule="evenodd" clip-rule="evenodd" d="M75.1642 0.994025C75.8003 1.00408 76.4192 1.2019 76.9433 1.56262C77.4673 1.92333 77.873 2.43087 78.1095 3.02146C78.346 3.61205 78.4027 4.25936 78.2724 4.88206C78.1422 5.50477 77.8308 6.0751 77.3775 6.5214C76.9241 6.96771 76.349 7.27008 75.7243 7.39054C75.0996 7.511 74.4533 7.44417 73.8665 7.19845C73.2797 6.95273 72.7786 6.53908 72.4261 6.00945C72.0737 5.47983 71.8856 4.85786 71.8855 4.22168C71.8854 3.79349 71.9706 3.36957 72.136 2.97461C72.3014 2.57965 72.5437 2.22154 72.8488 1.92115C73.154 1.62076 73.5158 1.38408 73.9133 1.22491C74.3108 1.06574 74.736 0.987255 75.1642 0.994025" fill="#293E40"/>
<path d="M77.6775 9.83499H72.651V28.6651H77.6775V9.83499Z" fill="#293E40"/>
<path fill-rule="evenodd" clip-rule="evenodd" d="M98.4722 24.8251C97.5206 26.1858 96.2432 27.2863 94.7568 28.0261C93.2703 28.766 91.6222 29.1217 89.9629 29.0606C87.3644 29.0606 84.8723 28.0284 83.0349 26.1909C81.1974 24.3535 80.1652 21.8614 80.1652 19.2628C80.1652 16.6643 81.1974 14.1722 83.0349 12.3348C84.8723 10.4973 87.3644 9.46506 89.9629 9.46506C91.4837 9.45978 92.9856 9.80181 94.3542 10.4651C95.7227 11.1283 96.9218 12.0953 97.8599 13.2923L94.3388 16.3031C93.8404 15.6171 93.1888 15.0569 92.4357 14.6671C91.6827 14.2773 90.8491 14.0686 90.0012 14.0578C89.3257 14.0577 88.6569 14.1918 88.0335 14.4522C87.4102 14.7127 86.8448 15.0943 86.3701 15.5749C85.8954 16.0555 85.5209 16.6256 85.2682 17.2521C85.0155 17.8786 84.8898 18.5491 84.8982 19.2246C84.8782 19.9066 84.9992 20.5855 85.2534 21.2188C85.5076 21.852 85.8897 22.426 86.3758 22.9049C86.8619 23.3838 87.4415 23.7573 88.0785 24.0021C88.7155 24.2469 89.3961 24.3577 90.0778 24.3276C90.9724 24.3106 91.8493 24.075 92.632 23.6414C93.4148 23.2078 94.0796 22.5893 94.5684 21.8399L98.4722 24.8251Z" fill="#293E40"/>
<path fill-rule="evenodd" clip-rule="evenodd" d="M116.728 25.6799C115.763 26.75 114.581 27.6034 113.262 28.1839C111.942 28.7644 110.515 29.0589 109.074 29.0479C107.771 29.1074 106.47 28.8953 105.254 28.4252C104.038 27.955 102.933 27.237 102.009 26.3168C101.085 25.3966 100.363 24.2943 99.888 23.0799C99.4131 21.8655 99.1959 20.5656 99.2504 19.2629C99.2504 14.0323 102.81 9.45232 108.385 9.45232C113.564 9.45232 117.239 13.8281 117.239 19.0715C117.241 19.5544 117.203 20.0367 117.124 20.5131H104.085C104.202 21.7694 104.797 22.933 105.746 23.7639C106.696 24.5947 107.928 25.0294 109.189 24.9782C110.082 24.9505 110.96 24.7431 111.771 24.3682C112.582 23.9934 113.309 23.4589 113.909 22.7967L116.728 25.6799ZM112.059 16.8262C111.935 15.9237 111.493 15.0952 110.812 14.4895C110.132 13.8838 109.257 13.5408 108.347 13.522C107.395 13.5164 106.471 13.8436 105.735 14.4469C104.999 15.0503 104.497 15.8918 104.315 16.8262H112.059Z" fill="#293E40"/>
<path fill-rule="evenodd" clip-rule="evenodd" d="M119.19 28.6651V9.83498H124.026V11.3531C125.516 10.1154 127.395 9.44234 129.333 9.45226C130.571 9.44869 131.794 9.71774 132.916 10.2403C134.039 10.7628 135.032 11.5261 135.826 12.4758C137.102 13.9557 137.765 15.8565 137.765 19.0714V28.6651H132.726V18.6887C132.796 18.0549 132.733 17.4136 132.542 16.8053C132.351 16.197 132.036 15.635 131.616 15.1549C130.848 14.4454 129.829 14.0692 128.784 14.1088C127.9 14.1344 127.033 14.356 126.246 14.7576C125.458 15.1591 124.77 15.7306 124.23 16.4306V28.6651H119.19Z" fill="#293E40"/>
<path fill-rule="evenodd" clip-rule="evenodd" d="M150.701 9.45232C148.497 9.44975 146.342 10.1092 144.516 11.3452C142.691 12.5813 141.278 14.337 140.462 16.385C139.645 18.433 139.462 20.679 139.937 22.832C140.412 24.9851 141.522 26.9461 143.123 28.461C143.5 28.8199 143.992 29.0326 144.511 29.0607C145.031 29.0887 145.543 28.9304 145.956 28.6141C147.31 27.6046 148.955 27.0593 150.644 27.0593C152.333 27.0593 153.978 27.6046 155.332 28.6141C155.749 28.9296 156.264 29.0863 156.785 29.0559C157.307 29.0255 157.801 28.81 158.177 28.4483C159.769 26.9385 160.872 24.9879 161.348 22.8466C161.823 20.7052 161.647 18.4707 160.844 16.4297C160.041 14.3886 158.646 12.634 156.839 11.3909C155.032 10.1477 152.895 9.47268 150.701 9.45232V9.45232ZM150.701 25.9478C149.977 25.9671 149.257 25.8388 148.584 25.5706C147.912 25.3024 147.301 24.8999 146.788 24.3878C146.276 23.8757 145.874 23.2646 145.606 22.5919C145.338 21.9191 145.209 21.1988 145.228 20.4748C145.193 19.733 145.308 18.9917 145.567 18.2957C145.826 17.5998 146.224 16.9637 146.736 16.426C147.249 15.8884 147.865 15.4603 148.548 15.1679C149.23 14.8754 149.965 14.7246 150.708 14.7246C151.45 14.7246 152.185 14.8754 152.868 15.1679C153.551 15.4603 154.167 15.8884 154.679 16.426C155.192 16.9637 155.589 17.5998 155.849 18.2957C156.108 18.9917 156.223 19.733 156.187 20.4748C156.207 21.1999 156.078 21.9213 155.809 22.595C155.54 23.2686 155.136 23.8803 154.623 24.3926C154.109 24.9049 153.497 25.307 152.822 25.5744C152.148 25.8418 151.426 25.9689 150.701 25.9478" fill="#81B5A1"/>
<path fill-rule="evenodd" clip-rule="evenodd" d="M171.56 28.6651H167.809L160.346 9.83499H165.36L169.455 20.6023L173.474 9.83499H177.671L181.651 20.6023L185.772 9.83499H190.798L183.323 28.6651H179.585L175.566 17.9488L171.56 28.6651Z" fill="#293E40"/>
<path d="M188.043 26.2794V26.6877H187.405V28.6651H186.946V26.6877H186.308V26.2794H188.043Z" fill="#293E40"/>
<path d="M189.599 27.7083L190.467 26.2794H190.798V28.6651H190.339V27.3255L189.765 28.2696H189.433L188.872 27.3255V28.6651H188.4V26.2794H188.732L189.599 27.7083Z" fill="#293E40"/>
</svg>
