<svg width="100" height="30" viewBox="0 0 100 30" fill="none" xmlns="http://www.w3.org/2000/svg">
<path d="M21.6529 6.25906C21.6332 6.12105 21.5149 6.04218 21.4163 6.04218C21.3177 6.04218 19.3658 6.00275 19.3658 6.00275C19.3658 6.00275 17.7293 4.42543 17.5716 4.24798C17.4139 4.09025 17.0984 4.12968 16.9801 4.16911C16.9801 4.16911 16.6646 4.2677 16.152 4.42543C16.0732 4.1494 15.9351 3.81422 15.7577 3.45932C15.1859 2.3552 14.3184 1.7637 13.2931 1.7637C13.2143 1.7637 13.1551 1.7637 13.0763 1.78342C13.0368 1.74399 13.0171 1.70455 12.9777 1.68484C12.5242 1.21164 11.9524 0.975044 11.2623 0.99476C9.94133 1.03419 8.62032 2.0003 7.53592 3.69592C6.78669 4.89862 6.21491 6.39708 6.03747 7.56035C4.5193 8.03354 3.45461 8.36872 3.41517 8.36872C2.64623 8.60532 2.62651 8.62504 2.52793 9.35455C2.4885 9.90661 0.477417 25.4629 0.477417 25.4629L17.3547 28.381L24.6695 26.567C24.6498 26.567 21.6726 6.39708 21.6529 6.25906ZM15.3042 4.70146C14.9099 4.81976 14.4761 4.95777 14.0029 5.11551C14.0029 4.44515 13.9043 3.49875 13.6086 2.71009C14.6141 2.86783 15.107 4.01138 15.3042 4.70146ZM13.1157 5.37182C12.2284 5.64785 11.2623 5.9436 10.2962 6.23935C10.5723 5.19437 11.0849 4.16911 11.7158 3.47904C11.9524 3.22272 12.2876 2.94669 12.6622 2.78896C13.0565 3.5579 13.1354 4.64231 13.1157 5.37182ZM11.3018 1.882C11.6172 1.882 11.8735 1.94115 12.0904 2.09888C11.7355 2.27633 11.3806 2.55236 11.0652 2.90726C10.2174 3.81422 9.56672 5.21409 9.3104 6.57453C8.50203 6.83084 7.71337 7.06744 7.00357 7.28432C7.47677 5.13522 9.27097 1.94115 11.3018 1.882Z" fill="#95BF47"/>
<path d="M21.4163 6.04214C21.3177 6.04214 19.3658 6.0027 19.3658 6.0027C19.3658 6.0027 17.7293 4.42538 17.5716 4.24794C17.5125 4.18879 17.4336 4.14935 17.3547 4.14935V28.3809L24.6696 26.567C24.6696 26.567 21.6924 6.39703 21.6726 6.25902C21.6332 6.121 21.5149 6.04214 21.4163 6.04214Z" fill="#5E8E3E"/>
<path d="M13.2931 9.80806L12.4453 12.9824C12.4453 12.9824 11.4989 12.5487 10.3751 12.6275C8.71891 12.7261 8.71891 13.7711 8.71891 14.0274C8.81749 15.447 12.5439 15.7624 12.7608 19.0945C12.9185 21.7168 11.3806 23.511 9.13296 23.649C6.45151 23.787 4.97278 22.2097 4.97278 22.2097L5.54456 19.7846C5.54456 19.7846 7.04301 20.9084 8.226 20.8296C8.99494 20.7901 9.29069 20.1395 9.25126 19.7057C9.13296 17.8524 6.09662 17.9707 5.89945 14.9146C5.74172 12.3515 7.41762 9.76863 11.1243 9.53203C12.5636 9.43345 13.2931 9.80806 13.2931 9.80806Z" fill="white"/>
<path d="M34.5672 16.5708C33.7194 16.1173 33.2857 15.723 33.2857 15.1906C33.2857 14.5203 33.8969 14.0865 34.8433 14.0865C35.9474 14.0865 36.9332 14.54 36.9332 14.54L37.7022 12.174C37.7022 12.174 36.9924 11.6219 34.9024 11.6219C31.9844 11.6219 29.9536 13.2978 29.9536 15.6441C29.9536 16.9848 30.9 17.9904 32.1618 18.7199C33.1871 19.2916 33.542 19.7057 33.542 20.3169C33.542 20.9478 33.0294 21.4605 32.083 21.4605C30.6831 21.4605 29.3424 20.7309 29.3424 20.7309L28.5143 23.0969C28.5143 23.0969 29.7367 23.925 31.8069 23.925C34.8038 23.925 36.9727 22.4463 36.9727 19.7846C36.9529 18.3453 35.8685 17.32 34.5672 16.5708Z" fill="black"/>
<path d="M46.5154 11.5825C45.0366 11.5825 43.8734 12.2923 42.9861 13.357L42.9467 13.3373L44.2282 6.63367H40.8962L37.6429 23.7081H40.975L42.0792 17.8721C42.5129 15.6638 43.6565 14.3034 44.7212 14.3034C45.4704 14.3034 45.7661 14.816 45.7661 15.5455C45.7661 15.999 45.7267 16.5708 45.6281 17.0243L44.3663 23.7081H47.6984L48.9996 16.8074C49.1377 16.0779 49.2362 15.2103 49.2362 14.6188C49.256 12.7261 48.2701 11.5825 46.5154 11.5825Z" fill="black"/>
<path d="M56.8075 11.5825C52.7854 11.5825 50.1237 15.2104 50.1237 19.2522C50.1237 21.8351 51.7207 23.925 54.7176 23.925C58.6609 23.925 61.3226 20.3958 61.3226 16.2553C61.3423 13.8696 59.9425 11.5825 56.8075 11.5825ZM55.1711 21.3816C54.0275 21.3816 53.5543 20.4155 53.5543 19.1931C53.5543 17.2806 54.5401 14.1654 56.3541 14.1654C57.5371 14.1654 57.9314 15.1906 57.9314 16.1765C57.9314 18.227 56.9258 21.3816 55.1711 21.3816Z" fill="black"/>
<path d="M69.8795 11.5825C67.6318 11.5825 66.3502 13.5739 66.3502 13.5739H66.3108L66.508 11.7797H63.5505C63.4125 12.9824 63.1364 14.8357 62.8801 16.2159L60.5536 28.4401H63.8857L64.8123 23.4913H64.8912C64.8912 23.4913 65.5813 23.925 66.8431 23.925C70.7667 23.925 73.3299 19.9029 73.3299 15.8413C73.3299 13.5936 72.3243 11.5825 69.8795 11.5825ZM66.6854 21.421C65.8179 21.421 65.3053 20.9281 65.3053 20.9281L65.8573 17.8129C66.2517 15.723 67.3361 14.3428 68.4993 14.3428C69.5246 14.3428 69.84 15.2892 69.84 16.1765C69.84 18.3453 68.5585 21.421 66.6854 21.421Z" fill="black"/>
<path d="M78.1012 6.79141C77.0365 6.79141 76.1887 7.63922 76.1887 8.72363C76.1887 9.70945 76.8196 10.3995 77.766 10.3995H77.8055C78.8504 10.3995 79.7377 9.68974 79.7574 8.46731C79.7574 7.50121 79.1068 6.79141 78.1012 6.79141Z" fill="black"/>
<path d="M73.4283 23.6884H76.7604L79.0278 11.8585H75.676L73.4283 23.6884Z" fill="black"/>
<path d="M87.5258 11.8388H85.1992L85.3175 11.2867C85.5147 10.1431 86.185 9.13759 87.3089 9.13759C87.9004 9.13759 88.3736 9.31504 88.3736 9.31504L89.0242 6.69275C89.0242 6.69275 88.4524 6.397 87.2103 6.397C86.0273 6.397 84.8443 6.73218 83.9374 7.50113C82.7938 8.46723 82.2615 9.8671 82.0051 11.2867L81.9066 11.8388H80.349L79.856 14.3625H81.4136L79.6392 23.7081H82.9712L84.7457 14.3625H87.0526L87.5258 11.8388Z" fill="black"/>
<path d="M95.57 11.8585C95.57 11.8585 93.4801 17.1228 92.5534 20.0014H92.514C92.4548 19.0748 91.6859 11.8585 91.6859 11.8585H88.1763L90.1874 22.7223C90.2269 22.9589 90.2071 23.1166 90.1086 23.2744C89.7142 24.0236 89.0636 24.7531 88.2946 25.2854C87.6637 25.7389 86.9539 26.0347 86.4019 26.2318L87.3285 29.071C87.9989 28.933 89.4185 28.3612 90.6015 27.2571C92.1196 25.8375 93.5392 23.6293 94.9785 20.6324L99.0598 11.8585H95.57Z" fill="black"/>
</svg>
