<svg width="180" height="40" viewBox="0 0 180 40" fill="none" xmlns="http://www.w3.org/2000/svg">
<g clip-path="url(#clip0_120_194)">
<path d="M34.628 13.6196H14.569C14.1863 13.6196 13.8761 13.9298 13.8761 14.3124V16.6478C13.8761 17.0305 14.1863 17.3407 14.569 17.3407H34.628C35.0107 17.3407 35.3209 17.0305 35.3209 16.6478V14.3124C35.3209 13.9298 35.0107 13.6196 34.628 13.6196Z" fill="#52BD94"/>
<path d="M21.3595 22.9175H1.30041C0.917749 22.9175 0.607544 23.2277 0.607544 23.6104V25.9457C0.607544 26.3284 0.917749 26.6386 1.30041 26.6386H21.3595C21.7421 26.6386 22.0523 26.3284 22.0523 25.9457V23.6104C22.0523 23.2277 21.7421 22.9175 21.3595 22.9175Z" fill="#52BD94"/>
<path fill-rule="evenodd" clip-rule="evenodd" d="M3.18032 16.1657C3.35629 16.2112 3.54306 16.1859 3.70064 16.0954C3.85821 16.0048 3.97406 15.8561 4.02338 15.6812C5.13411 12.2045 7.50368 9.26812 10.6674 7.44807C13.831 5.62802 17.5606 5.0556 21.1245 5.84306C21.2969 5.8786 21.4765 5.84666 21.6261 5.75382C21.7757 5.66098 21.884 5.51431 21.9288 5.34401L22.5344 3.08373C22.5581 2.99299 22.5632 2.89839 22.5494 2.80564C22.5356 2.71288 22.5031 2.62388 22.454 2.54399C22.4049 2.4641 22.3401 2.39497 22.2636 2.34076C22.1871 2.28655 22.1004 2.24838 22.0087 2.22855C17.505 1.2148 12.7847 1.93546 8.7887 4.24687C4.79267 6.55828 1.81443 10.2907 0.447634 14.7001C0.4219 14.7885 0.414059 14.8812 0.424569 14.9727C0.435079 15.0642 0.463729 15.1527 0.508843 15.233C0.553958 15.3133 0.614631 15.3838 0.687315 15.4404C0.759999 15.497 0.843234 15.5385 0.932153 15.5625L3.18032 16.1657Z" fill="#52BD94"/>
<path fill-rule="evenodd" clip-rule="evenodd" d="M32.7529 24.0828C32.5756 24.0351 32.3866 24.0592 32.227 24.1499C32.0674 24.2406 31.9499 24.3906 31.9001 24.5673C30.7918 28.0463 28.4232 30.9854 25.2593 32.8079C22.0953 34.6303 18.3645 35.2044 14.799 34.4176C14.6265 34.3814 14.4467 34.4131 14.2969 34.506C14.1472 34.5989 14.0389 34.746 13.9947 34.9166L13.4012 37.1648C13.3771 37.2557 13.3718 37.3505 13.3854 37.4435C13.399 37.5366 13.4314 37.6259 13.4806 37.706C13.5297 37.7862 13.5946 37.8556 13.6713 37.91C13.748 37.9643 13.835 38.0026 13.9269 38.0224C18.4308 39.0337 23.1503 38.3117 27.1458 36.0001C31.1413 33.6885 34.1197 29.957 35.488 25.5484C35.514 25.4602 35.5221 25.3675 35.5117 25.2761C35.5013 25.1846 35.4727 25.0962 35.4275 25.016C35.3824 24.9358 35.3215 24.8655 35.2487 24.8092C35.1759 24.753 35.0925 24.7119 35.0035 24.6884L32.7529 24.0828Z" fill="#52BD94"/>
<path d="M28.5667 9.53509C29.6932 9.53509 30.6065 8.62183 30.6065 7.49527C30.6065 6.3687 29.6932 5.45544 28.5667 5.45544C27.4401 5.45544 26.5269 6.3687 26.5269 7.49527C26.5269 8.62183 27.4401 9.53509 28.5667 9.53509Z" fill="#52BD94"/>
<path d="M7.36661 34.8003C8.49317 34.8003 9.40643 33.8871 9.40643 32.7605C9.40643 31.6339 8.49317 30.7207 7.36661 30.7207C6.24004 30.7207 5.32678 31.6339 5.32678 32.7605C5.32678 33.8871 6.24004 34.8003 7.36661 34.8003Z" fill="#52BD94"/>
<path fill-rule="evenodd" clip-rule="evenodd" d="M85.2771 16.4298C86.0209 15.613 86.9297 14.9634 87.9433 14.5241C88.9569 14.0847 90.0522 13.8656 91.1568 13.8812C93.3032 13.8812 94.9748 14.545 96.031 15.8193V14.763C96.038 14.617 96.0988 14.4788 96.2017 14.375C96.3046 14.2712 96.4423 14.2092 96.5882 14.201H99.4178C99.5636 14.2097 99.701 14.2719 99.8038 14.3756C99.9066 14.4793 99.9675 14.6172 99.975 14.763V30.4736C100.063 32.6904 99.3777 34.869 98.0369 36.6366C96.5107 38.4923 94.1947 39.4323 91.1519 39.4323C86.9221 39.4323 83.5838 36.7553 83.0338 32.9325C83.0205 32.7946 83.0558 32.6564 83.1337 32.5418C83.2116 32.4272 83.3271 32.3434 83.4602 32.305L86.2244 31.6558C86.2389 31.6546 86.2535 31.6546 86.268 31.6558C86.3401 31.6448 86.4136 31.6482 86.4844 31.6658C86.5552 31.6834 86.6218 31.7149 86.6803 31.7583C86.7389 31.8018 86.7883 31.8564 86.8256 31.9191C86.8629 31.9817 86.8875 32.0512 86.8979 32.1233C87.0212 33.1577 87.5262 34.1087 88.314 34.7902C89.1017 35.4718 90.1155 35.8348 91.1568 35.8081C94.4612 35.8081 96.002 34.1123 96.002 30.568V29.192C95.3956 29.8715 94.6473 30.4094 93.81 30.7678C92.9728 31.1261 92.067 31.2961 91.1568 31.2657C86.4545 31.2657 83.0435 27.6149 83.0435 22.5904C83.0017 20.3315 83.7974 18.137 85.2771 16.4298V16.4298ZM140.146 13.6656H140.294C145.35 13.7334 148.483 17.2535 148.483 22.886C148.482 23.1846 148.466 23.483 148.434 23.7799C148.418 23.9129 148.354 24.0355 148.254 24.1247C148.154 24.214 148.025 24.2636 147.892 24.2645H135.873C135.909 25.4777 136.421 26.628 137.298 27.467C138.175 28.306 139.347 28.7664 140.561 28.7487C141.511 28.808 142.454 28.5436 143.235 27.9985C144.016 27.4534 144.589 26.6598 144.861 25.7471C144.911 25.6136 145.011 25.5046 145.14 25.4428C145.268 25.381 145.416 25.3711 145.551 25.4152L147.942 26.2631C148.012 26.2857 148.075 26.3226 148.129 26.3714C148.183 26.4203 148.226 26.4799 148.255 26.5465C148.288 26.6109 148.307 26.6811 148.312 26.7531C148.317 26.8251 148.307 26.8974 148.284 26.9656C147.742 28.5725 146.697 29.9625 145.305 30.9308C143.913 31.8991 142.246 32.3945 140.551 32.3438C139.421 32.3548 138.301 32.1417 137.254 31.7167C136.208 31.2917 135.256 30.6633 134.453 29.8679C133.578 28.9472 132.895 27.8609 132.446 26.6728C131.996 25.4846 131.788 24.2186 131.835 22.949C131.835 17.1348 136.06 13.6535 140.142 13.6535L140.146 13.6656ZM72.1491 13.6656C77.2947 13.6656 80.4925 17.2002 80.4925 22.8884C80.4921 23.187 80.4759 23.4854 80.4441 23.7824C80.4297 23.916 80.3662 24.0395 80.266 24.129C80.1657 24.2185 80.0358 24.2676 79.9014 24.2669H67.8829C67.9166 25.4869 68.4314 26.6442 69.315 27.4861C70.1987 28.328 71.3795 28.7862 72.5997 28.7608C73.5504 28.821 74.4934 28.557 75.2745 28.0117C76.0556 27.4665 76.6286 26.6724 76.8998 25.7592C76.9486 25.6246 77.0483 25.5144 77.1773 25.4524C77.3064 25.3903 77.4546 25.3813 77.5903 25.4273L79.9911 26.2728C80.0603 26.2951 80.124 26.3319 80.1779 26.3808C80.2318 26.4296 80.2746 26.4895 80.3036 26.5562C80.3311 26.6227 80.3453 26.6939 80.3453 26.7658C80.3453 26.8377 80.3311 26.9089 80.3036 26.9753C79.7614 28.5813 78.7178 29.9708 77.3266 30.939C75.9353 31.9073 74.2698 32.4031 72.5755 32.3535C71.4439 32.3657 70.3212 32.1531 69.2724 31.7281C68.2236 31.3031 67.2696 30.6741 66.4657 29.8776C65.5919 28.9558 64.9103 27.8693 64.4606 26.6814C64.011 25.4936 63.8024 24.228 63.8469 22.9587C63.8469 17.1444 68.0719 13.6632 72.1564 13.6632L72.1491 13.6656ZM53.9457 13.6656C56.2545 13.6656 58.1223 14.2252 59.5056 15.3323C60.4397 16.0774 61.1326 17.0821 61.497 18.2201C61.5084 18.2685 61.5102 18.3186 61.5021 18.3677C61.494 18.4167 61.4763 18.4637 61.4499 18.5058C61.4235 18.548 61.3891 18.5845 61.3485 18.6132C61.3079 18.6419 61.262 18.6623 61.2135 18.6731L58.3476 19.6203C58.2204 19.6688 58.0799 19.6688 57.9527 19.6203C57.8986 19.5954 57.8506 19.5591 57.8117 19.514C57.7728 19.4688 57.7441 19.4159 57.7274 19.3587C57.4852 18.4308 56.6518 16.8731 53.9409 16.8731C52.0489 16.8731 50.9151 17.9584 50.9151 19.0098C50.9151 19.7076 51.276 20.6063 52.9816 20.931L56.1309 21.5221C59.651 22.2319 61.6666 24.1579 61.6666 26.8397V26.7936C61.6666 29.4585 59.1034 32.305 54.3406 32.305C48.8171 32.305 46.6465 29.1799 46.2467 27.3363C46.2335 27.24 46.256 27.1422 46.3101 27.0614C46.3641 26.9806 46.4458 26.9224 46.5399 26.8978L49.4954 25.9772C49.5483 25.9675 49.6025 25.9675 49.6553 25.9772C49.7397 25.9757 49.8231 25.9957 49.8976 26.0354C49.9512 26.0612 49.9985 26.0984 50.0362 26.1444C50.0738 26.1905 50.101 26.2442 50.1156 26.3019C50.4887 28.0752 52.09 29.1314 54.3939 29.1314C56.5379 29.1314 57.5142 28.0098 57.5142 26.9923C57.5142 25.9748 56.6445 25.2262 55.1498 24.9258L51.8357 24.2814C48.7444 23.6976 46.8185 21.7764 46.8185 19.2763C46.8185 16.2336 50.0866 13.6656 53.9457 13.6656ZM175.693 8.73563C175.844 8.74489 175.985 8.81123 176.088 8.9211C176.191 9.03097 176.248 9.17606 176.248 9.32674V14.1719H179.356C179.505 14.1829 179.645 14.25 179.747 14.3596C179.849 14.4692 179.906 14.6133 179.906 14.763V17.3455C179.907 17.4925 179.849 17.6337 179.746 17.7385C179.643 17.8433 179.503 17.9032 179.356 17.9051H176.248V26.5272C176.248 27.9565 176.815 28.5476 178.273 28.5476C178.606 28.542 178.938 28.5145 179.267 28.4652C179.346 28.4516 179.428 28.4557 179.506 28.477C179.583 28.4984 179.656 28.5365 179.717 28.5888C179.776 28.6433 179.823 28.7092 179.855 28.7825C179.888 28.8558 179.905 28.935 179.906 29.0152V31.4378C179.907 31.5583 179.869 31.6759 179.797 31.7729C179.725 31.8699 179.624 31.941 179.509 31.9756C178.799 32.1744 178.065 32.2699 177.328 32.259C174.213 32.259 172.282 30.2555 172.282 27.0238V17.9415H169.593C169.448 17.9327 169.31 17.8704 169.208 17.7667C169.106 17.663 169.045 17.525 169.038 17.3794V14.7921C169.037 14.6413 169.095 14.4958 169.198 14.3858C169.301 14.2759 169.443 14.2097 169.593 14.201H170.291C171.136 14.201 172.561 13.9054 172.561 11.8898V9.32674C172.56 9.17589 172.617 9.03047 172.72 8.92048C172.823 8.81048 172.965 8.74431 173.116 8.73563H175.693ZM117.357 16.5533C117.965 15.6247 118.804 14.8701 119.791 14.3638C120.779 13.8575 121.881 13.6169 122.99 13.6656V13.6656C126.062 13.6656 129.165 15.829 129.165 20.5555V31.4959C129.157 31.6417 129.096 31.7797 128.994 31.8833C128.891 31.987 128.753 32.0492 128.608 32.0579H125.776C125.63 32.0486 125.494 31.9862 125.391 31.8826C125.289 31.7789 125.228 31.6413 125.221 31.4959V20.9067C125.221 19.567 124.802 17.3092 121.965 17.3092C119.891 17.3092 118.418 18.9396 118.418 21.304V31.4959C118.411 31.6415 118.351 31.7794 118.248 31.8832C118.146 31.9869 118.009 32.0491 117.863 32.0579H114.995C114.849 32.0492 114.712 31.987 114.609 31.8833C114.506 31.7797 114.445 31.6417 114.438 31.4959V20.9067C114.443 19.567 114.026 17.2995 111.187 17.2995C109.031 17.2995 107.577 18.9178 107.577 21.3283V31.4959C107.57 31.6413 107.509 31.7789 107.407 31.8826C107.304 31.9862 107.168 32.0486 107.022 32.0579H104.193C104.048 32.048 103.912 31.9852 103.811 31.8816C103.709 31.778 103.65 31.6407 103.643 31.4959V14.7267C103.65 14.5821 103.71 14.4451 103.811 14.3415C103.913 14.238 104.048 14.1751 104.193 14.1647H106.916C107.061 14.174 107.198 14.2364 107.3 14.34C107.402 14.4437 107.463 14.5813 107.471 14.7267V15.7369C108.077 15.0734 108.817 14.5457 109.642 14.1887C110.467 13.8317 111.359 13.6535 112.258 13.6656C113.29 13.6354 114.311 13.8885 115.21 14.3976C116.109 14.9067 116.852 15.6522 117.357 16.5533V16.5533ZM160.506 13.6656C161.412 13.6269 162.314 13.7945 163.146 14.1559C163.977 14.5172 164.716 15.0628 165.305 15.7515C166.405 17.1993 166.965 18.986 166.887 20.8026V31.4959C166.881 31.6405 166.822 31.7778 166.721 31.8814C166.62 31.9851 166.484 32.0479 166.34 32.0579H163.474C163.328 32.0487 163.191 31.9863 163.088 31.8828C162.986 31.7792 162.924 31.6415 162.916 31.4959V21.3743C162.916 18.7264 161.671 17.3794 159.307 17.3794C158.792 17.3629 158.281 17.4676 157.814 17.6852C157.347 17.9027 156.938 18.2271 156.62 18.6319C155.979 19.5539 155.655 20.6592 155.697 21.7813V31.4959C155.69 31.6413 155.629 31.7789 155.527 31.8826C155.424 31.9862 155.288 32.0486 155.142 32.0579H152.281C152.136 32.0486 151.999 31.9862 151.897 31.8826C151.795 31.7789 151.734 31.6413 151.726 31.4959V14.7146C151.732 14.5684 151.792 14.4296 151.895 14.3252C151.997 14.2209 152.135 14.1584 152.281 14.1501H155.077C155.221 14.1595 155.357 14.2217 155.459 14.325C155.56 14.4282 155.62 14.5652 155.627 14.7097V15.892C156.219 15.1768 156.966 14.6051 157.811 14.2195C158.656 13.834 159.577 13.6446 160.506 13.6656ZM91.6486 17.4158C88.8577 17.4158 87.0868 19.3999 87.0868 22.5904C87.0868 25.781 88.8359 27.7627 91.6486 27.7627C94.3304 27.7627 96.1376 25.6817 96.1376 22.5904C96.1376 19.4992 94.3304 17.4158 91.6486 17.4158ZM72.1782 17.2559C71.1484 17.2381 70.1491 17.6052 69.3758 18.2854C68.6024 18.9655 68.1107 19.9098 67.9968 20.9334H76.4032C76.2021 18.6634 74.5887 17.2559 72.1782 17.2559V17.2559ZM140.193 17.2559C139.164 17.2399 138.166 17.6077 137.394 18.2877C136.621 18.9676 136.13 19.9109 136.016 20.9334H144.425C144.216 18.6634 142.613 17.2559 140.19 17.2559H140.193Z" fill="#52BD94"/>
<path d="M50.9878 2.32545V7.9604H49.3913V2.32545H47.1843V0.959106H53.219V2.32545H50.9878Z" fill="#52BD94"/>
<path d="M63.1832 7.98463H61.5237L60.0023 2.8245L58.4543 7.98463H56.8287L54.7695 0.959106H56.4653L57.7711 6.0199L59.2441 0.959106H60.9399L62.3934 6.0199L63.658 0.959106H65.2182L63.1832 7.98463Z" fill="#52BD94"/>
<path d="M67.4154 7.9604V0.959106H68.9877V7.9604H67.4154Z" fill="#52BD94"/>
<path d="M71.8173 7.9604V0.959106H73.4137V6.58195H76.1464V7.9604H71.8173Z" fill="#52BD94"/>
<path d="M78.5254 7.9604V0.959106H80.1098V7.9604H78.5254Z" fill="#52BD94"/>
<path d="M86.038 8.09365C84.0999 8.09365 82.5494 6.70308 82.5494 4.47187C82.5494 2.24066 84.1217 0.837982 86.0501 0.837982C87.9785 0.837982 89.5362 2.22855 89.5362 4.47187C89.5362 6.71519 87.976 8.09365 86.038 8.09365ZM86.038 2.11953C84.8267 2.11953 84.1217 3.11764 84.1217 4.45976C84.1217 5.80188 84.8485 6.8121 86.038 6.8121C87.2275 6.8121 87.9276 5.78976 87.9276 4.47187C87.9276 3.15398 87.2202 2.11953 86.0501 2.11953H86.038Z" fill="#52BD94"/>
</g>
<defs>
<clipPath id="clip0_120_194">
<rect width="179.5" height="38.6065" fill="white" transform="translate(0.406494 0.825867)"/>
</clipPath>
</defs>
</svg>
